<svg width="187" height="131" viewBox="0 0 187 131" fill="none" xmlns="http://www.w3.org/2000/svg">
<mask id="mask0_291_529" style="mask-type:alpha" maskUnits="userSpaceOnUse" x="0" y="2" width="187" height="128">
<path fill-rule="evenodd" clip-rule="evenodd" d="M107.928 102.299C106.257 103.709 104.585 105.12 102.92 106.532V128.315H186.845V104.54H141.684C161.059 89.2809 184.961 67.2952 184.961 39.8672C184.961 18.7766 172.588 2.13211 144.862 2.13211C122.633 2.13211 103.426 15.2109 102.583 45.526H130.169C130.169 33.6165 135.062 26.7595 143.695 26.7595C152.328 26.7595 156.349 32.5916 156.349 41.6861C156.349 61.4344 132.245 81.7768 107.928 102.299ZM93.8937 65.7505C93.8937 28.997 81.7035 2.23308 46.9468 2.23308C12.1901 2.23308 0 28.997 0 65.7505C0 102.793 12.1901 129.557 46.9468 129.557C81.7035 129.557 93.8937 102.793 93.8937 65.7505ZM28.0641 65.7505C28.0641 46.4787 30.0747 29.6611 46.9468 29.6611V29.6755C63.819 29.6755 65.8296 46.4932 65.8296 65.7505C65.8296 85.643 63.819 102.114 46.9468 102.114C30.0747 102.114 28.0641 85.643 28.0641 65.7505Z" fill="black"/>
</mask>
<g mask="url(#mask0_291_529)">
<path d="M0.122772 65.6551L66.7188 65.6551L66.7187 -5.0858L0.122772 -5.0858L0.122772 65.6551Z" fill="#009DFF"/>
<path d="M-66.4729 65.6552L0.123047 65.6552L0.123047 -5.08574L-66.4729 -5.08574L-66.4729 65.6552Z" fill="#009DFF"/>
<path d="M0.123047 15.744V65.6551H47.1032C47.1032 38.0874 26.0746 15.744 0.123047 15.744Z" fill="#29307A"/>
<path d="M0.134041 65.6552H-66.4619V136.396H0.134041V65.6552Z" fill="#FF0098"/>
<path d="M66.719 65.6552H0.123047V136.396H66.719V65.6552Z" fill="#FFD600"/>
<path d="M132.804 136.385H199.911V65.6439L132.804 65.6439V136.385Z" fill="#FFD600"/>
<path d="M66.7185 65.6551L132.804 65.6551V-5.0858L66.7185 -5.0858L66.7185 65.6551Z" fill="#29307A"/>
<path d="M66.7185 136.385H132.804V65.6439L66.7185 65.6439L66.7185 136.385Z" fill="#FF0098"/>
<path d="M199.911 65.6551V-5.08578L132.804 -5.08578V65.6551H199.911Z" fill="#29307A"/>
<path d="M132.803 86.485V136.385H86.334C86.334 108.828 106.863 86.485 132.803 86.485Z" fill="#29307A"/>
<path d="M132.804 86.485V136.385H180.295C180.295 108.828 158.744 86.485 132.804 86.485Z" fill="#29307A"/>
<path d="M199.9 12.605V3.75964L132.794 3.75964V12.605L199.9 12.605Z" fill="#009DFF"/>
<path d="M199.911 30.2846V21.4392L132.804 21.4392V30.2846L199.911 30.2846Z" fill="#009DFF"/>
<path d="M199.911 47.9643V39.1189L132.804 39.1189V47.9643H199.911Z" fill="#009DFF"/>
<path d="M199.911 65.6551V56.8097L132.804 56.8097V65.6551H199.911Z" fill="#009DFF"/>
</g>
</svg>
