<svg width="48" height="49" viewBox="0 0 48 49" fill="none" xmlns="http://www.w3.org/2000/svg">
<path d="M8.5 0.612549C3.8 0.612549 0 4.49172 0 9.28963V39.7105C0 44.5084 3.8 48.3876 8.5 48.3876H39.5C44.2 48.3876 48 44.5084 48 39.7105V9.28963C48 4.49172 44.2 0.612549 39.5 0.612549H8.5ZM31.12 11.0863H35.18C35.28 11.0659 35.36 11.1475 35.38 11.2292V30.7067C35.38 31.0742 35.4 31.4826 35.42 31.9317C35.46 32.3605 35.48 32.7688 35.5 33.1159C35.5 33.2588 35.44 33.3813 35.3 33.4425C34.26 33.8917 33.16 34.2184 32.04 34.4226C31.04 34.6063 30 34.7084 28.96 34.7084C27.48 34.7288 26 34.4226 24.66 33.7896C23.4 33.1976 22.36 32.2175 21.64 31.013C20.9 29.7675 20.54 28.2159 20.54 26.358C20.52 24.8471 20.9 23.3567 21.64 22.05C22.4 20.723 23.5 19.6205 24.82 18.8855C26.22 18.0892 27.9 17.7013 29.88 17.7013C29.98 17.7013 30.12 17.7013 30.3 17.7217C30.48 17.7421 30.68 17.7421 30.92 17.7625V11.3109C30.92 11.168 30.98 11.0863 31.12 11.0863ZM13.26 12.8421H17.16C17.28 12.8217 17.4 12.9034 17.42 13.0463C17.44 13.0667 17.44 13.0871 17.44 13.1075V34.0551C17.44 34.2796 17.34 34.3817 17.16 34.3817H13.24C13.06 34.3817 12.98 34.2796 12.98 34.0551V13.1075C12.98 12.9238 13.08 12.8421 13.26 12.8421V12.8421ZM29.72 21.4988C28.94 21.4988 28.16 21.6621 27.46 22.0296C26.78 22.3767 26.2 22.8871 25.76 23.5405C25.32 24.1938 25.1 25.0717 25.1 26.1334C25.08 26.848 25.2 27.5625 25.44 28.2363C25.64 28.7875 25.94 29.2775 26.34 29.6859C26.72 30.0534 27.18 30.3392 27.7 30.5025C28.24 30.6863 28.8 30.768 29.36 30.768C29.66 30.768 29.94 30.7476 30.2 30.7271C30.46 30.7476 30.7 30.7067 30.92 30.625V21.6417C30.5269 21.5459 30.1241 21.4979 29.72 21.4988V21.4988Z" fill="#FF009D"/>
</svg>
