<svg width="48" height="48" viewBox="0 0 48 48" fill="none" xmlns="http://www.w3.org/2000/svg">
<path d="M39.5 0.600098H8.5C3.8 0.600098 0 4.4001 0 9.1001V38.9001C0 43.6001 3.8 47.4001 8.5 47.4001H39.5C44.2 47.4001 48 43.6001 48 38.9001V9.1001C48 4.4001 44.2 0.600098 39.5 0.600098ZM25.52 33.3781C25.52 33.4801 25.462 33.5581 25.4 33.6201C25.3405 33.6603 25.2698 33.6806 25.198 33.6781H12.52C12.3 33.6781 12.2 33.5561 12.2 33.3181V12.8801C12.18 12.7401 12.28 12.6201 12.42 12.6001H16.42C16.52 12.5801 16.64 12.6601 16.64 12.7601V29.6201H25.88C26.082 29.6201 26.142 29.7181 26.1 29.9001L25.52 33.3781ZM38.02 17.6601V21.5601C38.02 21.7201 37.92 21.7801 37.7 21.7801C36.402 21.7001 35.1 21.9401 33.92 22.4601C33.52 22.6401 33.14 22.8801 32.84 23.2001V33.4001C32.84 33.6001 32.76 33.6801 32.58 33.6801H28.68C28.52 33.7001 28.38 33.6001 28.36 33.4421V22.2801C28.36 21.8001 28.36 21.3001 28.34 20.7801C28.32 20.2601 28.32 19.7401 28.3 19.2201C28.28 18.7801 28.24 18.3401 28.178 17.9001C28.158 17.8001 28.218 17.7001 28.318 17.6801C28.338 17.6601 28.358 17.6601 28.398 17.6801H31.898C32.098 17.6801 32.258 17.8201 32.318 18.0001C32.398 18.1401 32.458 18.3001 32.478 18.4601C32.518 18.6601 32.556 18.8801 32.578 19.0801C32.598 19.3001 32.62 19.5401 32.62 19.8001C33.218 19.1001 33.94 18.5201 34.758 18.0801C35.678 17.5801 36.698 17.3401 37.738 17.3601C37.876 17.3401 37.998 17.4401 38.018 17.5801L38.02 17.6601Z" fill="#019EFF"/>
</svg>
