<svg width="48" height="48" viewBox="0 0 48 48" fill="none" xmlns="http://www.w3.org/2000/svg">
<path d="M19.7 16.84C18.96 16.54 18.16 16.42 17.34 16.44C16.82 16.44 16.36 16.44 15.98 16.46C15.58 16.44 15.3 16.46 15.16 16.48V23.2C15.44 23.22 15.7 23.24 15.94 23.24H17C17.78 23.24 18.56 23.12 19.3 22.88C19.94 22.7 20.5 22.32 20.94 21.82C21.36 21.32 21.56 20.64 21.56 19.76C21.58 19.14 21.42 18.52 21.1 17.98C20.7665 17.4607 20.2761 17.0613 19.7 16.84ZM39.5 0.599976H8.5C3.8 0.599976 0 4.39998 0 9.09997V38.898C0 43.598 3.8 47.398 8.5 47.398H39.5C44.2 47.398 48 43.598 48 38.898V9.09997C48 4.39998 44.2 0.599976 39.5 0.599976ZM24.718 23.9C23.92 25.02 22.8 25.86 21.5 26.34C20.14 26.84 18.64 27.02 17 27.02C16.52 27.02 16.2 27.02 16 27C15.8 26.98 15.52 26.98 15.14 26.98V33.398C15.16 33.538 15.06 33.66 14.92 33.68H11.04C10.88 33.68 10.8 33.598 10.8 33.418V12.84C10.8 12.7 10.86 12.62 11 12.62C11.34 12.62 11.66 12.62 12.12 12.6C12.6 12.58 13.1 12.58 13.64 12.56C14.18 12.54 14.76 12.54 15.38 12.52C16 12.5 16.6 12.5 17.2 12.5C18.84 12.5 20.2 12.7 21.32 13.12C22.32 13.46 23.24 14.02 24 14.76C24.64 15.4 25.14 16.18 25.46 17.04C25.758 17.88 25.918 18.74 25.918 19.64C25.92 21.36 25.52 22.78 24.718 23.9ZM38.9 31.68C38.34 32.48 37.558 33.098 36.66 33.462C35.68 33.88 34.48 34.098 33.038 34.098C32.12 34.098 31.218 34.02 30.32 33.84C29.62 33.718 28.92 33.5 28.28 33.2C28.14 33.122 28.038 32.982 28.058 32.822V29.342C28.058 29.284 28.08 29.202 28.14 29.162C28.198 29.122 28.26 29.142 28.32 29.182C29.1 29.642 29.92 29.964 30.8 30.162C31.558 30.362 32.358 30.462 33.16 30.462C33.92 30.462 34.46 30.36 34.82 30.18C35.14 30.04 35.36 29.7 35.36 29.34C35.36 29.058 35.2 28.8 34.88 28.54C34.56 28.282 33.902 27.982 32.922 27.598C31.902 27.238 30.964 26.758 30.082 26.16C29.4562 25.7117 28.9366 25.1314 28.56 24.46C28.2421 23.8272 28.0848 23.1259 28.102 22.418C28.102 21.558 28.342 20.738 28.784 19.998C29.284 19.198 30.022 18.558 30.882 18.158C31.82 17.68 33 17.46 34.42 17.46C35.24 17.46 36.08 17.52 36.9 17.64C37.5 17.72 38.08 17.88 38.62 18.1C38.698 18.12 38.78 18.2 38.82 18.28C38.84 18.36 38.86 18.44 38.86 18.52V21.78C38.86 21.86 38.82 21.94 38.76 21.98C38.58 22.02 38.48 22.02 38.4 21.98C37.8 21.66 37.16 21.44 36.48 21.3C35.74 21.14 35 21.04 34.24 21.04C33.84 21.02 33.42 21.08 33.038 21.18C32.78 21.24 32.558 21.38 32.418 21.58C32.318 21.74 32.258 21.94 32.258 22.12C32.258 22.3 32.338 22.48 32.46 22.64C32.64 22.86 32.878 23.04 33.14 23.18C33.598 23.42 34.08 23.64 34.558 23.84C35.64 24.2 36.68 24.7 37.64 25.3C38.3 25.718 38.84 26.28 39.218 26.96C39.538 27.596 39.698 28.3 39.678 29.018C39.7 29.96 39.42 30.898 38.9 31.68Z" fill="#FF009D"/>
</svg>
