<svg width="48" height="49" viewBox="0 0 48 49" fill="none" xmlns="http://www.w3.org/2000/svg">
<path d="M21.06 21.9071C20.86 21.2742 20.68 20.6617 20.48 20.0288C20.28 19.3959 20.1 18.8038 19.94 18.2117C19.78 17.64 19.64 17.1092 19.5 16.6192H19.46C19.28 17.4971 19.06 18.375 18.78 19.253C18.48 20.233 18.18 21.2538 17.86 22.2746C17.58 23.3159 17.28 24.2755 16.98 25.133H22.06C21.94 24.7022 21.78 24.1938 21.6 23.6609C21.42 23.1117 21.24 22.5196 21.06 21.9071ZM39.5 0.612549H8.5C3.8 0.612549 0 4.49172 0 9.28963V39.7105C0 44.5084 3.8 48.3876 8.5 48.3876H39.5C44.2 48.3876 48 44.5084 48 39.7105V9.28963C48 4.49172 44.2 0.612549 39.5 0.612549ZM29.4 34.3613H25.218C25.08 34.3817 24.94 34.2796 24.9 34.1367L23.26 29.2775H15.82L14.3 34.0755C14.26 34.2592 14.1 34.3817 13.92 34.3633H10.16C9.94 34.3633 9.88 34.2388 9.94 33.9958L16.38 15.0675C16.44 14.8634 16.5 14.6388 16.58 14.3938C16.66 13.965 16.7 13.5159 16.7 13.0667C16.68 12.9646 16.76 12.8625 16.86 12.8421H22.04C22.2 12.8421 22.28 12.9034 22.3 13.0055L29.6 34.0346C29.66 34.2572 29.6 34.3613 29.4 34.3613ZM36.2 34.0551C36.2 34.2796 36.122 34.3817 35.942 34.3817H32.02C31.82 34.3817 31.72 34.2572 31.72 34.0551V18.3342C31.72 18.13 31.802 18.0484 31.982 18.0484H35.942C36.122 18.0484 36.2 18.1505 36.2 18.3342V34.0551ZM35.782 15.6188C35.5458 15.8637 35.261 16.0541 34.9468 16.1774C34.6325 16.3006 34.2961 16.3538 33.96 16.3334C33.3 16.3538 32.66 16.0884 32.178 15.6188C31.7198 15.1073 31.4757 14.4332 31.498 13.7405C31.478 13.0463 31.738 12.393 32.216 11.9234C32.7 11.4538 33.34 11.2088 34 11.2088C34.782 11.2088 35.378 11.4538 35.82 11.9234C36.26 12.4134 36.5 13.0667 36.48 13.7405C36.5 14.4346 36.26 15.1084 35.782 15.6188Z" fill="#019EFF"/>
</svg>
