<svg width="32" height="33" viewBox="0 0 32 33" fill="none" xmlns="http://www.w3.org/2000/svg">
<g clip-path="url(#clip0_300_631)">
<path d="M16 0.83496C11.7565 0.83496 7.68687 2.52067 4.68629 5.52125C1.68571 8.52183 8.8487e-07 12.5915 6.99382e-07 16.835C5.13895e-07 21.0784 1.68571 25.1481 4.68629 28.1487C7.68687 31.1493 11.7565 32.835 16 32.835C20.2435 32.835 24.3131 31.1493 27.3137 28.1487C30.3143 25.1481 32 21.0784 32 16.835C32 12.5915 30.3143 8.52183 27.3137 5.52125C24.3131 2.52067 20.2435 0.83496 16 0.83496ZM23 15.835C23.2652 15.835 23.5196 15.9403 23.7071 16.1279C23.8946 16.3154 24 16.5697 24 16.835C24 17.1002 23.8946 17.3545 23.7071 17.5421C23.5196 17.7296 23.2652 17.835 23 17.835L11.414 17.835L15.708 22.127C15.8958 22.3147 16.0013 22.5694 16.0013 22.835C16.0013 23.1005 15.8958 23.3552 15.708 23.543C15.5202 23.7307 15.2656 23.8362 15 23.8362C14.7344 23.8362 14.4798 23.7307 14.292 23.543L8.292 17.543C8.19887 17.4501 8.12499 17.3397 8.07458 17.2182C8.02416 17.0967 7.99821 16.9665 7.99821 16.835C7.99821 16.7034 8.02416 16.5732 8.07458 16.4517C8.12499 16.3302 8.19887 16.2199 8.292 16.127L14.292 10.127C14.4798 9.93919 14.7345 9.8337 15 9.8337C15.2656 9.8337 15.5202 9.93919 15.708 10.127C15.8958 10.3147 16.0013 10.5694 16.0013 10.835C16.0013 11.1005 15.8958 11.3552 15.708 11.543L11.414 15.835L23 15.835Z" fill="white"/>
</g>
<defs>
<clipPath id="clip0_300_631">
<rect width="32" height="32" fill="white" transform="matrix(4.37114e-08 -1 -1 -4.37114e-08 32 32.835)"/>
</clipPath>
</defs>
</svg>
