<svg width="32" height="33" viewBox="0 0 32 33" fill="none" xmlns="http://www.w3.org/2000/svg">
<g clip-path="url(#clip0_300_629)">
<path d="M16 0.83496C20.2435 0.83496 24.3131 2.52067 27.3137 5.52125C30.3143 8.52183 32 12.5915 32 16.835C32 21.0784 30.3143 25.1481 27.3137 28.1487C24.3131 31.1493 20.2435 32.835 16 32.835C11.7565 32.835 7.68687 31.1493 4.68629 28.1487C1.68571 25.1481 -5.13895e-07 21.0784 -6.99382e-07 16.835C-8.8487e-07 12.5915 1.68571 8.52183 4.68629 5.52125C7.68687 2.52067 11.7565 0.83496 16 0.83496ZM9 15.835C8.73478 15.835 8.48043 15.9403 8.29289 16.1279C8.10536 16.3154 8 16.5697 8 16.835C8 17.1002 8.10536 17.3545 8.29289 17.5421C8.48043 17.7296 8.73478 17.835 9 17.835L20.586 17.835L16.292 22.127C16.1042 22.3147 15.9987 22.5694 15.9987 22.835C15.9987 23.1005 16.1042 23.3552 16.292 23.543C16.4798 23.7307 16.7344 23.8362 17 23.8362C17.2656 23.8362 17.5202 23.7307 17.708 23.543L23.708 17.543C23.8011 17.4501 23.875 17.3397 23.9254 17.2182C23.9758 17.0967 24.0018 16.9665 24.0018 16.835C24.0018 16.7034 23.9758 16.5732 23.9254 16.4517C23.875 16.3302 23.8011 16.2199 23.708 16.127L17.708 10.127C17.5202 9.93919 17.2655 9.8337 17 9.8337C16.7344 9.8337 16.4798 9.93919 16.292 10.127C16.1042 10.3147 15.9987 10.5694 15.9987 10.835C15.9987 11.1005 16.1042 11.3552 16.292 11.543L20.586 15.835L9 15.835Z" fill="white"/>
</g>
<defs>
<clipPath id="clip0_300_629">
<rect width="32" height="32" fill="white" transform="translate(0 32.835) rotate(-90)"/>
</clipPath>
</defs>
</svg>
