<svg width="48" height="48" viewBox="0 0 48 48" fill="none" xmlns="http://www.w3.org/2000/svg">
<rect width="48" height="48" rx="10" fill="#FF009D"/>
<rect x="4.48047" y="8.95996" width="38.4" height="30.72" rx="14" fill="white"/>
<path d="M24 0C10.746 0 0 10.746 0 24C0 37.254 10.746 48 24 48C37.254 48 48 37.254 48 24C48 10.746 37.254 0 24 0ZM13.924 15.36C15.432 15.36 16.598 16.458 16.734 17.76C16.872 18.926 16.392 19.954 15.09 20.572C14.404 20.914 14.13 20.916 13.992 20.71C13.924 20.572 13.992 20.436 14.13 20.298C15.364 19.27 15.364 18.446 15.226 17.282C15.158 16.526 14.61 16.046 14.06 16.046C11.66 16.046 8.232 21.394 8.712 25.304C8.918 26.812 9.81 28.596 11.73 28.596C12.346 28.596 13.03 28.39 13.65 28.116C14.65 27.588 15.248 27.176 15.844 26.516C15.698 24.746 17.252 22.424 19.546 22.424C20.576 22.424 21.398 22.834 21.466 23.59C21.602 24.618 20.712 24.754 20.438 24.754C20.164 24.754 19.682 24.686 19.682 24.414C19.614 24.138 20.3 24.274 20.232 23.658C20.162 23.246 19.752 23.11 19.34 23.11C17.9 23.11 17.078 25.098 17.282 26.332C17.352 26.882 17.626 27.43 18.176 27.43C18.586 27.43 19.204 26.81 19.41 25.92C19.546 25.304 20.096 24.892 20.576 24.892C20.78 24.892 20.916 24.96 20.986 25.234V25.51C20.918 25.784 20.712 26.606 20.782 26.812C20.782 26.95 20.85 27.154 21.122 27.154C21.306 27.154 21.994 26.794 22.676 26.236C22.91 25.056 23.182 23.64 23.182 23.522C23.25 23.042 23.456 22.562 24.416 22.562C24.622 22.562 24.758 22.63 24.826 22.904V23.18L24.554 24.414C25.444 23.248 26.748 22.426 27.57 22.426C27.914 22.426 28.188 22.63 28.188 22.974C28.188 23.18 28.188 23.522 28.05 23.866C27.776 24.62 27.432 25.786 27.226 26.814C27.226 27.088 27.296 27.362 27.64 27.362C27.982 27.362 29.01 26.95 29.832 25.854L29.846 25.846C29.842 25.71 29.832 25.578 29.832 25.442C29.832 24.62 29.902 23.934 30.04 23.454C30.176 22.906 30.862 22.426 31.274 22.426C31.48 22.426 31.684 22.564 31.684 22.768C31.684 22.838 31.684 22.974 31.616 23.042C31.342 23.934 31.136 24.756 31.136 25.58C31.136 26.06 31.204 26.744 31.34 27.156C31.34 27.224 31.41 27.294 31.48 27.294C31.616 27.294 32.576 26.404 33.26 25.238C32.644 24.826 32.3 24.14 32.3 23.318C32.3 21.878 33.192 21.124 34.016 21.124C34.702 21.124 35.25 21.604 35.25 22.564C35.25 23.18 35.044 23.864 34.702 24.484H34.906C35.1236 24.4911 35.3401 24.452 35.5415 24.3692C35.7428 24.2865 35.9243 24.162 36.074 24.004C36.1369 23.9001 36.2306 23.8183 36.342 23.77C37.012 22.92 38.002 22.29 39.162 22.29C40.122 22.29 41.01 22.7 41.08 23.454C41.216 24.484 40.324 24.69 40.05 24.69L40.046 24.686C39.77 24.686 39.292 24.616 39.292 24.342C39.292 24.068 39.91 24.206 39.84 23.59C39.772 23.178 39.36 23.04 38.948 23.04C37.576 23.04 36.688 24.822 36.892 26.262C36.96 26.812 37.234 27.428 37.782 27.428C38.194 27.428 38.812 26.812 39.086 25.92C39.222 25.372 39.772 24.892 40.252 24.892C40.458 24.892 40.592 24.96 40.662 25.234C40.662 25.372 40.662 25.646 40.388 26.538C40.048 27.154 40.046 27.498 40.114 27.772C40.182 28.32 40.456 28.732 40.732 28.938C40.8 29.006 40.868 29.142 40.868 29.142C40.868 29.28 40.8 29.418 40.594 29.418C40.526 29.418 40.458 29.418 40.388 29.348C39.36 28.938 38.948 28.252 38.81 27.566C38.4 28.046 37.92 28.32 37.37 28.32C36.48 28.32 35.59 27.498 35.45 26.468C35.4107 26.0296 35.4618 25.5879 35.6 25.17C35.194 25.43 34.756 25.576 34.354 25.576H34.014C33.12 26.88 32.16 27.772 31.474 28.182C31.241 28.306 30.9836 28.377 30.72 28.39C30.584 28.39 30.378 28.32 30.31 28.182C30.12 27.878 29.998 27.398 29.924 26.848C28.962 27.902 27.634 28.458 27.018 28.458C26.332 28.458 25.922 28.046 25.854 27.358V26.606C26.058 25.098 26.608 24.206 26.608 23.932C26.6061 23.8958 26.591 23.8616 26.5656 23.8358C26.5402 23.81 26.5062 23.7944 26.47 23.792C25.99 23.792 24.414 25.44 24.138 26.538L23.932 27.428C23.796 28.046 23.178 28.458 22.768 28.458C22.562 28.458 22.424 28.388 22.356 28.114V27.84L22.448 27.374C21.578 27.994 20.708 28.39 20.298 28.39C19.682 28.39 19.338 28.046 19.27 27.566C18.858 28.114 18.38 28.39 17.762 28.39C17.058 28.39 16.37 27.91 16.038 27.204C15.55 27.754 14.992 28.31 14.334 28.732C13.374 29.35 12.278 29.83 10.974 29.83C9.81 29.83 8.78 29.212 8.232 28.664C7.408 27.91 6.93 26.744 6.86 25.646C6.45 22.286 8.506 17.966 11.66 16.046C12.416 15.636 13.17 15.36 13.924 15.36ZM33.464 21.942C33.256 21.942 33.12 22.286 33.12 22.628C33.12 23.176 33.394 23.794 33.738 24.138C33.8721 23.7638 33.9411 23.3695 33.942 22.972C33.942 22.286 33.668 21.942 33.462 21.942H33.464Z" fill="#FF009D"/>
</svg>
