<svg width="32" height="32" viewBox="0 0 32 32" fill="none" xmlns="http://www.w3.org/2000/svg">
<path d="M6.09924 6.09998C6.4743 5.72503 6.98292 5.5144 7.51324 5.5144C8.04357 5.5144 8.55219 5.72503 8.92724 6.09998L15.9992 13.172L23.0712 6.09998C23.4484 5.73566 23.9536 5.53407 24.478 5.53863C25.0024 5.54319 25.5041 5.75352 25.8749 6.12434C26.2457 6.49516 26.456 6.99678 26.4606 7.52117C26.4651 8.04557 26.2636 8.55077 25.8992 8.92798L18.8272 16L25.8992 23.072C26.2636 23.4492 26.4651 23.9544 26.4606 24.4788C26.456 25.0032 26.2457 25.5048 25.8749 25.8756C25.5041 26.2464 25.0024 26.4568 24.478 26.4613C23.9536 26.4659 23.4484 26.2643 23.0712 25.9L15.9992 18.828L8.92724 25.9C8.55004 26.2643 8.04484 26.4659 7.52044 26.4613C6.99605 26.4568 6.49442 26.2464 6.12361 25.8756C5.75279 25.5048 5.54245 25.0032 5.5379 24.4788C5.53334 23.9544 5.73493 23.4492 6.09924 23.072L13.1712 16L6.09924 8.92798C5.7243 8.55292 5.51367 8.0443 5.51367 7.51398C5.51367 6.98365 5.7243 6.47503 6.09924 6.09998Z" fill="white"/>
</svg>
