<svg width="48" height="48" viewBox="0 0 48 48" fill="none" xmlns="http://www.w3.org/2000/svg">
<rect width="48" height="48" rx="10" fill="#FFD701"/>
<path fill-rule="evenodd" clip-rule="evenodd" d="M21.4676 37.1273H26.3942L25.7238 40H22.1292L21.4676 37.1273ZM20.099 19.5469C20.3556 23.8675 21.495 29.2667 23.4487 35.5333C23.7865 35.6966 24.1073 35.6904 24.413 35.5333C26.3661 29.2688 27.5055 23.8709 27.7624 19.551C28.6078 4 19.2733 4.4375 20.099 19.5469ZM22.1379 8C22.1379 8 16.387 10.101 16.801 18.1819C17.2149 26.2628 22.935 35.5289 22.935 35.5289C19.4136 32.5131 14.1978 23.118 14.0973 17.5894C14.0611 12.6875 17.5186 8.57687 22.1379 8ZM12.9945 18.2987C13.8351 26.5041 22.5053 35.8457 21.8131 35.233C19.8824 33.6257 13.3815 26.0583 12.1599 18.9671C10.9383 11.8761 17.1157 9.42 17.1157 9.42C13.53 11.7667 12.5921 15.2009 12.9945 18.2988L12.9945 18.2987ZM26.232 35.1431C26.7037 34.1944 30.7818 25.7942 31.1718 18.1819C31.5857 10.101 25.8349 8 25.8349 8C26.371 8.022 27.5643 8.358 28.6908 8.87625C29.8172 9.39444 33.7979 11.7554 33.8754 17.5894C33.8093 21.2212 32.0318 26.3937 29.8216 30.3706C32.0604 27.0565 34.5724 22.5269 35.0055 18.2987C35.408 15.2009 34.47 11.7667 30.8843 9.42C30.8843 9.42 37.0616 11.8761 35.8401 18.9671C34.6184 26.0583 28.1058 33.6332 26.1752 35.2405L26.232 35.1432V35.1431Z" fill="white"/>
</svg>
