<svg width="61" height="29" viewBox="0 0 61 29" fill="none" xmlns="http://www.w3.org/2000/svg">
<path d="M2.45846 14.535H0V11.6045H2.52801V10.8608C2.52801 7.25591 4.22097 6 7.56079 6C8.4653 6 9.16104 6.13951 9.69431 6.23273L9.43936 9.11636C9.09159 9.00011 8.74362 8.93014 8.11742 8.93014C7.05066 8.93014 6.63313 9.67441 6.63313 10.8607V11.6047H9.60172V14.5351H6.63313V23.7208H2.45846V14.535ZM11.7815 6.27913H15.9561V23.7206H11.7815V6.27913ZM19.5277 6.55815H23.7024V9.6279H19.5277V6.55815ZM19.5277 11.6046H23.7024V23.7205H19.5277V11.6046ZM36.2496 15.0695C35.4841 14.6047 34.7189 14.3952 33.7215 14.3952C31.9125 14.3952 30.521 15.651 30.521 17.7441C30.521 19.6744 32.1445 20.9299 33.9534 20.9299C34.9045 20.9299 35.8555 20.7209 36.5511 20.3487L36.6438 23.4649C35.6001 23.814 34.3478 24 33.2347 24C29.2453 24 26.2073 21.6744 26.2073 17.6745C26.2073 13.6512 29.2453 11.3258 33.2346 11.3258C34.487 11.3258 35.6001 11.5352 36.5511 12.0002L36.2496 15.0695ZM42.558 16.6977H42.6045L46.0832 11.6045H50.652L46.4543 17.1625L51 23.7206H45.944L42.6044 17.7209H42.558V23.7206H38.3835V6.27913H42.558V16.6977Z" fill="#313332"/>
<path d="M60.7871 14.8048C60.3147 14.6587 59.8422 14.6587 59.3463 14.6587C57.3622 14.6587 56.2518 16.1463 56.2518 18.6343V24H52V11.2926H55.8738V13.6342H55.9211C56.6532 12.0242 57.7163 11 59.5589 11C60.0546 11 60.5744 11.0732 61 11.1462L60.7871 14.8048Z" fill="#313332"/>
</svg>
