<svg width="154" height="130" viewBox="0 0 154 130" fill="none" xmlns="http://www.w3.org/2000/svg">
<mask id="mask0_23_116" style="mask-type:alpha" maskUnits="userSpaceOnUse" x="0" y="0" width="154" height="130">
<path fill-rule="evenodd" clip-rule="evenodd" d="M97.6535 64.5885C97.6535 27.3058 84.9753 0.156433 48.8268 0.156433C12.6783 0.156433 0 27.3058 0 64.5885C0 102.135 12.6783 129.328 48.8268 129.328C84.9753 129.328 97.6535 102.179 97.6535 64.5885ZM29.1879 64.5885C29.1879 45.0392 31.279 27.9794 48.8268 27.9794C66.3746 27.9794 68.4657 45.0539 68.4657 64.5885C68.4657 84.7235 66.3746 101.476 48.8268 101.476C31.279 101.476 29.1879 84.7674 29.1879 64.5885ZM104.951 30.4395H122.09V129.797H153.091V2.76305H104.951V30.4395Z" fill="black"/>
</mask>
<g mask="url(#mask0_23_116)">
<path d="M119.505 64.5943L188.768 64.5943V-7.16527L119.505 -7.16527L119.505 64.5943Z" fill="#019EFF"/>
<path d="M119.516 64.5942H-19.0098V136.354H119.516V64.5942Z" fill="#019EFF"/>
<path d="M119.516 64.5942L50.2534 136.342H119.516V64.5942Z" fill="#FFD701"/>
<path d="M15.6217 64.5943H6.96387V136.354H15.6217V64.5943Z" fill="#29307A"/>
<path d="M32.9376 64.5943H24.2798V136.354H32.9376V64.5943Z" fill="#29307A"/>
<path d="M50.2526 64.5942H41.5947V136.354H50.2526V64.5942Z" fill="#29307A"/>
<path d="M188.779 64.5943H119.516V136.354H188.779V64.5943Z" fill="#FF009D"/>
<path d="M-19.0093 64.5942L50.2534 64.5942L50.2534 -7.16533L-19.0093 -7.16533L-19.0093 64.5942Z" fill="#FFD701"/>
<path d="M50.2417 64.5943L119.504 64.5943L119.504 -7.16527L50.2417 -7.16527L50.2417 64.5943Z" fill="#29307A"/>
</g>
</svg>
