<svg width="187" height="130" viewBox="0 0 187 130" fill="none" xmlns="http://www.w3.org/2000/svg">
<mask id="mask0_25_468" style="mask-type:alpha" maskUnits="userSpaceOnUse" x="0" y="2" width="187" height="128">
<path fill-rule="evenodd" clip-rule="evenodd" d="M107.928 102.287C106.257 103.697 104.585 105.108 102.92 106.519V128.303H186.845V104.527H141.684C161.059 89.2687 184.961 67.283 184.961 39.855C184.961 18.7643 172.588 2.11987 144.862 2.11987C122.633 2.11987 103.426 15.1987 102.583 45.5138H130.169C130.169 33.6043 135.062 26.7473 143.695 26.7473C152.328 26.7473 156.349 32.5793 156.349 41.6739C156.349 61.4222 132.245 81.7645 107.928 102.287ZM93.8937 65.7382C93.8937 28.9848 81.7035 2.22085 46.9468 2.22085C12.1901 2.22085 0 28.9848 0 65.7382C0 102.78 12.1901 129.544 46.9468 129.544C81.7035 129.544 93.8937 102.78 93.8937 65.7382ZM28.0641 65.7382C28.0641 46.4665 30.0747 29.6488 46.9468 29.6488V29.6632C63.819 29.6632 65.8296 46.4809 65.8296 65.7382C65.8296 85.6307 63.819 102.102 46.9468 102.102C30.0747 102.102 28.0641 85.6307 28.0641 65.7382Z" fill="black"/>
</mask>
<g mask="url(#mask0_25_468)">
<path d="M0.122772 65.6428L66.7188 65.6428L66.7187 -5.09807L0.122772 -5.09807L0.122772 65.6428Z" fill="#009DFF"/>
<path d="M-66.4724 65.6429L0.123535 65.6429L0.123535 -5.09795L-66.4724 -5.09795L-66.4724 65.6429Z" fill="#009DFF"/>
<path d="M0.123535 15.7318V65.6428H47.1037C47.1037 38.0752 26.0751 15.7318 0.123535 15.7318Z" fill="#29307A"/>
<path d="M0.134041 65.6429H-66.4619V136.384H0.134041V65.6429Z" fill="#FF0098"/>
<path d="M66.7195 65.6429H0.123535V136.384H66.7195V65.6429Z" fill="#FFD600"/>
<path d="M132.804 136.373H199.911V65.6317L132.804 65.6317V136.373Z" fill="#FFD600"/>
<path d="M66.7185 65.6428L132.804 65.6428V-5.09807L66.7185 -5.09807L66.7185 65.6428Z" fill="#29307A"/>
<path d="M66.7185 136.373H132.804V65.6317L66.7185 65.6317L66.7185 136.373Z" fill="#FF0098"/>
<path d="M199.911 65.6429V-5.09802L132.804 -5.09802V65.6429H199.911Z" fill="#29307A"/>
<path d="M132.803 86.4728V136.373H86.334C86.334 108.816 106.863 86.4728 132.803 86.4728Z" fill="#29307A"/>
<path d="M132.804 86.4728V136.373H180.295C180.295 108.816 158.744 86.4728 132.804 86.4728Z" fill="#29307A"/>
<path d="M199.9 12.5928V3.74744L132.794 3.74744V12.5928L199.9 12.5928Z" fill="#009DFF"/>
<path d="M199.911 30.2724V21.427L132.804 21.427V30.2724L199.911 30.2724Z" fill="#009DFF"/>
<path d="M199.911 47.9521V39.1067L132.804 39.1067V47.9521H199.911Z" fill="#009DFF"/>
<path d="M199.911 65.6429V56.7975L132.804 56.7975V65.6429H199.911Z" fill="#009DFF"/>
</g>
</svg>
