<svg width="192" height="130" viewBox="0 0 192 130" fill="none" xmlns="http://www.w3.org/2000/svg">
<mask id="mask0_25_516" style="mask-type:alpha" maskUnits="userSpaceOnUse" x="0" y="0" width="192" height="128">
<path fill-rule="evenodd" clip-rule="evenodd" d="M189.114 33.6C189.114 14.9286 175.028 0 148.885 0C123.585 0 107.628 13.4 106.614 37.9H134.957C135.471 31.1 138.871 24.3143 148.199 24.3143C156.014 24.3143 160.928 28.8571 160.928 37.1714C160.928 48.3714 151.428 50.7571 141.585 50.7571H136.142V74.3571H141.585C156.685 74.3571 163.314 78.7714 163.314 89.8C163.314 98 158.385 103.714 149.385 103.714C138.699 103.714 133.428 97.2714 133.257 87.5857H105.085C105.928 115.6 124.442 127.829 150.414 127.829C176.385 127.829 191.328 112.886 191.328 92C191.328 75.7143 182.828 66.2 170.442 62.1286V61.4428C178.928 58.5571 189.114 49.9 189.114 33.6ZM95.4143 63.1571C95.4143 26.7857 83.0143 0.299944 47.7 0.299944C12.3857 0.299944 0 26.8142 0 63.1571C0 99.8142 12.3857 126.314 47.7 126.314C83.0143 126.314 95.4143 99.8285 95.4143 63.1571ZM28.5714 63.1571C28.5714 44.1285 30.5571 27.4428 47.7 27.4428C64.8571 27.4428 66.8857 44.1285 66.8857 63.1571C66.8857 82.8428 64.9 99.1571 47.7571 99.1571C30.6143 99.1571 28.5714 82.8571 28.5714 63.1571Z" fill="black"/>
</mask>
<g mask="url(#mask0_25_516)">
<path d="M-11.1785 64.2913L56.4858 64.2913L56.4858 -5.71429L-11.1785 -5.71429L-11.1785 64.2913Z" fill="#FF0098"/>
<path d="M-11.1785 134.286H56.4858L56.4858 64.2801L-11.1785 64.2801L-11.1785 134.286Z" fill="#009DFF"/>
<path d="M56.4958 134.286H124.16L124.16 64.2801L56.4958 64.2801L56.4958 134.286Z" fill="#FF0098"/>
<path d="M56.4958 64.2913L124.16 64.2913L124.16 -5.71429L56.4958 -5.71429L56.4958 64.2913Z" fill="#FFD600"/>
<path d="M124.15 -5.71436L56.4858 64.2912H124.15V-5.71436Z" fill="#FF0098"/>
<path d="M90.318 134.286C109.003 134.286 124.15 118.614 124.15 99.2828C124.15 79.9513 109.003 64.28 90.318 64.28C71.633 64.28 56.4858 79.9513 56.4858 99.2828C56.4858 118.614 71.633 134.286 90.318 134.286Z" fill="#29307A"/>
<path d="M8.7627 -5.71436H56.4855V43.6667C30.1286 43.6667 8.7627 21.5556 8.7627 -5.71436Z" fill="#29307A"/>
<path d="M191.825 134.286V64.28H124.16V134.286H191.825Z" fill="#009DFF"/>
<path d="M191.813 64.2912V-5.71436L124.149 -5.71436V64.2912H191.813Z" fill="#FF0098"/>
<path d="M157.983 64.2912C176.668 64.2912 191.815 48.6199 191.815 29.2884C191.815 9.95692 176.668 -5.71436 157.983 -5.71436C139.298 -5.71436 124.15 9.95692 124.15 29.2884C124.15 48.6199 139.298 64.2912 157.983 64.2912Z" fill="#FFD600"/>
</g>
</svg>
