<svg width="1009" height="386" viewBox="0 0 1009 386" fill="none" xmlns="http://www.w3.org/2000/svg">
<g clip-path="url(#clip0_300_541)">
<path d="M490.138 32.3201C644.646 -7.45495 814.323 13.7393 953.389 92.2455C1050.85 146.743 1133.49 227.329 1190.15 323.55C1245.29 416.423 1275.62 523.678 1278.01 631.636C1277.58 637.088 1279.99 643.846 1275.52 648.145C1274.32 585.49 1266.34 522.719 1247.76 462.685C1202.8 312.779 1099.38 181.639 964.374 102.414C961.334 107.803 958.301 113.169 955.006 118.388C910.507 93.1037 863.696 71.5538 814.377 57.5428C661.835 12.8655 492.885 34.9336 353.486 109.736C350.732 104.184 347.862 98.6787 344.907 93.2274C303.278 116.486 264.056 144.145 228.524 175.971C231.417 179.404 234.318 182.868 237.266 186.294C218.397 200.057 202.816 217.64 187.916 235.456C163.532 265.125 141.314 296.502 120.333 328.638C116.573 325.854 112.814 323.024 109.077 320.21C52.8736 413.028 21.4337 520.531 18.7028 628.977C18.5094 635.441 18.4785 641.967 17.8287 648.439C16.2737 646.993 15.4072 645.261 15.3066 643.212C15.531 539.761 41.7025 436.426 90.9124 345.371C172.614 191.606 321.188 74.987 490.138 32.3201Z" fill="#FFD701"/>
<path d="M493.736 45.3722C676.991 0.26962 867.742 39.1864 1019.18 151.398C1091.18 204.751 1148.75 275.757 1191.73 353.892C1215.05 396.311 1231.64 441.97 1244.36 488.558C1250.3 510.262 1254.37 532.423 1257.98 554.615C1261.97 579.196 1271.09 620.138 1262.47 644.549C1271.33 645.748 1280.2 646.946 1289.06 648.145C1282.72 418.325 1170.07 210.024 971.214 90.7222C964.94 86.9643 956.314 89.23 952.693 95.5782C949.699 100.983 946.582 106.303 943.325 111.553C949.498 109.937 955.672 108.321 961.845 106.697C768.077 -1.35417 543.766 -5.05017 346.664 98.0371C352.837 99.6531 359.01 101.269 365.184 102.893C362.43 97.3411 359.56 91.8358 356.605 86.3845C353.123 79.8275 344.289 77.9871 338.084 81.5285C295.45 105.885 255.864 134.031 218.962 166.391C213.083 171.548 214.452 180.193 218.962 185.528C221.871 188.969 224.788 192.418 227.704 195.851C227.704 189.472 227.704 183.092 227.704 176.713C178.672 215.104 142.591 270.367 108.652 321.803C114.825 320.186 120.999 318.57 127.18 316.947C123.428 314.14 119.676 311.325 115.924 308.518C109.99 304.08 100.831 307.567 97.3958 313.374C35.3439 418.449 11.818 528.054 4.29844 648.431C12.7077 646.158 21.1169 643.877 29.5262 641.603C25.2326 632.727 29.7196 612.251 30.2534 602.764C31.4526 581.508 34.4387 560.399 37.8967 539.413C43.7608 503.875 53.756 469.149 65.5304 435.174C88.9556 367.562 126.422 304.536 171.717 249.366C253.969 149.178 368.781 78.2191 493.736 45.3722C510.617 40.9339 503.445 14.8296 486.542 19.2757C348.273 55.6253 226.575 136.258 138.011 248.299C92.522 305.843 58.9392 371.614 34.988 440.741C21.7204 479.031 13.3962 518.86 7.67146 558.898C3.68732 586.727 -6.51675 629.077 6.13192 655.274C12.4214 668.295 30.5938 660.795 31.3596 648.446C38.6007 532.554 61.0202 428.215 120.759 327.053C114.586 328.669 108.412 330.285 102.231 331.909C105.983 334.716 109.735 337.53 113.487 340.337C119.622 344.93 128.31 341.087 132.015 335.481C164.902 285.623 199.312 233.074 246.828 195.866C252.978 191.049 251.137 181.817 246.828 176.729C243.919 173.288 241.003 169.839 238.086 166.406C238.086 172.785 238.086 179.164 238.086 185.544C273.324 154.653 311.077 128.147 351.723 104.919C345.55 103.303 339.376 101.679 333.203 100.063C336.165 105.514 339.02 111.02 341.782 116.571C345.232 123.36 354.075 124.683 360.302 121.427C548.71 22.8866 763.01 26.8378 948.16 130.087C954.666 133.714 962.82 131.634 966.68 125.232C969.937 119.981 973.063 114.661 976.049 109.257C969.875 110.873 963.702 112.489 957.528 114.113C1148.17 228.489 1255.87 427.843 1261.96 648.16C1262.4 663.896 1283.52 665.983 1288.56 651.756C1301.69 614.617 1286.46 558.844 1279.46 520.832C1270.27 470.92 1253.48 422.841 1233.03 376.524C1191.72 282.986 1124.77 201.48 1045.39 137.727C889.365 12.4248 679.606 -28.2472 486.534 19.2757C469.592 23.4434 476.786 49.5399 493.736 45.3722Z" fill="#FFD701"/>
<path d="M364.819 356.544C441.16 282.244 548.252 241.541 654.516 243.057C654.516 245.361 654.493 249.916 654.493 252.189C550.797 250.812 446.196 290.394 371.697 362.916C369.399 360.789 367.094 358.686 364.819 356.544Z" fill="#FFD701"/>
<path d="M369.609 361.322C411.106 322.228 458.367 293.456 511.754 273.607C534.8 265.04 558.867 259.557 583.004 255.165C598.562 252.335 614.251 251.183 629.994 250.217C661.171 248.299 626.335 246.08 617.183 246.675C574.92 249.42 531.884 259.789 492.94 276.29C469.839 286.079 447.985 297.392 426.695 310.653C422.324 313.382 371.76 353.745 369.609 351.75C363.212 345.827 353.619 355.376 360.032 361.315C362.33 363.441 364.627 365.56 366.917 367.686C369.687 370.253 373.733 370.284 376.495 367.686C452.348 296.325 550.605 259.202 654.502 258.939C658.2 258.931 661.264 255.869 661.271 252.173C661.279 249.126 661.287 246.088 661.295 243.041C661.302 239.353 658.216 236.275 654.525 236.275C544.548 236.384 440.241 276.197 360.04 351.742C353.673 357.75 363.258 367.307 369.609 361.322Z" fill="#FFD701"/>
<path d="M425.682 427.565C478.064 374.529 550.606 342.208 625.028 338.326C636.841 336.819 648.376 340.468 660.166 340.391C754.911 344.976 845.332 397.788 896.816 477.253C929.184 526.369 946.428 585.011 946.405 643.738L940.301 643.799C940.812 553.594 897.443 464.657 826.107 409.425C774.306 368.513 708.556 345.757 642.535 345.92C642.427 346.94 642.264 348.974 642.156 350.002C570.202 349.863 498.657 377.259 445.44 425.686C384.17 480.338 347.701 561.636 348.405 643.761C344.344 643.761 340.275 643.761 336.236 643.761C335.509 563.592 368.643 483.864 425.682 427.565Z" fill="#FFD701"/>
<path d="M427.739 429.614C602.407 260.168 894.804 357.163 939.449 594.413C938.56 589.689 945.522 640.846 943.356 640.869C943.874 640.869 941.391 610.55 941.205 608.641C939.256 588.9 934.196 569.631 928.387 550.733C916.713 512.767 895.608 478.351 870.559 447.847C815.121 380.321 728.568 344.675 642.542 343.028C640.848 342.997 639.788 344.381 639.641 345.927C639.742 344.86 570.619 355.987 566.147 357.078C541.229 363.14 517.688 373.965 495.245 386.089C447.087 412.101 409.165 454.041 382.119 500.953C369.71 522.479 361.37 546.202 354.686 570.01C351.336 581.925 348.931 594.653 347.67 606.955C346.656 616.79 338.286 650.449 339.933 619.752C343.778 548.112 378.359 480.423 427.739 429.614C430.346 426.931 426.246 422.825 423.631 425.516C365.958 484.862 334.325 561.009 333.342 643.768C333.319 645.354 334.68 646.668 336.243 646.668C340.297 646.668 344.358 646.668 348.412 646.668C350.014 646.668 351.29 645.354 351.313 643.768C353.557 483.122 481.923 356.196 642.163 352.91C643.857 352.879 644.909 351.611 645.064 350.01C646.093 338.868 739.484 365.297 750.485 369.349C788.191 383.274 821.674 407.183 850.514 434.741C906.965 488.681 936.216 566.762 937.399 643.799C937.422 645.369 938.699 646.714 940.3 646.699C942.335 646.683 944.37 646.66 946.404 646.637C947.959 646.622 949.336 645.33 949.305 643.737C946.83 523.338 877.39 408.799 763.869 361.957C645.791 313.235 515.645 336.247 423.631 425.516C420.947 428.122 425.047 432.22 427.739 429.614Z" fill="#FFD701"/>
<path d="M641.993 100.063C751.367 100.032 860.54 133.474 950.489 195.796C1034.64 253.603 1102.09 335.457 1142.26 429.312C1181.77 520.824 1194.89 623.331 1180.55 721.918C1166.52 820.529 1124.24 914.817 1060.37 991.189C997.254 1067.03 913.216 1125.29 819.871 1157.3C714.93 1193.62 598.778 1196.58 492.042 1166.02C394.226 1138.18 304.764 1081.97 236.988 1006.23C190.981 955.094 154.945 895.122 131.195 830.635C137.787 828.083 144.37 825.531 150.938 822.964C189.209 928.41 262.935 1020.42 357.038 1081.45C434.872 1132.36 526.615 1161.67 619.573 1165.44C720.159 1170.01 821.929 1144.68 908.473 1093.15C907.661 1091.76 906.006 1088.95 905.193 1087.53C981.782 1042.39 1046.6 977.44 1091.12 900.496C1136.9 821.712 1161.68 730.826 1161.9 639.701C1156.45 639.159 1150.98 638.641 1145.54 638.131C1149.39 543.503 1122.8 447.584 1070.31 368.676C1044.1 329.21 1011.02 294.538 973.643 265.48C977.705 260.276 981.782 255.072 985.866 249.899C891.771 167.256 767.218 120.785 641.97 121.056C641.97 114.043 641.969 107.053 641.993 100.063Z" fill="#FF009D"/>
<path d="M479.852 164.635C544.402 144.941 612.605 137.046 679.979 140.951C679.84 146.418 679.708 151.9 679.569 157.367C614.098 156.802 547.567 160.475 484.648 179.914C483.055 174.834 481.453 169.723 479.852 164.635Z" fill="#313332"/>
<path d="M480.624 167.435C517.681 156.648 554.822 149.372 593.256 145.336C607.653 143.828 622.142 143.403 636.609 142.97C646.256 142.807 655.895 142.885 665.542 143.202C680.667 147.323 680.667 151.065 665.535 154.421C632.64 154.297 599.862 156.161 567.177 159.81C549.229 161.813 488.863 183.634 482.651 163.87C481.537 160.313 475.936 161.828 477.058 165.409C478.651 170.504 480.253 175.6 481.854 180.695C482.326 182.188 483.866 183.17 485.421 182.721C548.865 164.311 613.811 160.027 679.576 160.275C681.185 160.282 682.438 158.952 682.477 157.375C682.616 151.9 682.748 146.426 682.887 140.959C682.926 139.328 681.533 138.129 679.986 138.059C611.505 134.943 544.896 142.699 479.085 161.844C475.495 162.888 477.019 168.478 480.624 167.435Z" fill="#313332"/>
<path d="M604.803 284.842C670.762 278.092 738.593 289.42 798.486 318.006C877.597 355.376 942.194 422.245 976.628 502.646C1015.9 592.797 1016.07 699.016 977.169 789.306C939.803 877.485 866.093 949.404 776.972 984.516C679.512 1023.72 565.155 1017.8 472.414 968.433C383.734 922.07 315.88 837.679 290.451 740.863C268.983 661.089 275.628 573.992 309.49 498.617C343.049 423.011 403.291 359.629 477.164 322.344C516.889 302.077 560.421 289.304 604.803 284.842ZM600.927 291.422C496.875 302.75 399.848 363.023 342.809 450.623C297.692 518.745 277.415 602.694 286.173 683.899C294.11 762.428 329.364 837.741 384.26 894.404C446.699 959.765 534.698 999.834 625.033 1003.72C723.747 1009.04 823.706 970.729 893.626 900.899C958.254 837.788 997.183 749.368 999.921 659.086C1004.26 554.97 959.639 450.383 881.821 381.094C806.803 312.702 701.722 279.205 600.927 291.422Z" fill="#313332"/>
<path d="M604.804 293.541C803.918 276.824 977.998 419.508 996.503 619.164C1014.2 810.16 865.908 977.657 679.489 999.648C495.685 1021.32 330.278 889.981 292.997 713.135C250.2 510.146 404.475 317.473 604.804 293.541C615.805 292.227 615.929 274.813 604.804 276.143C408.049 299.65 264.18 465.461 269.788 663.694C275.15 852.966 432.627 1002.08 616.648 1018C809.666 1034.71 980.342 888.496 1010.83 701.629C1042.94 504.857 903.847 320.612 712.763 280.96C677.308 273.599 640.739 273.128 604.804 276.143C593.703 277.079 593.61 294.484 604.804 293.541Z" fill="#313332"/>
<path d="M600.93 282.724C411.733 306.663 272.892 467.727 275.662 658.189C278.524 854.575 446.678 1006.08 637.375 1012.86C831.46 1019.74 992.079 859.392 1008.02 671.389C1024.39 478.475 875.433 309.88 688.163 283.296C659.176 279.167 629.971 279.732 600.93 282.724C589.875 283.861 589.766 301.266 600.93 300.122C786.954 280.969 952.555 406.58 986.904 589.681C1022.68 780.383 881.398 958.149 696.503 991.321C501.172 1026.36 317.824 875.754 294.878 683.9C272.335 495.424 415.586 323.574 600.938 300.122C611.907 298.73 612.039 281.317 600.93 282.724Z" fill="#313332"/>
<path d="M194.864 611.014C197.409 508.344 244.855 409.834 315.642 336.656C321.954 343.19 328.19 349.77 334.456 356.358C268.985 424.719 224.339 516.115 221.949 611.671C212.897 611.439 203.861 611.254 194.864 611.014Z" fill="#313332"/>
<path d="M197.764 611.014C200.201 553.246 214.861 499.522 240.105 447.622C250.858 425.516 264.396 404.863 278.646 384.898C288.03 371.761 298.59 359.629 309.312 347.605C313.884 347.914 318.449 348.224 323.013 348.533C327.191 358.809 324.793 366.843 315.803 372.642C288.432 403.78 265.123 440.447 249.225 478.706C239.64 501.772 232.098 525.015 226.481 549.357C220.718 574.27 228.438 608.942 194.863 608.115C191.119 608.022 191.127 613.821 194.863 613.914C203.892 614.146 212.92 614.362 221.948 614.563C223.58 614.602 224.779 613.218 224.849 611.664C229.111 515.187 271.235 428.524 336.513 358.407C337.611 357.232 337.635 355.484 336.513 354.309C330.262 347.713 323.996 341.149 317.698 334.607C316.623 333.486 314.658 333.478 313.591 334.607C241.984 410.67 196.411 505.916 191.962 611.022C191.8 614.756 197.602 614.741 197.764 611.014Z" fill="#313332"/>
<path d="M573.174 191.489C641.214 182.381 711.133 187.747 777.231 206.072C775.715 210.805 774.168 215.552 772.675 220.323C856.365 246.041 932.009 297.152 986.928 365.327C1031.63 420.327 1062.7 486.261 1076.71 555.744C1080.19 555.171 1083.71 554.622 1087.26 554.058C1104.14 652.606 1087.37 756.15 1041 844.646C1017.5 889.71 987.903 932.014 951.056 967.219C945.138 960.36 939.126 953.641 933.108 946.952C992.808 887.707 1035.35 811.328 1055.02 729.62C1068.17 674.319 1070.07 616.357 1060.62 560.298C1061.56 559.378 1063.46 557.537 1064.38 556.61C1047.33 473.742 1005.15 396.272 944.65 337.12C895.579 288.592 834.634 252.087 768.574 231.999C767.538 235.556 766.532 239.128 765.557 242.708C753.845 237.922 741.614 234.257 729.035 232.679C729.035 229.053 729.035 225.442 729.066 221.846C678.943 210.658 627.18 214.014 576.477 218.514C575.394 209.506 574.226 200.49 573.174 191.489Z" fill="#019EFF"/>
<path d="M246.968 263.323C254.264 270.537 261.311 278.007 268.815 285.035C204.504 353.884 157.53 439.574 138.283 532.052C118.455 627.407 124.613 728.585 157.801 820.282C156.084 820.932 152.672 822.292 150.939 822.973C144.371 825.54 137.788 828.092 131.196 830.643C129.842 831.154 127.127 832.182 125.781 832.7C93.8074 733.958 84.0365 626.92 106.154 525.016C127.413 427.07 175.587 334.128 246.968 263.323Z" fill="#019EFF"/>
<path d="M607.351 384.829C663.198 377.383 721.436 388.216 770.453 416.044C815.237 441.19 852.271 479.836 875.417 525.658C896.815 567.575 906.277 615.43 902.834 662.357C899.446 712.362 881.041 761.176 850.669 801.052C819.879 841.871 776.796 873.295 728.484 890.074C673.526 909.358 612.093 909.436 557.034 890.468C509.588 874.246 467.109 843.951 436.288 804.415C400.415 758.911 380.379 701.096 380.982 643.135C380.495 580.054 404.631 517.345 446.647 470.333C487.687 423.854 545.809 392.793 607.351 384.829ZM599.135 398.484C506.989 413.632 427.391 485.31 402.612 575.26C387.078 629.51 390.598 689.072 412.948 740.964C437.178 798.245 483.811 845.59 540.688 870.82C592.984 894.334 653.497 898.773 708.726 883.385C757.874 869.9 802.442 840.703 834.763 801.307C864.772 764.973 884.051 719.909 889.551 673.074C895.407 624.716 886.627 574.642 864.447 531.263C840.999 484.869 802.612 446.162 756.334 422.431C708.416 397.51 652.275 389.12 599.135 398.484Z" fill="#019EFF"/>
</g>
<defs>
<clipPath id="clip0_300_541">
<rect width="1294" height="1028" fill="white"/>
</clipPath>
</defs>
</svg>
