<svg width="870" height="1311" viewBox="0 0 870 1311" fill="none" xmlns="http://www.w3.org/2000/svg">
<path d="M827.827 498.869C867.602 653.376 846.408 823.054 767.901 962.12C713.404 1059.58 632.818 1142.22 536.597 1198.88C443.724 1254.02 336.469 1284.36 228.511 1286.74C223.059 1286.31 216.301 1288.72 212.002 1284.25C274.657 1283.05 337.428 1275.07 397.462 1256.49C547.368 1211.53 678.508 1108.11 757.733 973.105C752.344 970.065 746.978 967.032 741.759 963.737C767.043 919.238 788.593 872.426 802.604 823.108C847.281 670.566 825.213 501.616 750.411 362.217C755.963 359.463 761.468 356.593 766.92 353.638C743.661 312.009 716.002 272.787 684.176 237.255C680.743 240.148 677.279 243.049 673.853 245.996C660.09 227.128 642.507 211.547 624.691 196.647C595.022 172.263 563.645 150.045 531.509 129.064C534.293 125.304 537.123 121.544 539.937 117.808C447.119 61.6044 339.616 30.1645 231.17 27.4336C224.706 27.2402 218.18 27.2093 211.708 26.5595C213.154 25.0045 214.886 24.138 216.935 24.0374C320.386 24.2618 423.721 50.4333 514.776 99.6432C668.541 181.345 785.16 329.919 827.827 498.869Z" fill="#FFD701"/>
<path d="M814.775 502.467C859.877 685.722 820.961 876.473 708.749 1027.91C655.396 1099.91 584.39 1157.48 506.255 1200.46C463.836 1223.78 418.176 1240.37 371.589 1253.09C349.885 1259.03 327.724 1263.1 305.532 1266.71C280.951 1270.7 240.009 1279.82 215.598 1271.2C214.399 1280.06 213.201 1288.93 212.002 1297.79C441.822 1291.45 650.123 1178.8 769.425 979.945C773.183 973.671 770.917 965.045 764.569 961.424C759.164 958.43 753.844 955.313 748.594 952.056C750.21 958.229 751.826 964.403 753.45 970.576C861.501 776.808 865.197 552.497 762.11 355.394C760.494 361.568 758.878 367.741 757.254 373.915C762.806 371.161 768.311 368.291 773.762 365.336C780.319 361.854 782.16 353.02 778.618 346.815C754.262 304.181 726.116 264.595 693.756 227.693C688.599 221.814 679.954 223.183 674.619 227.693C671.178 230.602 667.729 233.519 664.296 236.435C670.675 236.435 677.055 236.435 683.434 236.435C645.043 187.403 589.78 151.322 538.344 117.383C539.961 123.556 541.577 129.73 543.2 135.911C546.007 132.159 548.822 128.407 551.628 124.655C556.067 118.721 552.58 109.562 546.773 106.127C441.698 44.0748 332.093 20.549 211.716 13.0294C213.989 21.4386 216.27 29.8479 218.544 38.2571C227.42 33.9635 247.896 38.4506 257.383 38.9844C278.639 40.1835 299.748 43.1696 320.734 46.6277C356.272 52.4917 390.998 62.4869 424.973 74.2614C492.585 97.6866 555.611 135.153 610.781 180.448C710.968 262.699 781.928 377.512 814.775 502.467C819.213 519.348 845.317 512.176 840.871 495.273C804.522 357.004 723.889 235.306 611.848 146.742C554.304 101.253 488.533 67.6702 419.406 43.7189C381.116 30.4514 341.286 22.1272 301.249 16.4024C273.42 12.4183 231.07 2.21418 204.873 14.8628C191.852 21.1524 199.352 39.3247 211.701 40.0906C327.593 47.3316 431.932 69.7511 533.094 129.49C531.478 123.317 529.862 117.143 528.238 110.962C525.431 114.714 522.617 118.466 519.81 122.218C515.217 128.353 519.06 137.041 524.666 140.746C574.524 173.633 627.073 208.043 664.281 255.559C669.098 261.709 678.33 259.868 683.418 255.559C686.859 252.65 690.308 249.734 693.741 246.817C687.362 246.817 680.983 246.817 674.603 246.817C705.494 282.055 732 319.808 755.228 360.454C756.844 354.281 758.468 348.107 760.084 341.933C754.633 344.896 749.127 347.751 743.576 350.513C736.787 353.963 735.464 362.806 738.72 369.033C837.26 557.441 833.309 771.741 730.06 956.891C726.433 963.397 728.513 971.551 734.915 975.411C740.166 978.668 745.485 981.794 750.89 984.78C749.274 978.606 747.658 972.433 746.034 966.259C631.658 1156.9 432.303 1264.61 211.987 1270.69C196.251 1271.14 194.164 1292.25 208.391 1297.29C245.529 1310.42 301.303 1295.19 339.315 1288.19C389.227 1279 437.306 1262.22 483.623 1241.76C577.161 1200.45 658.667 1133.5 722.42 1054.12C847.722 898.096 888.394 688.337 840.871 495.265C836.704 478.323 810.607 485.517 814.775 502.467Z" fill="#FFD701"/>
<path d="M503.603 373.55C577.903 449.891 618.606 556.983 617.09 663.247C614.786 663.247 610.231 663.224 607.958 663.224C609.334 559.528 569.753 454.927 497.231 380.428C499.358 378.13 501.461 375.825 503.603 373.55Z" fill="#FFD701"/>
<path d="M498.825 378.34C537.919 419.837 566.691 467.097 586.54 520.485C595.107 543.531 600.59 567.598 604.982 591.735C607.812 607.292 608.964 622.981 609.93 638.725C611.848 669.901 614.067 635.065 613.472 625.913C610.727 583.651 600.357 540.614 583.857 501.67C574.068 478.57 562.755 456.715 549.494 435.425C546.765 431.054 506.402 380.491 508.397 378.34C514.32 371.942 504.771 362.349 498.832 368.763C496.706 371.06 494.587 373.358 492.461 375.648C489.894 378.417 489.863 382.463 492.461 385.225C563.822 461.079 600.945 559.336 601.208 663.233C601.216 666.931 604.278 669.994 607.974 670.002C611.02 670.01 614.059 670.017 617.106 670.025C620.794 670.033 623.872 666.946 623.872 663.256C623.763 553.278 583.95 448.971 508.405 368.77C502.397 362.403 492.84 371.989 498.825 378.34Z" fill="#FFD701"/>
<path d="M432.582 434.413C485.618 486.794 517.939 559.337 521.821 633.759C523.328 645.572 519.679 657.107 519.756 668.897C515.171 763.642 462.359 854.062 382.894 905.547C333.778 937.915 275.136 955.159 216.409 955.136L216.348 949.032C306.553 949.542 395.49 906.173 450.722 834.838C491.633 783.036 514.39 717.287 514.227 651.266C513.207 651.158 511.173 650.995 510.145 650.887C510.284 578.932 482.888 507.388 434.461 454.171C379.809 392.9 298.511 356.432 216.386 357.136C216.386 353.074 216.386 349.005 216.386 344.967C296.555 344.24 376.283 377.374 432.582 434.413Z" fill="#FFD701"/>
<path d="M430.533 436.47C599.979 611.137 502.984 903.535 265.734 948.18C270.458 947.29 219.301 954.253 219.278 952.087C219.278 952.605 249.597 950.122 251.506 949.936C271.247 947.987 290.516 942.927 309.414 937.117C347.379 925.443 381.796 904.339 412.3 879.289C479.826 823.852 515.472 737.299 517.119 651.273C517.15 649.578 515.766 648.519 514.22 648.372C515.287 648.472 504.16 579.349 503.069 574.878C497.007 549.96 486.182 526.419 474.058 503.976C448.046 455.818 406.106 417.895 359.194 390.85C337.668 378.441 313.945 370.101 290.137 363.417C278.222 360.067 265.494 357.661 253.192 356.4C243.357 355.387 209.698 347.016 240.395 348.664C312.035 352.509 379.724 387.09 430.533 436.47C433.216 439.077 437.322 434.977 434.631 432.362C375.285 374.688 299.137 343.055 216.379 342.073C214.793 342.05 213.479 343.411 213.479 344.974C213.479 349.028 213.479 353.089 213.479 357.143C213.479 358.744 214.793 360.021 216.379 360.044C377.025 362.287 503.951 490.654 507.237 650.894C507.268 652.588 508.536 653.64 510.137 653.795C521.279 654.824 494.85 748.215 490.798 759.216C476.873 796.922 452.964 830.404 425.406 859.245C371.466 915.696 293.385 944.946 216.348 946.13C214.778 946.153 213.433 947.43 213.448 949.031C213.464 951.066 213.487 953.1 213.51 955.135C213.525 956.69 214.817 958.067 216.409 958.036C336.809 955.56 451.348 886.12 498.19 772.599C546.912 654.522 523.9 524.376 434.631 432.362C432.025 429.677 427.927 433.778 430.533 436.47Z" fill="#FFD701"/>
<path d="M379.128 650.754C378.943 696.305 359.318 741.469 325.149 771.748C295.697 798.569 256.131 813.5 216.386 813.523C216.386 807.543 216.386 801.54 216.386 795.583C256.618 795.498 296.485 778.092 323.34 748.029C347.612 721.757 360.756 686.278 361.22 650.622C367.174 650.684 373.167 650.7 379.128 650.754Z" fill="#FFD701"/>
<path d="M372.362 650.755C369.37 737.632 303.359 804.001 216.378 806.755C218.636 809.014 220.886 811.265 223.144 813.524C223.144 807.544 223.144 801.564 223.144 795.584C220.886 797.843 218.636 800.094 216.378 802.353C301.488 799.143 363.865 735.28 367.978 650.623C365.72 652.882 363.47 655.133 361.213 657.392C367.182 657.439 373.151 657.485 379.12 657.532C387.85 657.594 387.842 644.055 379.12 643.993C373.151 643.947 367.182 643.901 361.213 643.854C357.385 643.823 354.625 646.956 354.447 650.623C350.697 727.823 293.964 785.883 216.378 788.815C212.69 788.954 209.612 791.793 209.612 795.584C209.612 801.564 209.612 807.544 209.612 813.524C209.612 817.129 212.69 820.409 216.378 820.293C310.937 817.292 382.639 745.206 385.894 650.755C386.196 642.021 372.656 642.052 372.362 650.755Z" fill="#FFD701"/>
<path d="M760.084 650.724C760.115 760.098 726.673 869.271 664.351 959.22C606.544 1043.37 524.69 1110.82 430.835 1150.99C339.323 1190.5 236.816 1203.62 138.228 1189.28C39.6183 1175.25 -54.6696 1132.97 -131.042 1069.1C-206.888 1005.99 -265.143 921.947 -297.155 828.602C-333.474 723.661 -336.435 607.51 -305.869 500.773C-278.033 402.957 -221.827 313.496 -146.081 245.719C-94.9472 199.712 -34.9753 163.677 29.5122 139.926C32.0639 146.518 34.6156 153.101 37.1827 159.669C-68.2629 197.94 -160.278 271.666 -221.301 365.769C-272.21 443.603 -301.524 535.346 -305.297 628.304C-309.859 728.89 -284.528 830.66 -233 917.204C-231.608 916.392 -228.801 914.737 -227.378 913.924C-182.245 990.513 -117.294 1055.33 -40.3493 1099.85C38.4353 1145.63 129.321 1170.41 220.446 1170.63C220.987 1165.18 221.506 1159.71 222.016 1154.27C316.644 1158.12 412.563 1131.54 491.471 1079.05C530.937 1052.84 565.609 1019.76 594.667 982.374C599.871 986.436 605.075 990.513 610.248 994.598C692.891 900.502 739.362 775.95 739.091 650.701C746.104 650.701 753.094 650.701 760.084 650.724Z" fill="#FF009D"/>
<path d="M216.672 446.944C216.726 453.937 216.727 460.931 216.727 467.932C169.799 468.218 123.081 486.685 89.5997 519.788C54.2631 553.595 33.8498 602.147 33.9813 651.063C26.9913 651.032 19.9936 651.032 13.019 651.032C12.8257 601.745 31.2439 552.674 64.0598 515.881C101.964 472.373 159.036 446.967 216.672 446.944Z" fill="#FF009D"/>
<path d="M695.512 488.583C715.206 553.134 723.101 621.336 719.196 688.71C713.729 688.571 708.247 688.44 702.78 688.3C703.344 622.829 699.672 556.298 680.233 493.379C685.313 491.786 690.424 490.184 695.512 488.583Z" fill="#313332"/>
<path d="M692.712 489.355C703.499 526.411 710.775 563.553 714.811 601.986C716.319 616.383 716.744 630.873 717.177 645.34C717.34 654.987 717.262 664.626 716.945 674.273C712.824 689.398 709.082 689.397 705.726 674.266C705.85 641.371 703.986 608.593 700.337 575.908C698.334 557.96 676.513 497.594 696.277 491.382C699.834 490.268 698.318 484.667 694.738 485.789C689.643 487.382 684.547 488.984 679.451 490.585C677.959 491.057 676.977 492.596 677.426 494.151C695.836 557.596 700.12 622.541 699.872 688.307C699.865 689.916 701.195 691.169 702.772 691.208C708.247 691.347 713.721 691.479 719.188 691.618C720.819 691.657 722.018 690.264 722.087 688.717C725.204 620.236 717.448 553.627 698.303 487.816C697.259 484.226 691.669 485.75 692.712 489.355Z" fill="#313332"/>
<path d="M575.305 613.535C582.055 679.494 570.727 747.325 542.141 807.218C504.771 886.328 437.902 950.926 357.501 985.359C267.35 1024.64 161.131 1024.81 70.841 985.901C-17.3383 948.535 -89.2566 874.825 -124.369 785.704C-163.572 688.243 -157.657 573.887 -108.286 481.145C-61.923 392.465 22.4675 324.611 119.284 299.183C199.058 277.715 286.155 284.36 361.53 318.221C437.136 351.781 500.518 412.023 537.803 485.895C558.07 525.621 570.843 569.152 575.305 613.535ZM568.725 609.659C557.397 505.607 497.123 408.58 409.524 351.541C341.402 306.424 257.453 286.147 176.248 294.904C97.7185 302.842 22.4057 338.096 -34.2567 392.992C-99.6179 455.43 -139.687 543.429 -143.568 633.765C-148.888 732.479 -110.582 832.438 -40.7519 902.358C22.3593 966.986 110.778 1005.91 201.061 1008.65C305.177 1012.99 409.764 968.371 479.053 890.552C547.445 815.535 580.942 710.454 568.725 609.659Z" fill="#313332"/>
<path d="M566.606 613.535C583.323 812.649 440.639 986.729 240.983 1005.23C49.987 1022.93 -117.51 874.639 -139.501 688.22C-161.175 504.416 -29.8337 339.009 147.012 301.728C350.001 258.932 542.674 413.207 566.606 613.535C567.92 624.536 585.334 624.66 584.004 613.535C560.497 416.781 394.686 272.911 196.452 278.52C7.18097 283.881 -141.937 441.359 -157.857 625.379C-174.567 818.397 -28.3491 989.073 158.518 1019.56C355.29 1051.67 539.535 912.578 579.186 721.494C586.548 686.039 587.019 649.47 584.004 613.535C583.068 602.434 565.663 602.341 566.606 613.535Z" fill="#313332"/>
<path d="M577.423 609.66C553.484 420.464 392.42 281.623 201.957 284.393C5.57214 287.255 -145.935 455.409 -152.708 646.106C-159.598 840.191 0.754913 1000.81 188.758 1016.75C381.672 1033.12 550.267 884.164 576.851 696.894C580.98 667.906 580.415 638.702 577.423 609.66C576.286 598.605 558.881 598.497 560.025 609.66C579.178 795.685 453.567 961.286 270.466 995.634C79.7636 1031.41 -98.0023 890.128 -131.174 705.233C-166.217 509.902 -15.6068 326.555 176.247 303.609C364.723 281.066 536.573 424.317 560.025 609.668C561.417 620.638 578.83 620.77 577.423 609.66Z" fill="#313332"/>
<path d="M249.133 203.595C351.803 206.141 450.313 253.587 523.491 324.373C516.957 330.686 510.377 336.921 503.789 343.187C435.428 277.716 344.032 233.07 248.476 230.68C248.708 221.628 248.893 212.593 249.133 203.595Z" fill="#313332"/>
<path d="M249.133 206.496C306.901 208.933 360.625 223.593 412.524 248.836C434.631 259.589 455.284 273.128 475.249 287.378C488.386 296.762 500.518 307.321 512.542 318.044C512.233 322.616 511.923 327.18 511.614 331.745C501.338 335.922 493.304 333.524 487.505 324.534C456.367 297.164 419.7 273.855 381.441 257.957C358.375 248.372 335.132 240.829 310.79 235.212C285.877 229.449 251.205 237.17 252.032 203.595C252.125 199.85 246.326 199.858 246.233 203.595C246.001 212.623 245.785 221.651 245.584 230.679C245.545 232.311 246.929 233.51 248.483 233.58C344.96 237.843 431.623 279.966 501.74 345.244C502.915 346.343 504.663 346.366 505.838 345.244C512.434 338.993 518.998 332.727 525.54 326.43C526.661 325.354 526.669 323.389 525.54 322.322C449.477 250.716 354.231 205.142 249.125 200.694C245.391 200.531 245.406 206.333 249.133 206.496Z" fill="#313332"/>
<path d="M381.131 176.232C379.747 180.193 378.34 184.123 376.901 188.076C297.529 160.969 211.445 158.207 128.802 169.022C128.153 164.899 127.503 160.798 126.822 156.706C211.607 145.953 299.563 148.962 381.131 176.232Z" fill="#313332"/>
<path d="M378.332 175.465C373.754 188.299 296.501 165.903 281.848 163.969C240.325 158.492 198.084 159.629 156.461 163.041C146.13 168.719 140.973 167.025 140.98 157.958C150.453 156.929 159.933 156.094 169.436 155.436C193.22 153.564 217.09 153.649 240.913 154.353C288.405 155.761 335.17 164.727 380.365 179.039C383.938 180.169 385.461 174.568 381.904 173.438C298.728 147.104 213.108 143.677 126.83 153.811C124.828 154.043 123.714 155.475 124.031 157.486C124.689 161.594 125.354 165.702 126.011 169.802C126.196 170.947 127.642 172.069 128.81 171.93C212.42 161.78 295.511 164.828 376.136 190.883C377.721 191.394 379.19 190.288 379.701 188.856C381.108 184.911 382.515 180.958 383.93 177.012C385.183 173.469 379.577 171.968 378.332 175.465Z" fill="#313332"/>
<path d="M300.073 569.5C321.244 590.976 333.214 620.93 333.059 651.055C330.074 651.055 327.051 651.055 324.028 651.078C323.873 622.152 311.919 593.474 290.895 573.546C271.224 554.19 243.882 543.677 216.409 543.205C216.409 540.93 216.379 536.343 216.348 534.068C247.509 534.262 278.484 546.895 300.073 569.5Z" fill="#313332"/>
<path d="M291.877 577.709C310.945 598.435 320.672 622.951 321.461 651.056C325.327 647.188 329.193 643.32 333.059 639.452C330.052 639.46 327.036 639.467 324.028 639.475C327.894 643.343 331.76 647.211 335.627 651.079C333.013 584.107 282.954 534.944 216.41 531.602C220.276 535.47 224.142 539.338 228.008 543.206C228.008 540.158 227.985 537.117 227.946 534.069C224.08 537.938 220.214 541.806 216.348 545.674C245.506 546.741 270.961 557.224 291.877 577.709C302.563 588.184 318.979 571.783 308.278 561.301C283.008 536.545 251.6 523.757 216.348 522.465C210.069 522.241 204.695 527.919 204.749 534.069C204.78 537.117 204.804 540.158 204.811 543.206C204.834 549.774 210.077 554.493 216.41 554.81C270.087 557.51 310.326 597.173 312.43 651.079C312.677 657.384 317.518 662.699 324.028 662.684C327.036 662.676 330.052 662.668 333.059 662.66C339.245 662.645 344.836 657.392 344.658 651.056C343.691 616.738 331.521 586.552 308.278 561.293C298.125 550.269 281.756 566.724 291.877 577.709Z" fill="#313332"/>
<path d="M668.658 581.904C677.766 649.944 672.4 719.863 654.075 785.961C649.342 784.445 644.595 782.898 639.824 781.405C614.106 865.095 562.995 940.739 494.82 995.658C439.82 1040.36 373.886 1071.43 304.403 1085.44C304.976 1088.92 305.525 1092.44 306.089 1095.99C207.541 1112.87 103.997 1096.1 15.5008 1049.73C-29.5632 1026.23 -71.8666 996.633 -107.072 959.786C-100.213 953.867 -93.4939 947.856 -86.8054 941.838C-27.5604 1001.54 48.8194 1044.08 130.527 1063.75C185.828 1076.9 243.79 1078.8 299.849 1069.35C300.769 1070.29 302.61 1072.19 303.537 1073.11C386.405 1056.06 463.875 1013.88 523.027 953.38C571.555 904.309 608.059 843.364 628.148 777.304C624.591 776.268 621.019 775.262 617.439 774.287C622.225 762.575 625.89 750.344 627.468 737.765C631.094 737.765 634.705 737.765 638.301 737.796C649.489 687.673 646.133 635.91 641.633 585.207C650.641 584.124 659.657 582.956 668.658 581.904Z" fill="#019EFF"/>
<path d="M596.824 255.699C589.61 262.994 582.141 270.042 575.112 277.546C506.263 213.235 420.574 166.261 328.095 147.013C232.74 127.185 131.563 133.343 39.8654 166.532C39.2159 164.814 37.855 161.403 37.1746 159.67C34.6075 153.102 32.0558 146.518 29.5041 139.927C28.9938 138.573 27.9655 135.858 27.4474 134.512C126.189 102.538 233.228 92.7671 335.132 114.885C433.077 136.144 526.019 184.317 596.824 255.699Z" fill="#019EFF"/>
<path d="M475.319 616.081C482.765 671.929 471.932 730.167 444.103 779.183C418.958 823.968 380.311 861.001 334.49 884.148C292.573 905.546 244.718 915.007 197.79 911.565C147.785 908.176 98.9713 889.772 59.0957 859.4C18.2769 828.61 -13.1473 785.527 -29.9264 737.214C-49.2108 682.256 -49.2881 620.823 -30.3207 565.765C-14.0983 518.319 16.1969 475.84 55.7322 445.019C101.237 409.146 159.051 389.109 217.013 389.713C280.093 389.225 342.802 413.362 389.815 455.377C436.293 496.418 467.354 554.54 475.319 616.081ZM461.663 607.865C446.516 515.72 374.837 436.122 284.887 411.343C230.637 395.809 171.075 399.329 119.184 421.679C61.9026 445.908 14.5578 492.542 -10.6728 549.418C-34.1867 601.715 -38.6251 662.228 -23.2378 717.456C-9.75264 766.604 19.4445 811.172 58.8406 843.494C95.1748 873.503 140.239 892.781 187.073 898.282C235.431 904.138 285.506 895.358 328.884 873.178C375.278 849.729 413.986 811.342 437.716 765.065C462.637 717.147 471.027 661.005 461.663 607.865Z" fill="#019EFF"/>
<path d="M289.967 634.028C299.153 671.873 275.469 713.703 238.315 725.23C202.461 737.994 159.36 719.907 143.285 685.427C126.073 651.805 137.725 606.889 169.412 586.203C201.386 563.342 249.829 570.258 274.062 601.25C281.848 610.719 287.315 622.075 289.967 634.028Z" fill="#019EFF"/>
<path d="M1.50514 434.412C-51.5154 486.794 -83.8519 559.336 -87.7181 633.759C-89.2259 645.572 -85.5915 657.106 -85.6611 668.896C-81.0836 763.641 -28.2565 854.062 51.2085 905.546C100.316 937.915 158.958 955.159 217.693 955.135L217.755 949.031C127.55 949.542 38.6049 906.173 -16.6116 834.838C-57.5387 783.036 -80.2949 717.286 -80.1325 651.266C-79.1041 651.157 -77.0706 650.995 -76.0422 650.886C-76.1814 578.932 -48.7858 507.388 -0.350545 454.171C54.3015 392.9 135.591 356.432 217.724 357.136C217.724 353.074 217.724 349.005 217.724 344.967C137.548 344.239 57.8196 377.374 1.50514 434.412Z" fill="#FFD701"/>
<path d="M-400.49 498.869C-440.265 653.376 -419.063 823.054 -340.549 962.119C-286.06 1059.58 -205.466 1142.22 -109.253 1198.88C-16.3721 1254.02 90.8828 1284.36 198.841 1286.74C204.285 1286.31 211.035 1288.72 215.35 1284.25C152.68 1283.05 89.9164 1275.07 29.8827 1256.49C-120.024 1211.53 -251.164 1108.11 -330.404 973.105C-325.015 970.065 -319.649 967.032 -314.429 963.736C-339.714 919.238 -361.272 872.426 -375.275 823.108C-419.945 670.566 -397.884 501.615 -323.09 362.217C-328.642 359.463 -334.155 356.593 -339.591 353.637C-316.332 312.009 -288.673 272.787 -256.847 237.254C-253.421 240.148 -249.957 243.049 -246.524 245.996C-232.776 227.128 -215.177 211.547 -197.362 196.647C-167.693 172.263 -136.316 150.044 -104.172 129.064C-106.964 125.304 -109.801 121.544 -112.601 117.808C-19.7819 61.6042 87.7128 30.1643 196.166 27.4334C202.63 27.24 209.156 27.2091 215.628 26.5593C214.182 25.0043 212.45 24.1378 210.417 24.0372C106.958 24.2616 3.61612 50.4331 -87.4319 99.6429C-241.204 181.345 -357.808 329.918 -400.49 498.869Z" fill="#FFD701"/>
<path d="M-413.534 495.279C-461.057 688.351 -420.377 898.103 -295.083 1054.13C-233.302 1131.05 -156.93 1192.35 -68.503 1236.06C-23.0603 1258.52 25.4909 1274.24 74.8076 1285.49C114.946 1294.65 179.333 1311.29 218.953 1297.31C233.181 1292.28 231.085 1271.14 215.358 1270.71C-4.9744 1264.63 -204.313 1156.92 -318.713 966.274C-320.329 972.447 -321.945 978.621 -323.569 984.794C-318.164 981.8 -312.837 978.683 -307.594 975.426C-301.184 971.565 -299.104 963.412 -302.738 956.905C-405.988 771.747 -409.923 557.455 -311.398 369.048C-308.135 362.82 -309.457 353.986 -316.254 350.528C-321.806 347.773 -327.304 344.903 -332.755 341.948C-331.131 348.122 -329.515 354.295 -327.899 360.469C-304.679 319.838 -278.134 282.031 -247.266 246.832C-253.646 246.832 -260.017 246.832 -266.404 246.832C-262.963 249.748 -259.522 252.657 -256.081 255.574C-251.001 259.883 -241.753 261.724 -236.944 255.574C-199.751 208.05 -147.187 173.647 -97.329 140.761C-91.7231 137.055 -87.8725 128.375 -92.4732 122.233C-95.28 118.481 -98.0946 114.729 -100.901 110.977C-102.525 117.15 -104.141 123.323 -105.757 129.505C-4.58766 69.7657 99.7519 47.3463 215.636 40.1052C228 39.3316 235.477 21.1749 222.464 14.8776C196.808 2.46102 157.002 12.6185 129.692 15.9296C88.2154 20.9581 47.6363 30.9147 7.92317 43.7335C-61.1728 66.037 -127.57 101.747 -184.511 146.756C-296.545 235.312 -377.169 357.018 -413.534 495.279C-417.98 512.183 -391.876 519.347 -387.438 502.474C-355.155 379.724 -287.165 271.928 -192.251 187.967C-139.037 140.892 -76.1426 104.973 -10.2865 78.9487C23.2099 65.7121 58.1523 56.4595 93.3498 49.1101C114.188 44.7547 135.352 42.1553 156.515 40.0434C169.219 38.7746 197.009 32.5548 208.801 38.2641C211.074 29.8548 213.355 21.4456 215.629 13.0363C95.2442 20.5559 -14.3536 44.0816 -119.428 106.134C-125.235 109.561 -128.722 118.72 -124.284 124.662C-121.477 128.414 -118.662 132.166 -115.856 135.918C-114.24 129.744 -112.616 123.571 -111 117.39C-162.427 151.321 -217.714 187.41 -256.089 236.442C-249.71 236.442 -243.338 236.442 -236.951 236.442C-240.392 233.525 -243.833 230.617 -247.274 227.7C-252.602 223.182 -261.262 221.821 -266.412 227.7C-298.795 264.617 -326.902 304.172 -351.274 346.822C-354.823 353.026 -352.975 361.853 -346.418 365.342C-340.974 368.313 -335.477 371.168 -329.917 373.922C-331.541 367.748 -333.157 361.575 -334.773 355.401C-437.852 552.504 -434.164 776.815 -326.113 970.583C-324.497 964.41 -322.881 958.236 -321.257 952.063C-326.515 955.312 -331.835 958.437 -337.232 961.431C-343.58 965.052 -345.853 973.678 -342.088 979.952C-222.771 1178.8 -14.4775 1291.46 215.342 1297.8C214.144 1288.93 212.945 1280.07 211.747 1271.2C192.393 1278.04 164.866 1271.64 144.978 1269.71C119.299 1267.2 93.9527 1262.12 68.8382 1256.38C21.6943 1245.62 -23.679 1228.1 -66.9567 1206.71C-151.185 1165.07 -224.185 1102.08 -281.404 1027.92C-395.781 879.69 -431.899 683.099 -387.446 502.482C-383.262 485.516 -409.367 478.322 -413.534 495.279Z" fill="#FFD701"/>
<path d="M-122.59 404.026C-43.0482 284.757 104.546 212.563 248.491 223.007C257.197 223.641 257.143 210.095 248.491 209.468C99.6438 198.676 -52.1415 274.058 -134.266 397.202C-139.138 404.474 -127.408 411.243 -122.59 404.026Z" fill="#313332"/>
</svg>
