<svg width="721" height="655" viewBox="0 0 721 655" fill="none" xmlns="http://www.w3.org/2000/svg">
<path d="M1270.16 498.702C1309.94 653.209 1288.74 822.886 1210.24 961.952C1155.74 1059.41 1075.15 1142.05 978.933 1198.71C886.06 1253.85 778.805 1284.19 670.847 1286.57C665.395 1286.14 658.637 1288.55 654.338 1284.08C716.993 1282.88 779.764 1274.9 839.798 1256.32C989.704 1211.37 1120.84 1107.94 1200.07 972.938C1194.68 969.897 1189.31 966.865 1184.09 963.569C1209.38 919.07 1230.93 872.259 1244.94 822.941C1289.62 670.398 1267.55 501.448 1192.75 362.05C1198.3 359.295 1203.8 356.425 1209.26 353.47C1186 311.842 1158.34 272.619 1126.51 237.087C1123.08 239.98 1119.61 242.881 1116.19 245.829C1102.43 226.96 1084.84 211.38 1067.03 196.48C1037.36 172.095 1005.98 149.877 973.845 128.896C976.629 125.137 979.459 121.377 982.273 117.64C889.455 61.4368 781.952 29.9969 673.506 27.266C667.042 27.0726 660.516 27.0417 654.044 26.3919C655.49 24.8369 657.222 23.9704 659.271 23.8698C762.722 24.0942 866.057 50.2657 957.112 99.4756C1110.88 181.177 1227.5 329.751 1270.16 498.702Z" fill="#FFD701"/>
<path d="M1257.11 502.3C1302.21 685.555 1263.3 876.306 1151.08 1027.74C1097.73 1099.74 1026.73 1157.32 948.591 1200.29C906.171 1223.61 860.512 1240.2 813.925 1252.93C792.22 1258.86 770.059 1262.94 747.868 1266.54C723.287 1270.53 682.344 1279.66 657.933 1271.03C656.735 1279.9 655.536 1288.76 654.338 1297.63C884.158 1291.28 1092.46 1178.64 1211.76 979.777C1215.52 973.503 1213.25 964.877 1206.9 961.257C1201.5 958.263 1196.18 955.145 1190.93 951.888C1192.55 958.062 1194.16 964.235 1195.79 970.409C1303.84 776.64 1307.53 552.33 1204.45 355.227C1202.83 361.401 1201.21 367.574 1199.59 373.747C1205.14 370.993 1210.65 368.123 1216.1 365.168C1222.65 361.687 1224.5 352.852 1220.95 346.648C1196.6 304.014 1168.45 264.427 1136.09 227.526C1130.93 221.646 1122.29 223.016 1116.95 227.526C1113.51 230.435 1110.06 233.351 1106.63 236.268C1113.01 236.268 1119.39 236.268 1125.77 236.268C1087.38 187.236 1032.12 151.154 980.68 117.215C982.296 123.389 983.912 129.562 985.536 135.744C988.343 131.992 991.157 128.239 993.964 124.487C998.402 118.554 994.915 109.394 989.108 105.959C884.034 43.9073 774.428 20.3815 654.051 12.8619C656.325 21.2711 658.606 29.6804 660.879 38.0896C669.756 33.796 690.231 38.2831 699.719 38.8169C720.975 40.016 742.084 43.0021 763.069 46.4602C798.607 52.3242 833.333 62.3194 867.309 74.0939C934.92 97.5191 997.946 134.985 1053.12 180.281C1153.3 262.532 1224.26 377.345 1257.11 502.3C1261.55 519.18 1287.65 512.009 1283.21 495.105C1246.86 356.836 1166.22 235.138 1054.18 146.574C996.639 101.085 930.868 67.5027 861.742 43.5514C823.451 30.2839 783.622 21.9597 743.584 16.2349C715.755 12.2508 673.405 2.0467 647.208 14.6954C634.187 20.9849 641.688 39.1572 654.036 39.9231C769.928 47.1642 874.268 69.5836 975.43 129.323C973.814 123.149 972.198 116.976 970.574 110.794C967.767 114.546 964.952 118.299 962.146 122.051C957.553 128.185 961.395 136.873 967.001 140.579C1016.86 173.465 1069.41 207.876 1106.62 255.392C1111.43 261.542 1120.67 259.701 1125.75 255.392C1129.19 252.483 1132.64 249.566 1136.08 246.65C1129.7 246.65 1123.32 246.65 1116.94 246.65C1147.83 281.888 1174.34 319.641 1197.56 360.287C1199.18 354.113 1200.8 347.939 1202.42 341.766C1196.97 344.729 1191.46 347.584 1185.91 350.346C1179.12 353.796 1177.8 362.638 1181.06 368.866C1279.6 557.273 1275.64 771.573 1172.39 956.723C1168.77 963.23 1170.85 971.384 1177.25 975.244C1182.5 978.501 1187.82 981.626 1193.23 984.612C1191.61 978.439 1189.99 972.265 1188.37 966.092C1073.99 1156.73 874.639 1264.44 654.322 1270.53C638.587 1270.97 636.499 1292.09 650.727 1297.12C687.865 1310.25 743.638 1295.03 781.65 1288.03C831.562 1278.84 879.642 1262.05 925.958 1241.59C1019.5 1200.28 1101 1133.33 1164.76 1053.95C1290.06 897.929 1330.73 688.169 1283.21 495.097C1279.04 478.155 1252.94 485.35 1257.11 502.3Z" fill="#FFD701"/>
<path d="M874.917 434.245C927.953 486.627 960.274 559.169 964.156 633.591C965.664 645.404 962.014 656.939 962.091 668.729C957.506 763.474 904.694 853.895 825.229 905.379C776.114 937.747 717.472 954.991 658.745 954.968L658.683 948.864C748.888 949.375 837.825 906.006 893.057 834.67C933.969 782.869 956.725 717.119 956.563 651.098C955.542 650.99 953.508 650.827 952.48 650.719C952.619 578.765 925.224 507.22 876.796 454.003C822.144 392.733 740.847 356.264 658.722 356.968C658.722 352.907 658.722 348.838 658.722 344.799C738.89 344.072 818.618 377.206 874.917 434.245Z" fill="#FFD701"/>
<path d="M872.868 436.302C1042.31 610.97 945.32 903.367 708.069 948.013C712.794 947.123 661.637 954.085 661.614 951.919C661.614 952.438 691.932 949.954 693.842 949.769C713.582 947.819 732.851 942.76 751.749 936.95C789.715 925.276 824.131 904.172 854.635 879.122C922.162 823.684 957.808 737.132 959.455 651.105C959.486 649.411 958.101 648.351 956.555 648.204C957.622 648.305 946.495 579.182 945.405 574.71C939.343 549.792 928.518 526.251 916.393 503.808C890.382 455.651 848.442 417.728 801.53 390.682C780.003 378.273 756.28 369.934 732.473 363.249C720.557 359.9 707.83 357.494 695.528 356.233C685.692 355.219 652.033 346.849 682.731 348.497C754.371 352.341 822.059 386.922 872.868 436.302C875.551 438.909 879.657 434.809 876.966 432.194C817.621 374.521 741.473 342.888 658.714 341.905C657.129 341.882 655.814 343.244 655.814 344.806C655.814 348.86 655.814 352.922 655.814 356.975C655.814 358.577 657.129 359.853 658.714 359.876C819.361 362.12 946.286 490.487 949.573 650.726C949.604 652.421 950.872 653.473 952.472 653.627C963.614 654.656 937.186 748.047 933.134 759.048C919.208 796.754 895.3 830.237 867.742 859.077C813.801 915.528 735.72 944.779 658.683 945.962C657.113 945.986 655.768 947.262 655.783 948.864C655.799 950.898 655.822 952.933 655.845 954.967C655.861 956.522 657.152 957.899 658.745 957.868C779.145 955.393 893.684 885.953 940.526 772.432C989.247 654.355 966.236 524.209 876.966 432.194C874.361 429.51 870.262 433.61 872.868 436.302Z" fill="#FFD701"/>
<path d="M821.464 650.587C821.278 696.137 801.654 741.301 767.485 771.581C738.032 798.402 698.466 813.333 658.722 813.356C658.722 807.376 658.722 801.373 658.722 795.416C698.953 795.331 738.821 777.924 765.675 747.862C789.947 721.589 803.092 686.111 803.556 650.455C809.51 650.517 815.502 650.532 821.464 650.587Z" fill="#FFD701"/>
<path d="M814.698 650.587C811.705 737.465 745.695 803.834 658.714 806.588C660.972 808.847 663.222 811.098 665.479 813.357C665.479 807.377 665.479 801.397 665.479 795.417C663.222 797.675 660.972 799.927 658.714 802.186C743.823 798.975 806.2 735.113 810.314 650.456C808.056 652.715 805.806 654.966 803.548 657.225C809.517 657.271 815.486 657.318 821.456 657.364C830.186 657.426 830.178 643.888 821.456 643.826C815.486 643.78 809.517 643.733 803.548 643.687C799.72 643.656 796.96 646.789 796.782 650.456C793.032 727.655 736.3 785.715 658.714 788.647C655.025 788.787 651.948 791.626 651.948 795.417C651.948 801.397 651.948 807.377 651.948 813.357C651.948 816.962 655.025 820.242 658.714 820.126C753.272 817.124 824.974 745.038 828.229 650.587C828.531 641.853 814.992 641.884 814.698 650.587Z" fill="#FFD701"/>
<path d="M1202.42 650.556C1202.45 759.931 1169.01 869.104 1106.69 959.052C1048.88 1043.21 967.025 1110.65 873.17 1150.82C781.658 1190.33 679.151 1203.45 580.564 1189.11C481.954 1175.09 387.666 1132.8 311.294 1068.94C235.448 1005.82 177.192 921.779 145.181 828.435C108.862 723.493 105.9 607.342 136.466 500.606C164.303 402.789 220.509 313.328 296.254 245.551C347.388 199.544 407.36 163.509 471.848 139.759C474.399 146.35 476.951 152.934 479.518 159.502C374.073 197.773 282.058 271.499 221.034 365.602C170.125 443.435 140.812 535.179 137.039 628.137C132.477 728.723 157.807 830.492 209.335 917.037C210.727 916.225 213.534 914.569 214.957 913.757C260.091 990.345 325.042 1055.17 401.986 1099.68C480.771 1145.46 571.656 1170.24 662.782 1170.47C663.323 1165.01 663.841 1159.54 664.351 1154.1C758.979 1157.96 854.899 1131.37 933.807 1078.88C973.273 1052.67 1007.94 1019.59 1037 982.207C1042.21 986.268 1047.41 990.345 1052.58 994.43C1135.23 900.335 1181.7 775.782 1181.43 650.533C1188.44 650.533 1195.43 650.533 1202.42 650.556Z" fill="#FF009D"/>
<path d="M659.008 446.776C659.062 453.77 659.062 460.763 659.062 467.764C612.135 468.051 565.417 486.517 531.936 519.62C496.599 553.427 476.186 601.98 476.317 650.895C469.327 650.864 462.329 650.865 455.355 650.865C455.162 601.577 473.58 552.507 506.396 515.713C544.3 472.205 601.372 446.799 659.008 446.776Z" fill="#FF009D"/>
<path d="M1017.64 613.367C1024.39 679.326 1013.06 747.157 984.476 807.051C947.106 886.161 880.237 950.758 799.837 985.192C709.685 1024.47 603.467 1024.64 513.176 985.733C424.997 948.367 353.079 874.657 317.966 785.536C278.764 688.076 284.679 573.719 334.05 480.978C380.412 392.298 464.803 324.444 561.619 299.015C641.394 277.547 728.49 284.193 803.865 318.054C879.472 351.613 942.853 411.855 980.139 485.728C1000.4 525.453 1013.18 568.985 1017.64 613.367ZM1011.06 609.491C999.732 505.44 939.459 408.412 851.86 351.374C783.738 306.256 699.788 285.98 618.583 294.737C540.054 302.674 464.741 337.928 408.079 392.824C342.718 455.263 302.649 543.262 298.767 633.597C293.447 732.311 331.753 832.271 401.584 902.19C464.695 966.818 553.114 1005.75 643.396 1008.49C747.512 1012.83 852.099 968.203 921.389 890.385C989.781 815.367 1023.28 710.286 1011.06 609.491Z" fill="#313332"/>
<path d="M1008.94 613.368C1025.66 812.482 882.974 986.562 683.318 1005.07C492.322 1022.77 324.825 874.472 302.834 688.053C281.161 504.249 412.502 338.841 589.347 301.561C792.336 258.764 985.01 413.039 1008.94 613.368C1010.26 624.369 1027.67 624.492 1026.34 613.368C1002.83 416.613 837.021 272.743 638.788 278.352C449.516 283.713 300.399 441.191 284.478 625.212C267.769 818.23 413.986 988.906 600.853 1019.39C797.625 1051.5 981.871 912.41 1021.52 721.326C1028.88 685.871 1029.35 649.302 1026.34 613.368C1025.4 602.266 1008 602.173 1008.94 613.368Z" fill="#313332"/>
<path d="M1019.76 609.493C995.82 420.297 834.756 281.455 644.293 284.225C447.908 287.087 296.401 455.241 289.628 645.938C282.738 840.024 443.091 1000.64 631.094 1016.59C824.008 1032.95 992.603 883.996 1019.19 696.726C1023.32 667.739 1022.75 638.535 1019.76 609.493C1018.62 598.438 1001.22 598.33 1002.36 609.493C1021.51 795.517 895.903 961.118 712.802 995.467C522.1 1031.24 344.334 889.961 311.162 705.066C276.119 509.735 426.729 326.387 618.583 303.442C807.059 280.898 978.909 424.149 1002.36 609.501C1003.75 620.471 1021.17 620.602 1019.76 609.493Z" fill="#313332"/>
<path d="M691.468 203.428C794.138 205.973 892.648 253.419 965.826 324.205C959.292 330.518 952.712 336.753 946.124 343.02C877.763 277.548 786.367 232.903 690.811 230.512C691.043 221.461 691.228 212.425 691.468 203.428Z" fill="#313332"/>
<path d="M691.468 206.328C749.236 208.765 802.96 223.425 854.859 248.668C876.966 259.422 897.619 272.96 917.584 287.21C930.721 296.594 942.853 307.154 954.877 317.876C954.568 322.448 954.258 327.013 953.949 331.577C943.673 335.755 935.639 333.356 929.84 324.367C898.702 296.996 862.035 273.687 823.776 257.789C800.71 248.204 777.467 240.661 753.125 235.045C728.212 229.281 693.54 237.002 694.367 203.427C694.46 199.683 688.661 199.691 688.568 203.427C688.336 212.455 688.12 221.483 687.919 230.511C687.88 232.144 689.264 233.343 690.818 233.412C787.294 237.675 873.958 279.799 944.075 345.077C945.25 346.175 946.998 346.198 948.173 345.077C954.769 338.826 961.333 332.559 967.875 326.262C968.996 325.187 969.004 323.222 967.875 322.154C891.812 250.548 796.566 204.974 691.46 200.526C687.725 200.364 687.741 206.166 691.468 206.328Z" fill="#313332"/>
<path d="M823.467 176.065C822.083 180.025 820.675 183.955 819.237 187.909C739.865 160.801 653.781 158.039 571.138 168.854C570.488 164.731 569.839 160.631 569.158 156.538C653.943 145.785 741.899 148.795 823.467 176.065Z" fill="#313332"/>
<path d="M820.668 175.298C816.09 188.132 738.837 165.736 724.184 163.801C682.661 158.324 640.42 159.461 598.797 162.873C588.466 168.552 583.309 166.857 583.316 157.79C592.788 156.762 602.268 155.926 611.772 155.268C635.556 153.396 659.426 153.481 683.249 154.185C730.741 155.593 777.506 164.56 822.701 178.872C826.274 180.001 827.797 174.4 824.24 173.271C741.064 146.937 655.444 143.509 569.166 153.644C567.164 153.876 566.05 155.307 566.367 157.319C567.025 161.426 567.69 165.534 568.347 169.635C568.532 170.779 569.978 171.901 571.146 171.762C654.756 161.612 737.847 164.66 818.472 190.716C820.057 191.226 821.526 190.12 822.036 188.689C823.444 184.743 824.851 180.79 826.266 176.845C827.519 173.302 821.913 171.801 820.668 175.298Z" fill="#313332"/>
<path d="M742.409 569.333C763.58 590.808 775.55 620.763 775.395 650.888C772.41 650.888 769.387 650.887 766.364 650.911C766.209 621.985 754.255 593.307 733.231 573.379C713.56 554.023 686.218 543.509 658.745 543.037C658.745 540.763 658.714 536.175 658.684 533.901C689.845 534.094 720.82 546.728 742.409 569.333Z" fill="#313332"/>
<path d="M734.213 577.542C753.281 598.267 763.008 622.783 763.797 650.889C767.663 647.021 771.529 643.152 775.395 639.284C772.388 639.292 769.372 639.3 766.364 639.307C770.23 643.176 774.096 647.044 777.963 650.912C775.349 583.94 725.29 534.776 658.746 531.434C662.612 535.302 666.478 539.17 670.344 543.038C670.344 539.99 670.321 536.95 670.282 533.902C666.416 537.77 662.55 541.638 658.684 545.506C687.842 546.574 713.297 557.057 734.213 577.542C744.899 588.017 761.315 571.616 750.613 561.133C725.344 536.378 693.936 523.59 658.684 522.298C652.405 522.073 647.031 527.752 647.085 533.902C647.116 536.95 647.139 539.99 647.147 543.038C647.17 549.606 652.413 554.325 658.746 554.643C712.423 557.343 752.662 597.006 754.766 650.912C755.013 657.217 759.853 662.531 766.364 662.516C769.372 662.508 772.388 662.501 775.395 662.493C781.581 662.477 787.172 657.225 786.994 650.889C786.027 616.571 773.857 586.384 750.613 561.126C740.461 550.102 724.092 566.557 734.213 577.542Z" fill="#313332"/>
<path d="M324.941 409.133C312.028 427.159 300.824 446.569 293.556 467.619C284.95 464.849 276.32 462.111 267.699 459.295C275.988 435.259 288.298 412.63 303.809 392.516C310.822 398.109 317.874 403.633 324.941 409.133Z" fill="#313332"/>
<path d="M322.444 407.671C315.531 417.473 309.168 427.507 303.422 438.036C300.144 444.031 297.36 450.275 294.685 456.564C291.731 463.496 291.383 463.875 283.999 461.515C276.375 459.071 270.568 459.581 274.032 450.538C276.97 442.848 280.604 435.46 284.362 428.141C290.556 416.073 298.164 404.786 306.322 393.986C304.807 394.18 303.283 394.381 301.768 394.574C308.781 400.152 315.825 405.683 322.893 411.191C325.8 413.458 329.937 409.389 326.991 407.083C319.923 401.575 312.879 396.044 305.866 390.466C304.289 389.213 302.518 389.453 301.312 391.054C285.716 411.717 273.614 434.16 264.9 458.529C264.351 460.069 265.511 461.631 266.934 462.095C275.54 464.896 284.169 467.658 292.79 470.42C294.391 470.93 295.845 469.832 296.363 468.393C303.902 447.544 314.719 428.675 327.455 410.603C329.612 407.532 324.578 404.639 322.444 407.671Z" fill="#313332"/>
<path d="M1110.99 581.736C1120.1 649.776 1114.74 719.696 1096.41 785.794C1091.68 784.277 1086.93 782.73 1082.16 781.237C1056.44 864.927 1005.33 940.572 937.155 995.491C882.155 1040.19 816.221 1071.27 746.738 1085.28C747.311 1088.75 747.86 1092.27 748.424 1095.82C649.876 1112.7 546.332 1095.93 457.836 1049.57C412.772 1026.06 370.468 996.466 335.263 959.618C342.122 953.7 348.841 947.689 355.53 941.67C414.775 1001.37 491.154 1043.91 572.862 1063.58C628.163 1076.74 686.125 1078.63 742.184 1069.18C743.104 1070.12 744.944 1072.02 745.872 1072.95C828.74 1055.89 906.21 1013.71 965.362 953.213C1013.89 904.142 1050.39 843.196 1070.48 777.137C1066.93 776.1 1063.35 775.094 1059.77 774.12C1064.56 762.407 1068.23 750.176 1069.8 737.597C1073.43 737.597 1077.04 737.597 1080.64 737.628C1091.82 687.505 1088.47 635.743 1083.97 585.04C1092.98 583.957 1101.99 582.788 1110.99 581.736Z" fill="#019EFF"/>
<path d="M1039.16 255.532C1031.94 262.827 1024.48 269.874 1017.45 277.378C948.598 213.068 862.909 166.093 770.43 146.846C675.075 127.018 573.898 133.176 482.2 166.364C481.551 164.647 480.19 161.235 479.51 159.502C476.942 152.934 474.391 146.351 471.839 139.76C471.329 138.406 470.3 135.69 469.782 134.344C568.524 102.371 675.562 92.5998 777.467 114.718C875.412 135.977 968.354 184.15 1039.16 255.532Z" fill="#019EFF"/>
<path d="M917.653 615.914C925.1 671.761 914.267 729.999 886.438 779.016C861.293 823.801 822.646 860.834 776.825 883.98C734.908 905.379 687.053 914.84 640.125 911.397C590.12 908.009 541.306 889.605 501.431 859.232C460.612 828.442 429.188 785.359 412.409 737.047C393.124 682.089 393.047 620.656 412.014 565.598C428.237 518.152 458.532 475.672 498.067 444.851C543.572 408.979 601.386 388.942 659.348 389.545C722.428 389.058 785.137 413.195 832.149 455.21C878.628 496.25 909.689 554.372 917.653 615.914ZM903.998 607.698C888.851 515.552 817.172 435.955 727.222 411.176C672.972 395.641 613.41 399.161 561.518 421.511C504.238 445.741 456.893 492.375 431.662 549.251C408.148 601.548 403.71 662.06 419.097 717.289C432.582 766.437 461.779 811.005 501.176 843.327C537.51 873.335 582.574 892.614 629.408 898.114C677.766 903.971 727.841 895.19 771.219 873.01C817.613 849.562 856.321 811.175 880.051 764.897C904.972 716.979 913.362 660.838 903.998 607.698Z" fill="#019EFF"/>
<path d="M732.302 633.86C741.488 671.706 717.804 713.535 680.65 725.062C644.796 737.827 601.695 719.74 585.62 685.259C568.408 651.638 580.06 606.722 611.747 586.035C643.721 563.175 692.164 570.091 716.397 601.082C724.183 610.551 729.65 621.908 732.302 633.86Z" fill="#019EFF"/>
<path d="M443.841 434.245C390.821 486.627 358.484 559.169 354.618 633.591C353.11 645.404 356.744 656.939 356.675 668.729C361.252 763.474 414.079 853.895 493.544 905.379C542.652 937.747 601.294 954.991 660.029 954.968L660.091 948.864C569.886 949.375 480.941 906.006 425.724 834.67C384.797 782.869 362.041 717.119 362.203 651.098C363.232 650.99 365.265 650.827 366.294 650.719C366.155 578.765 393.55 507.22 441.985 454.003C496.637 392.733 577.927 356.264 660.06 356.968C660.06 352.907 660.06 348.838 660.06 344.799C579.884 344.072 500.156 377.206 443.841 434.245Z" fill="#FFD701"/>
<path d="M41.8454 498.702C2.07041 653.209 23.2722 822.886 101.786 961.952C156.276 1059.41 236.87 1142.05 333.083 1198.71C425.963 1253.85 533.218 1284.19 641.177 1286.57C646.62 1286.15 653.371 1288.55 657.685 1284.08C595.015 1282.88 532.252 1274.9 472.218 1256.32C322.312 1211.37 191.172 1107.94 111.931 972.938C117.32 969.897 122.687 966.865 127.906 963.569C102.621 919.071 81.0636 872.259 67.0603 822.941C22.3908 670.398 44.451 501.448 119.246 362.05C113.694 359.296 108.181 356.425 102.745 353.47C126.004 311.842 153.662 272.619 185.489 237.087C188.914 239.98 192.378 242.881 195.811 245.829C209.559 226.96 227.158 211.38 244.973 196.48C274.642 172.095 306.02 149.877 338.163 128.896C335.372 125.137 332.534 121.377 329.735 117.64C422.554 61.4368 530.048 29.9969 638.502 27.266C644.966 27.0726 651.492 27.0417 657.964 26.3919C656.518 24.8369 654.786 23.9704 652.752 23.8699C549.294 24.0942 445.952 50.2657 354.904 99.4756C201.131 181.177 84.5278 329.751 41.8454 498.702Z" fill="#FFD701"/>
<path d="M28.8011 495.112C-18.7216 688.184 21.958 897.935 147.252 1053.97C209.034 1130.89 285.406 1192.18 373.832 1235.89C419.275 1258.35 467.826 1274.07 517.143 1285.32C557.281 1294.48 621.668 1311.12 661.289 1297.14C675.516 1292.12 673.421 1270.97 657.693 1270.54C437.361 1264.46 238.022 1156.75 123.622 966.106C122.006 972.28 120.39 978.453 118.767 984.627C124.172 981.633 129.499 978.515 134.741 975.258C141.152 971.398 143.232 963.244 139.597 956.738C36.3479 771.58 32.4123 557.288 130.937 368.88C134.2 362.653 132.878 353.818 126.081 350.36C120.53 347.606 115.032 344.736 109.581 341.781C111.204 347.954 112.821 354.128 114.437 360.301C137.657 319.671 164.202 281.864 195.069 246.664C188.69 246.664 182.319 246.664 175.932 246.664C179.373 249.581 182.813 252.49 186.254 255.406C191.334 259.715 200.582 261.556 205.392 255.406C242.584 207.883 295.148 173.48 345.006 140.593C350.612 136.888 354.463 128.208 349.862 122.065C347.055 118.313 344.241 114.561 341.434 110.809C339.81 116.982 338.194 123.156 336.578 129.337C437.748 69.5983 542.087 47.1788 657.972 39.9377C670.335 39.1641 677.813 21.0074 664.799 14.7101C639.144 2.29354 599.337 12.4511 572.027 15.7621C530.551 20.7907 489.972 30.7472 450.259 43.5661C381.163 65.8695 314.765 101.58 257.824 146.589C145.791 235.145 65.1662 356.851 28.8011 495.112C24.3551 512.016 50.4593 519.179 54.8977 502.307C87.1801 379.556 155.17 271.76 250.085 187.8C303.298 140.725 366.193 104.806 432.049 78.7812C465.545 65.5446 500.488 56.292 535.685 48.9427C556.524 44.5872 577.687 41.9878 598.85 39.8759C611.554 38.6071 639.345 32.3873 651.136 38.0966C653.41 29.6873 655.691 21.2781 657.964 12.8689C537.58 20.3884 427.982 43.9142 322.907 105.966C317.1 109.393 313.613 118.553 318.051 124.494C320.858 128.246 323.673 131.998 326.48 135.75C328.096 129.577 329.72 123.403 331.336 117.222C279.908 151.153 224.622 187.243 186.246 236.275C192.626 236.275 198.997 236.275 205.384 236.275C201.943 233.358 198.502 230.449 195.061 227.533C189.734 223.015 181.074 221.653 175.924 227.533C143.541 264.45 115.434 304.005 91.0618 346.654C87.5126 352.859 89.3605 361.686 95.9175 365.175C101.361 368.145 106.859 371 112.418 373.754C110.795 367.581 109.179 361.407 107.562 355.234C4.48307 552.336 8.17129 776.647 116.223 970.416C117.839 964.242 119.455 958.069 121.078 951.895C115.82 955.144 110.501 958.27 105.104 961.264C98.7555 964.884 96.482 973.51 100.248 979.784C219.565 1178.64 427.858 1291.29 657.678 1297.63C656.479 1288.77 655.281 1279.9 654.082 1271.04C634.728 1277.87 607.201 1271.48 587.314 1269.54C561.635 1267.04 536.288 1261.95 511.174 1256.21C464.03 1245.45 418.656 1227.93 375.379 1206.54C291.151 1164.9 218.15 1101.92 160.931 1027.76C46.5546 879.523 10.4369 682.931 54.8899 502.314C59.0731 485.349 32.9689 478.154 28.8011 495.112Z" fill="#FFD701"/>
<path d="M319.745 403.858C399.287 284.589 546.882 212.395 690.826 222.839C699.533 223.474 699.479 209.928 690.826 209.301C541.979 198.509 390.194 273.89 308.069 397.035C303.198 404.307 314.928 411.076 319.745 403.858Z" fill="#313332"/>
</svg>
