<svg width="779" height="1080" viewBox="0 0 779 1080" fill="none" xmlns="http://www.w3.org/2000/svg">
<path d="M-24.8616 32.32C129.646 -7.45507 299.323 13.7392 438.389 92.2454C535.849 146.743 618.487 227.329 675.147 323.55C730.291 416.423 760.625 523.678 763.007 631.636C762.582 637.088 764.988 643.845 760.516 648.145C759.317 585.49 751.341 522.719 732.759 462.685C687.804 312.779 584.379 181.639 449.374 102.413C446.334 107.803 443.301 113.169 440.006 118.388C395.507 93.1035 348.696 71.5537 299.377 57.5427C146.835 12.8654 -22.1153 34.9334 -161.514 109.736C-164.268 104.184 -167.138 98.6786 -170.093 93.2273C-211.722 116.486 -250.944 144.145 -286.476 175.971C-283.583 179.404 -280.682 182.868 -277.734 186.294C-296.603 200.057 -312.184 217.64 -327.084 235.456C-351.468 265.124 -373.686 296.502 -394.667 328.638C-398.427 325.854 -402.186 323.024 -405.923 320.209C-462.126 413.028 -493.566 520.531 -496.297 628.976C-496.491 635.441 -496.521 641.967 -497.171 648.439C-498.726 646.993 -499.593 645.261 -499.693 643.212C-499.469 539.761 -473.298 436.426 -424.088 345.37C-342.386 191.606 -193.812 74.9869 -24.8616 32.32Z" fill="#FFD701"/>
<path d="M-21.2637 45.3722C161.991 0.26962 352.742 39.1864 504.178 151.398C576.179 204.751 633.752 275.757 676.726 353.892C700.051 396.311 716.637 441.97 729.363 488.558C735.297 510.262 739.374 532.423 742.979 554.615C746.971 579.196 756.092 620.138 747.466 644.549C756.332 645.748 765.197 646.946 774.063 648.145C767.719 418.325 655.073 210.024 456.214 90.7222C449.94 86.9643 441.314 89.23 437.693 95.5782C434.699 100.983 431.582 106.303 428.325 111.553C434.498 109.937 440.672 108.321 446.845 106.697C253.077 -1.35417 28.7662 -5.05017 -168.336 98.0371C-162.163 99.6531 -155.99 101.269 -149.816 102.893C-152.57 97.3411 -155.44 91.8358 -158.395 86.3845C-161.877 79.8275 -170.711 77.9871 -176.916 81.5285C-219.55 105.885 -259.136 134.031 -296.038 166.391C-301.917 171.548 -300.548 180.193 -296.038 185.528C-293.129 188.969 -290.212 192.418 -287.296 195.851C-287.296 189.472 -287.296 183.092 -287.296 176.713C-336.328 215.104 -372.409 270.367 -406.348 321.803C-400.175 320.186 -394.001 318.57 -387.82 316.947C-391.572 314.14 -395.324 311.325 -399.076 308.518C-405.01 304.08 -414.169 307.567 -417.604 313.374C-479.656 418.449 -503.182 528.054 -510.702 648.431C-502.292 646.158 -493.883 643.877 -485.474 641.603C-489.767 632.727 -485.28 612.251 -484.747 602.764C-483.547 581.508 -480.561 560.399 -477.103 539.413C-471.239 503.875 -461.244 469.149 -449.47 435.174C-426.044 367.562 -388.578 304.536 -343.283 249.366C-261.031 149.178 -146.219 78.2191 -21.2637 45.3722C-4.38336 40.9339 -11.5547 14.8296 -28.4583 19.2757C-166.727 55.6253 -288.425 136.258 -376.989 248.299C-422.478 305.843 -456.061 371.614 -480.012 440.741C-493.28 479.031 -501.604 518.86 -507.329 558.898C-511.313 586.727 -521.517 629.077 -508.868 655.274C-502.579 668.295 -484.406 660.795 -483.64 648.446C-476.399 532.554 -453.98 428.215 -394.241 327.053C-400.414 328.669 -406.588 330.285 -412.769 331.909C-409.017 334.716 -405.265 337.53 -401.513 340.337C-395.378 344.93 -386.69 341.087 -382.985 335.481C-350.098 285.623 -315.688 233.074 -268.172 195.866C-262.022 191.049 -263.863 181.817 -268.172 176.729C-271.081 173.288 -273.997 169.839 -276.914 166.406C-276.914 172.785 -276.914 179.164 -276.914 185.544C-241.676 154.653 -203.923 128.147 -163.277 104.919C-169.45 103.303 -175.624 101.679 -181.797 100.063C-178.835 105.514 -175.98 111.02 -173.218 116.571C-169.768 123.36 -160.925 124.683 -154.698 121.427C33.7096 22.8866 248.01 26.8378 433.16 130.087C439.666 133.714 447.82 131.634 451.68 125.232C454.937 119.981 458.063 114.661 461.049 109.257C454.875 110.873 448.702 112.489 442.528 114.113C633.171 228.489 740.875 427.843 746.963 648.16C747.404 663.896 768.524 665.983 773.56 651.756C786.688 614.617 771.464 558.844 764.462 520.832C755.272 470.92 738.484 422.841 718.03 376.524C676.718 282.986 609.77 201.48 530.389 137.727C374.365 12.4248 164.606 -28.2472 -28.4661 19.2757C-45.4084 23.4434 -38.2137 49.5399 -21.2637 45.3722Z" fill="#FFD701"/>
<path d="M-150.181 356.544C-73.84 282.244 33.2519 241.541 139.516 243.057C139.516 245.361 139.493 249.915 139.493 252.188C35.7972 250.812 -68.8037 290.394 -143.303 362.915C-145.601 360.789 -147.906 358.686 -150.181 356.544Z" fill="#FFD701"/>
<path d="M-145.391 361.322C-103.894 322.228 -56.6333 293.456 -3.24585 273.607C19.8002 265.039 43.8674 259.557 68.0043 255.165C83.5618 252.335 99.2509 251.183 114.994 250.217C146.171 248.299 111.335 246.08 102.183 246.675C59.92 249.42 16.8837 259.789 -22.0603 276.29C-45.1606 286.079 -67.0152 297.391 -88.3052 310.652C-92.6761 313.382 -143.24 353.745 -145.391 351.75C-151.788 345.827 -161.381 355.376 -154.968 361.315C-152.67 363.441 -150.373 365.559 -148.083 367.686C-145.313 370.253 -141.267 370.284 -138.505 367.686C-62.6521 296.324 35.6053 259.201 139.502 258.939C143.2 258.931 146.264 255.869 146.271 252.173C146.279 249.126 146.287 246.087 146.295 243.041C146.302 239.353 143.216 236.275 139.525 236.275C29.5478 236.383 -74.7592 276.197 -154.96 351.742C-161.327 357.75 -151.742 367.307 -145.391 361.322Z" fill="#FFD701"/>
<path d="M-89.3179 427.565C-36.9361 374.529 35.6061 342.208 110.028 338.326C121.841 336.818 133.376 340.468 145.166 340.391C239.911 344.976 330.332 397.788 381.816 477.253C414.184 526.369 431.428 585.01 431.405 643.737L425.301 643.799C425.812 553.594 382.443 464.657 311.107 409.425C259.306 368.513 193.556 345.757 127.535 345.919C127.427 346.94 127.264 348.974 127.156 350.002C55.2018 349.863 -16.3425 377.258 -69.5598 425.686C-130.83 480.338 -167.299 561.636 -166.595 643.76C-170.656 643.76 -174.725 643.76 -178.764 643.76C-179.491 563.592 -146.357 483.864 -89.3179 427.565Z" fill="#FFD701"/>
<path d="M-87.261 429.614C87.4067 260.168 379.804 357.163 424.449 594.413C423.56 589.689 430.522 640.846 428.356 640.869C428.874 640.869 426.391 610.55 426.205 608.641C424.256 588.9 419.196 569.631 413.387 550.733C401.713 512.767 380.608 478.351 355.559 447.847C300.121 380.321 213.568 344.675 127.542 343.028C125.848 342.997 124.788 344.381 124.641 345.927C124.742 344.86 55.6187 355.987 51.1471 357.078C26.2289 363.14 2.68782 373.965 -19.7549 386.089C-67.9126 412.101 -105.835 454.041 -132.881 500.953C-145.29 522.479 -153.63 546.202 -160.314 570.01C-163.664 581.925 -166.069 594.653 -167.33 606.955C-168.344 616.79 -176.714 650.449 -175.067 619.752C-171.222 548.112 -136.641 480.423 -87.261 429.614C-84.6539 426.931 -88.7541 422.825 -91.3689 425.516C-149.042 484.862 -180.675 561.009 -181.658 643.768C-181.681 645.354 -180.32 646.668 -178.757 646.668C-174.703 646.668 -170.642 646.668 -166.588 646.668C-164.986 646.668 -163.71 645.354 -163.687 643.768C-161.443 483.122 -33.0766 356.196 127.163 352.91C128.857 352.879 129.909 351.611 130.064 350.01C131.093 338.868 224.484 365.297 235.485 369.349C273.191 383.274 306.674 407.183 335.514 434.741C391.965 488.681 421.216 566.762 422.399 643.799C422.422 645.369 423.699 646.714 425.3 646.699C427.335 646.683 429.37 646.66 431.404 646.637C432.959 646.622 434.336 645.33 434.305 643.737C431.83 523.338 362.39 408.799 248.869 361.957C130.791 313.235 0.645325 336.247 -91.3689 425.516C-94.0534 428.122 -89.9531 432.22 -87.261 429.614Z" fill="#FFD701"/>
<path d="M127.023 481.019C172.574 481.204 217.738 500.829 248.017 534.998C274.839 564.45 289.77 604.016 289.793 643.761C283.813 643.761 277.809 643.761 271.852 643.761C271.767 603.529 254.361 563.662 224.298 536.807C198.026 512.535 162.548 499.391 126.892 498.927C126.953 492.973 126.969 486.98 127.023 481.019Z" fill="#FFD701"/>
<path d="M127.024 487.785C213.901 490.777 280.27 556.788 283.024 643.769C285.283 641.511 287.534 639.261 289.793 637.003C283.813 637.003 277.833 637.003 271.853 637.003C274.112 639.261 276.363 641.511 278.622 643.769C275.412 558.659 211.549 496.282 126.892 492.169C129.151 494.427 131.403 496.677 133.662 498.934C133.708 492.965 133.754 486.996 133.801 481.027C133.863 472.297 120.324 472.305 120.263 481.027C120.216 486.996 120.17 492.965 120.123 498.934C120.092 502.762 123.225 505.522 126.892 505.7C204.092 509.45 262.152 566.183 265.084 643.769C265.223 647.457 268.062 650.534 271.853 650.534C277.833 650.534 283.813 650.534 289.793 650.534C293.398 650.534 296.678 647.457 296.562 643.769C293.561 549.21 221.475 477.508 127.024 474.253C118.29 473.951 118.321 487.491 127.024 487.785Z" fill="#FFD701"/>
<path d="M126.993 100.063C236.367 100.032 345.54 133.474 435.489 195.797C519.643 253.603 587.087 335.458 627.261 429.312C666.77 520.824 679.89 623.332 665.547 721.919C651.522 820.529 609.236 914.817 545.373 991.189C482.254 1067.04 398.216 1125.29 304.871 1157.3C199.93 1193.62 83.7784 1196.58 -22.9578 1166.02C-120.774 1138.18 -210.236 1081.97 -278.012 1006.23C-324.019 955.094 -360.055 895.122 -383.805 830.635C-377.213 828.083 -370.63 825.532 -364.062 822.964C-325.791 928.41 -252.065 1020.42 -157.962 1081.45C-80.1283 1132.36 11.6151 1161.67 104.573 1165.44C205.159 1170.01 306.929 1144.68 393.473 1093.15C392.661 1091.76 391.006 1088.95 390.193 1087.53C466.782 1042.39 531.603 977.441 576.117 900.496C621.9 821.712 646.679 730.826 646.903 639.701C641.449 639.16 635.98 638.642 630.541 638.131C634.394 543.503 607.805 447.584 555.314 368.676C529.104 329.21 496.024 294.538 458.643 265.48C462.705 260.276 466.782 255.072 470.866 249.899C376.771 167.256 252.218 120.785 126.97 121.056C126.97 114.043 126.969 107.053 126.993 100.063Z" fill="#FF009D"/>
<path d="M-76.7871 643.475C-69.7936 643.421 -62.8 643.421 -55.7987 643.421C-55.5125 690.348 -37.0462 737.067 -3.94307 770.547C29.8641 805.884 78.4163 826.297 127.332 826.166C127.301 833.156 127.301 840.154 127.301 847.128C78.0141 847.321 28.9434 828.903 -7.84988 796.087C-51.3582 758.184 -76.7639 701.111 -76.7871 643.475Z" fill="#FF009D"/>
<path d="M-35.1484 164.635C29.4023 144.941 97.6048 137.046 164.979 140.951C164.84 146.418 164.708 151.9 164.569 157.367C99.0978 156.803 32.5667 160.475 -30.3518 179.914C-31.9455 174.834 -33.547 169.723 -35.1484 164.635Z" fill="#313332"/>
<path d="M-34.3758 167.435C2.68056 156.648 39.8222 149.372 78.2556 145.336C92.6526 143.828 107.142 143.403 121.609 142.97C131.256 142.807 140.895 142.884 150.542 143.201C165.667 147.323 165.667 151.065 150.535 154.421C117.64 154.297 84.8622 156.161 52.1768 159.81C34.2289 161.813 -26.1368 183.634 -32.349 163.87C-33.463 160.313 -39.0639 161.828 -37.9422 165.408C-36.3485 170.504 -34.7472 175.6 -33.1458 180.695C-32.6739 182.188 -31.1344 183.17 -29.5794 182.721C33.8651 164.311 98.8105 160.027 164.576 160.274C166.185 160.282 167.438 158.952 167.477 157.375C167.616 151.9 167.748 146.426 167.887 140.959C167.926 139.328 166.533 138.129 164.986 138.059C96.5052 134.943 29.8964 142.699 -35.9153 161.844C-39.5049 162.888 -37.9809 168.478 -34.3758 167.435Z" fill="#313332"/>
<path d="M89.8031 284.842C155.762 278.091 223.593 289.419 283.486 318.005C362.597 355.376 427.194 422.245 461.628 502.645C500.904 592.796 501.074 699.015 462.169 789.305C424.803 877.485 351.093 949.403 261.972 984.516C164.512 1023.72 50.1551 1017.8 -42.5863 968.432C-131.266 922.069 -199.12 837.679 -224.549 740.863C-246.017 661.088 -239.372 573.991 -205.51 498.617C-171.951 423.01 -111.709 359.629 -37.8362 322.343C1.88913 302.077 45.4206 289.303 89.8031 284.842ZM85.9272 291.422C-18.1245 302.75 -115.152 363.023 -172.191 450.622C-217.308 518.744 -237.585 602.694 -228.827 683.899C-220.89 762.428 -185.636 837.741 -130.74 894.403C-68.3013 959.764 19.6977 999.833 110.033 1003.71C208.747 1009.03 308.706 970.729 378.626 900.898C443.254 837.787 482.183 749.368 484.921 659.086C489.261 554.97 444.639 450.383 366.821 381.093C291.803 312.701 186.722 279.205 85.9272 291.422Z" fill="#313332"/>
<path d="M89.804 293.541C288.918 276.824 462.998 419.508 481.503 619.164C499.203 810.16 350.908 977.657 164.489 999.648C-19.315 1021.32 -184.722 889.98 -222.003 713.135C-264.8 510.146 -110.525 317.472 89.804 293.541C100.805 292.226 100.929 274.813 89.804 276.143C-106.951 299.649 -250.82 465.461 -245.212 663.694C-239.85 852.966 -82.3726 1002.08 101.648 1018C294.666 1034.71 465.342 888.496 495.83 701.629C527.936 504.857 388.847 320.611 197.763 280.96C162.308 273.599 125.739 273.127 89.804 276.143C78.7026 277.079 78.6098 294.484 89.804 293.541Z" fill="#313332"/>
<path d="M85.9297 282.724C-103.267 306.663 -242.108 467.727 -239.338 658.189C-236.476 854.575 -68.3221 1006.08 122.375 1012.86C316.46 1019.74 477.079 859.392 493.024 671.388C509.386 478.475 360.433 309.879 173.163 283.296C144.176 279.167 114.971 279.731 85.9297 282.724C74.8747 283.86 74.7664 301.266 85.9297 300.121C271.954 280.968 437.555 406.58 471.904 589.681C507.676 780.383 366.398 958.149 181.503 991.321C-13.8284 1026.36 -197.176 875.753 -220.122 683.899C-242.665 495.424 -99.4138 323.573 85.9375 300.121C96.9074 298.729 97.0389 281.316 85.9297 282.724Z" fill="#313332"/>
<path d="M45.7688 560.074C67.2444 538.903 97.1989 526.933 127.324 527.088C127.324 530.072 127.324 533.096 127.347 536.119C98.4211 536.274 69.7431 548.228 49.8147 569.252C30.4587 588.923 19.9453 616.265 19.4733 643.737C17.1989 643.737 12.6114 643.768 10.3369 643.799C10.5303 612.638 23.1636 581.662 45.7688 560.074Z" fill="#313332"/>
<path d="M53.9782 568.27C74.7035 549.202 99.2193 539.475 127.325 538.686C123.457 534.82 119.589 530.954 115.721 527.087C115.728 530.095 115.736 533.111 115.744 536.119C119.612 532.253 123.48 528.386 127.348 524.52C60.3759 527.134 11.2124 577.193 7.8704 643.737C11.7385 639.871 15.6066 636.005 19.4747 632.139C16.4266 632.139 13.3863 632.162 10.3382 632.201C14.2063 636.067 18.0744 639.933 21.9425 643.799C23.0101 614.64 33.4928 589.186 53.9782 568.27C64.453 557.584 48.0523 541.168 37.5698 551.869C12.814 577.139 0.0259147 608.547 -1.26603 643.799C-1.49038 650.078 4.18798 655.452 10.3382 655.397C13.3863 655.367 16.4266 655.343 19.4747 655.336C26.0427 655.312 30.7618 650.07 31.079 643.737C33.7789 590.059 73.4423 549.82 127.348 547.717C133.653 547.47 138.968 542.629 138.952 536.119C138.945 533.111 138.937 530.095 138.929 527.087C138.914 520.902 133.661 515.311 127.325 515.489C93.0072 516.455 62.8206 528.626 37.562 551.869C26.5379 562.022 42.9929 578.391 53.9782 568.27Z" fill="#313332"/>
<path d="M339.08 1003.31C358.846 993.246 377.745 981.199 393.875 965.85C400.242 972.268 406.64 978.67 413.015 985.15C394.579 1002.66 373.243 1017.08 350.205 1027.77C346.545 1019.58 342.832 1011.42 339.08 1003.31Z" fill="#313332"/>
<path d="M340.55 1005.8C352.719 999.493 364.401 992.573 375.611 984.67C379.989 981.577 384.151 978.16 388.298 974.75C396.684 967.829 400.893 977.015 407.143 983.325C411.483 987.694 376.036 1010.36 371.178 1013.35C365.407 1016.91 359.388 1020.02 353.33 1023.08C350.367 1024.57 342.662 1004.16 341.595 1001.84C340.032 998.449 335.027 1001.39 336.582 1004.77C340.326 1012.91 344.039 1021.06 347.706 1029.24C348.395 1030.76 350.375 1030.9 351.683 1030.28C375.038 1019.13 396.127 1004.81 415.081 987.207C416.241 986.124 416.156 984.199 415.081 983.108C408.721 976.66 402.331 970.234 395.941 963.808C394.796 962.656 392.994 962.734 391.833 963.808C375.557 978.848 357.253 990.632 337.626 1000.81C334.292 1002.52 337.232 1007.53 340.55 1005.8Z" fill="#313332"/>
<path d="M58.1729 191.49C126.213 182.381 196.132 187.747 262.23 206.073C260.714 210.805 259.167 215.553 257.674 220.324C341.364 246.041 417.008 297.152 471.927 365.328C516.627 420.328 547.703 486.261 561.714 555.744C565.187 555.172 568.707 554.622 572.258 554.058C589.138 652.606 572.366 756.15 526.003 844.646C502.501 889.71 472.902 932.014 436.055 967.219C430.137 960.36 424.125 953.641 418.107 946.953C477.807 887.708 520.348 811.328 540.021 729.62C553.173 674.319 555.068 616.357 545.615 560.298C546.558 559.378 548.461 557.538 549.382 556.61C532.332 473.743 490.146 396.272 429.649 337.12C380.579 288.592 319.633 252.088 253.573 231.999C252.537 235.556 251.531 239.128 250.556 242.708C238.844 237.922 226.613 234.257 214.034 232.68C214.034 229.053 214.034 225.442 214.065 221.847C163.942 210.658 112.179 214.014 61.4762 218.514C60.3932 209.506 59.225 200.49 58.1729 191.49Z" fill="#019EFF"/>
<path d="M92.3506 384.829C148.198 377.382 206.436 388.215 255.453 416.044C300.237 441.189 337.271 479.836 360.417 525.657C381.815 567.574 391.277 615.429 387.834 662.357C384.446 712.362 366.041 761.176 335.669 801.051C304.879 841.87 261.796 873.294 213.484 890.074C158.526 909.358 97.0929 909.435 42.0344 890.468C-5.41161 874.246 -47.891 843.95 -78.712 804.415C-114.585 758.91 -134.621 701.096 -134.018 643.134C-134.505 580.054 -110.369 517.345 -68.3533 470.333C-27.3129 423.854 30.8092 392.793 92.3506 384.829ZM84.1346 398.484C-8.01107 413.631 -87.6086 485.31 -112.388 575.26C-127.922 629.51 -124.402 689.072 -102.052 740.964C-77.8223 798.245 -31.1886 845.589 25.6878 870.82C77.9844 894.334 138.497 898.772 193.726 883.385C242.874 869.9 287.442 840.703 319.763 801.307C349.772 764.972 369.051 719.909 374.551 673.074C380.407 624.716 371.627 574.641 349.447 531.263C325.999 484.869 287.612 446.161 241.334 422.431C193.416 397.51 137.275 389.12 84.1346 398.484Z" fill="#019EFF"/>
<path d="M110.297 570.18C148.142 560.994 189.972 584.678 201.499 621.832C214.263 657.686 196.176 700.786 161.696 716.862C128.074 734.074 83.1581 722.422 62.4715 690.734C39.6111 658.761 46.5273 610.318 77.5184 586.085C86.9875 578.299 98.3442 572.832 110.297 570.18Z" fill="#019EFF"/>
<path d="M-89.3188 858.642C-36.9371 911.662 35.6052 943.999 110.027 947.865C121.84 949.373 133.375 945.738 145.165 945.808C239.91 941.23 330.331 888.403 381.815 808.938C414.183 759.83 431.427 701.188 431.404 642.454L425.3 642.392C425.811 732.597 382.442 821.542 311.106 876.758C259.305 917.686 193.555 940.442 127.534 940.279C127.426 939.251 127.263 937.217 127.155 936.189C55.2009 936.328 -16.3435 908.933 -69.5607 860.497C-130.831 805.845 -167.3 724.556 -166.596 642.423C-170.657 642.423 -174.726 642.423 -178.765 642.423C-179.492 722.599 -146.358 802.327 -89.3188 858.642Z" fill="#FFD701"/>
<path d="M-24.8626 1260.64C129.645 1300.41 299.322 1279.21 438.388 1200.7C535.848 1146.21 618.486 1065.61 675.146 969.399C730.29 876.519 760.624 769.264 763.006 661.305C762.581 655.862 764.987 649.111 760.515 644.797C759.316 707.467 751.34 770.23 732.758 830.264C687.803 980.17 584.378 1111.31 449.373 1190.55C446.333 1185.16 443.301 1179.8 440.005 1174.58C395.506 1199.86 348.695 1221.42 299.376 1235.42C146.834 1280.09 -22.1162 1258.03 -161.515 1183.24C-164.269 1188.79 -167.139 1194.3 -170.094 1199.74C-211.723 1176.48 -250.945 1148.82 -286.477 1116.99C-283.584 1113.57 -280.683 1110.1 -277.735 1106.67C-296.604 1092.92 -312.185 1075.32 -327.085 1057.51C-351.469 1027.84 -373.687 996.462 -394.668 964.319C-398.428 967.11 -402.187 969.948 -405.924 972.747C-462.127 879.928 -493.567 772.434 -496.298 663.98C-496.492 657.516 -496.522 650.99 -497.172 644.518C-498.727 645.964 -499.594 647.696 -499.694 649.73C-499.47 753.188 -473.299 856.53 -424.089 947.578C-342.387 1101.35 -193.813 1217.95 -24.8626 1260.64Z" fill="#FFD701"/>
<path d="M-28.4518 1273.68C164.62 1321.2 374.371 1280.52 530.403 1155.23C607.323 1093.45 668.617 1017.08 712.327 928.65C734.785 883.207 750.505 834.656 761.761 785.339C770.921 745.201 787.561 680.814 773.574 641.193C768.554 626.966 747.41 629.061 746.977 644.789C740.896 865.121 633.186 1064.46 442.543 1178.86C448.716 1180.48 454.89 1182.09 461.063 1183.72C458.069 1178.31 454.951 1172.98 451.695 1167.74C447.834 1161.33 439.68 1159.25 433.174 1162.88C248.016 1266.13 33.7239 1270.07 -154.683 1171.54C-160.911 1168.28 -169.746 1169.6 -173.204 1176.4C-175.958 1181.95 -178.828 1187.45 -181.783 1192.9C-175.61 1191.28 -169.436 1189.66 -163.263 1188.05C-203.893 1164.83 -241.7 1138.28 -276.9 1107.41C-276.9 1113.79 -276.9 1120.16 -276.9 1126.55C-273.983 1123.11 -271.074 1119.67 -268.158 1116.23C-263.849 1111.15 -262.007 1101.9 -268.158 1097.09C-315.681 1059.9 -350.084 1007.33 -382.97 957.476C-386.676 951.87 -395.356 948.019 -401.499 952.62C-405.251 955.427 -409.003 958.241 -412.755 961.048C-406.581 962.672 -400.408 964.288 -394.227 965.904C-453.965 864.734 -476.385 760.395 -483.626 644.511C-484.4 632.147 -502.556 624.669 -508.854 637.683C-521.27 663.339 -511.113 703.145 -507.802 730.455C-502.773 771.931 -492.817 812.51 -479.998 852.224C-457.694 921.319 -421.984 987.717 -376.975 1044.66C-288.419 1156.69 -166.713 1237.32 -28.4518 1273.68C-11.5482 1278.13 -4.38452 1252.02 -21.2571 1247.58C-144.007 1215.3 -251.803 1147.31 -335.764 1052.4C-382.839 999.184 -418.758 936.289 -444.783 870.433C-458.019 836.937 -467.272 801.994 -474.621 766.797C-478.977 745.958 -481.576 724.795 -483.688 703.632C-484.957 690.928 -491.176 663.138 -485.467 651.346C-493.876 649.073 -502.286 646.792 -510.695 644.518C-503.175 764.903 -479.65 874.5 -417.598 979.575C-414.17 985.382 -405.011 988.869 -399.069 984.431C-395.317 981.624 -391.565 978.809 -387.813 976.002C-393.987 974.386 -400.16 972.763 -406.341 971.147C-372.411 1022.57 -336.321 1077.86 -287.289 1116.24C-287.289 1109.86 -287.289 1103.49 -287.289 1097.1C-290.206 1100.54 -293.115 1103.98 -296.031 1107.42C-300.549 1112.75 -301.911 1121.41 -296.031 1126.56C-259.114 1158.94 -219.559 1187.05 -176.909 1211.42C-170.705 1214.97 -161.878 1213.12 -158.389 1206.56C-155.418 1201.12 -152.564 1195.62 -149.809 1190.06C-155.983 1191.69 -162.156 1193.3 -168.33 1194.92C28.7728 1298 253.084 1294.31 446.852 1186.26C440.678 1184.64 434.505 1183.03 428.331 1181.4C431.581 1186.66 434.706 1191.98 437.7 1197.38C441.32 1203.73 449.946 1206 456.22 1202.23C655.071 1082.92 767.726 874.624 774.069 644.804C765.204 646.003 756.338 647.201 747.472 648.4C754.311 667.754 747.913 695.281 745.979 715.169C743.473 740.848 738.39 766.194 732.65 791.308C721.889 838.452 704.366 883.826 682.976 927.103C641.34 1011.33 578.351 1084.33 504.192 1141.55C355.959 1255.93 159.367 1292.05 -21.2494 1247.59C-38.2148 1243.41 -45.4095 1269.51 -28.4518 1273.68Z" fill="#FFD701"/>
</svg>
