<svg width="907" height="1080" viewBox="0 0 907 1080" fill="none" xmlns="http://www.w3.org/2000/svg">
<path d="M490.138 -180.68C644.646 -220.455 814.323 -199.261 953.389 -120.755C1050.85 -66.2572 1133.49 14.329 1190.15 110.55C1245.29 203.423 1275.62 310.678 1278.01 418.636C1277.58 424.088 1279.99 430.845 1275.52 435.145C1274.32 372.49 1266.34 309.719 1247.76 249.685C1202.8 99.7787 1099.38 -31.3613 964.374 -110.587C961.334 -105.197 958.301 -99.8311 955.006 -94.6118C910.507 -119.896 863.696 -141.446 814.377 -155.457C661.835 -200.135 492.885 -178.067 353.486 -103.264C350.732 -108.816 347.862 -114.321 344.907 -119.773C303.278 -96.5139 264.056 -68.8553 228.524 -37.0291C231.417 -33.5959 234.318 -30.1319 237.266 -26.7065C218.397 -12.943 202.816 4.64034 187.916 22.4556C163.532 52.1245 141.314 83.5022 120.333 115.638C116.573 112.854 112.814 110.024 109.077 107.209C52.8736 200.028 21.4337 307.531 18.7028 415.976C18.5094 422.441 18.4785 428.967 17.8287 435.439C16.2737 433.993 15.4072 432.261 15.3066 430.212C15.531 326.761 41.7025 223.426 90.9124 132.37C172.614 -21.3944 321.188 -138.013 490.138 -180.68Z" fill="#FFD701"/>
<path d="M493.736 -167.628C676.991 -212.73 867.742 -173.814 1019.18 -61.6022C1091.18 -8.24925 1148.75 62.7565 1191.73 140.892C1215.05 183.311 1231.64 228.97 1244.36 275.558C1250.3 297.262 1254.37 319.423 1257.98 341.615C1261.97 366.196 1271.09 407.138 1262.47 431.549C1271.33 432.748 1280.2 433.946 1289.06 435.145C1282.72 205.325 1170.07 -2.97594 971.214 -122.278C964.94 -126.036 956.314 -123.77 952.693 -117.422C949.699 -112.017 946.582 -106.697 943.325 -101.447C949.498 -103.063 955.672 -104.679 961.845 -106.303C768.077 -214.354 543.766 -218.05 346.664 -114.963C352.837 -113.347 359.01 -111.731 365.184 -110.107C362.43 -115.659 359.56 -121.164 356.605 -126.615C353.123 -133.172 344.289 -135.013 338.084 -131.472C295.45 -107.115 255.864 -78.9691 218.962 -46.6093C213.083 -41.4519 214.452 -32.8071 218.962 -27.4718C221.871 -24.0309 224.788 -20.5824 227.704 -17.1492C227.704 -23.5284 227.704 -29.9076 227.704 -36.2867C178.672 2.10422 142.591 57.3672 108.652 108.803C114.825 107.186 120.999 105.57 127.18 103.947C123.428 101.14 119.676 98.3253 115.924 95.5185C109.99 91.0801 100.831 94.5674 97.3958 100.374C35.3439 205.449 11.818 315.054 4.29844 435.431C12.7077 433.158 21.1169 430.877 29.5262 428.603C25.2326 419.727 29.7196 399.251 30.2534 389.764C31.4526 368.508 34.4387 347.399 37.8967 326.413C43.7608 290.875 53.756 256.149 65.5304 222.174C88.9556 154.562 126.422 91.5362 171.717 36.3661C253.969 -63.8215 368.781 -134.781 493.736 -167.628C510.617 -172.066 503.445 -198.17 486.542 -193.724C348.273 -157.375 226.575 -76.7422 138.011 35.299C92.522 92.8429 58.9392 158.614 34.988 227.741C21.7204 266.031 13.3962 305.86 7.67146 345.898C3.68732 373.727 -6.51675 416.077 6.13192 442.274C12.4214 455.295 30.5938 447.795 31.3596 435.446C38.6007 319.554 61.0202 215.215 120.759 114.053C114.586 115.669 108.412 117.285 102.231 118.909C105.983 121.716 109.735 124.53 113.487 127.337C119.622 131.93 128.31 128.087 132.015 122.481C164.902 72.6231 199.312 20.0743 246.828 -17.1336C252.978 -21.9509 251.137 -31.1833 246.828 -36.2712C243.919 -39.712 241.003 -43.1606 238.086 -46.5937C238.086 -40.2146 238.086 -33.8356 238.086 -27.4565C273.324 -58.347 311.077 -84.8534 351.723 -108.081C345.55 -109.697 339.376 -111.321 333.203 -112.937C336.165 -107.486 339.02 -101.98 341.782 -96.4286C345.232 -89.6396 354.075 -88.3174 360.302 -91.5727C548.71 -190.113 763.01 -186.162 948.16 -82.9126C954.666 -79.2861 962.82 -81.3661 966.68 -87.7684C969.937 -93.0187 973.063 -98.3386 976.049 -103.743C969.875 -102.127 963.702 -100.511 957.528 -98.8874C1148.17 15.489 1255.87 214.843 1261.96 435.16C1262.4 450.896 1283.52 452.983 1288.56 438.756C1301.69 401.617 1286.46 345.844 1279.46 307.832C1270.27 257.92 1253.48 209.841 1233.03 163.524C1191.72 69.9862 1124.77 -11.5201 1045.39 -75.273C889.365 -200.575 679.606 -241.247 486.534 -193.724C469.592 -189.557 476.786 -163.46 493.736 -167.628Z" fill="#FFD701"/>
<path d="M364.819 143.544C441.16 69.244 548.252 28.5411 654.516 30.0566C654.516 32.3608 654.493 36.9152 654.493 39.1885C550.797 37.8121 446.196 77.3939 371.697 149.915C369.399 147.789 367.094 145.686 364.819 143.544Z" fill="#FFD701"/>
<path d="M369.609 148.322C411.106 109.228 458.367 80.4556 511.754 60.6068C534.8 52.0394 558.867 46.5571 583.004 42.1651C598.562 39.3351 614.251 38.1831 629.994 37.2166C661.171 35.299 626.335 33.0797 617.183 33.6751C574.92 36.4201 531.884 46.7893 492.94 63.29C469.839 73.0791 447.985 84.3915 426.695 97.6524C422.324 100.382 371.76 140.745 369.609 138.75C363.212 132.827 353.619 142.376 360.032 148.315C362.33 150.441 364.627 152.559 366.917 154.686C369.687 157.253 373.733 157.284 376.495 154.686C452.348 83.3243 550.605 46.2015 654.502 45.9386C658.2 45.9308 661.264 42.8688 661.271 39.1728C661.279 36.1263 661.287 33.0875 661.295 30.0409C661.302 26.3526 658.216 23.2751 654.525 23.2751C544.548 23.3834 440.241 63.1972 360.04 138.742C353.673 144.75 363.258 154.307 369.609 148.322Z" fill="#FFD701"/>
<path d="M425.682 214.565C478.064 161.529 550.606 129.208 625.028 125.326C636.841 123.818 648.376 127.468 660.166 127.391C754.911 131.976 845.332 184.788 896.816 264.253C929.184 313.368 946.428 372.01 946.405 430.737L940.301 430.799C940.812 340.594 897.443 251.657 826.107 196.425C774.306 155.513 708.556 132.757 642.535 132.919C642.427 133.94 642.264 135.974 642.156 137.002C570.202 136.863 498.657 164.258 445.44 212.686C384.17 267.338 347.701 348.636 348.405 430.76C344.344 430.76 340.275 430.76 336.236 430.76C335.509 350.592 368.643 270.864 425.682 214.565Z" fill="#FFD701"/>
<path d="M427.739 216.614C602.407 47.1684 894.804 144.163 939.449 381.413C938.56 376.689 945.522 427.846 943.356 427.869C943.874 427.869 941.391 397.55 941.205 395.64C939.256 375.9 934.196 356.631 928.387 337.733C916.713 299.767 895.608 265.351 870.559 234.847C815.121 167.321 728.568 131.675 642.542 130.028C640.848 129.997 639.788 131.381 639.641 132.927C639.742 131.86 570.619 142.987 566.147 144.078C541.229 150.14 517.688 160.965 495.245 173.089C447.087 199.101 409.165 241.041 382.119 287.953C369.71 309.479 361.37 333.202 354.686 357.01C351.336 368.925 348.931 381.653 347.67 393.955C346.656 403.79 338.286 437.449 339.933 406.752C343.778 335.112 378.359 267.423 427.739 216.614C430.346 213.931 426.246 209.825 423.631 212.516C365.958 271.862 334.325 348.009 333.342 430.768C333.319 432.353 334.68 433.668 336.243 433.668C340.297 433.668 344.358 433.668 348.412 433.668C350.014 433.668 351.29 432.353 351.313 430.768C353.557 270.122 481.923 143.196 642.163 139.91C643.857 139.879 644.909 138.611 645.064 137.01C646.093 125.868 739.484 152.297 750.485 156.349C788.191 170.274 821.674 194.183 850.514 221.741C906.965 275.681 936.216 353.762 937.399 430.799C937.422 432.369 938.699 433.714 940.3 433.699C942.335 433.683 944.37 433.66 946.404 433.637C947.959 433.622 949.336 432.33 949.305 430.737C946.83 310.338 877.39 195.799 763.869 148.956C645.791 100.235 515.645 123.247 423.631 212.516C420.947 215.122 425.047 219.22 427.739 216.614Z" fill="#FFD701"/>
<path d="M642.022 268.019C687.573 268.204 732.737 287.829 763.016 321.998C789.838 351.45 804.769 391.016 804.792 430.761C798.812 430.761 792.808 430.761 786.852 430.761C786.766 390.529 769.36 350.661 739.297 323.807C713.025 299.535 677.547 286.391 641.891 285.927C641.953 279.973 641.968 273.98 642.022 268.019Z" fill="#FFD701"/>
<path d="M642.024 274.785C728.901 277.777 795.27 343.788 798.024 430.769C800.283 428.511 802.534 426.261 804.793 424.003C798.813 424.003 792.833 424.003 786.853 424.003C789.112 426.261 791.363 428.511 793.622 430.769C790.412 345.659 726.549 283.282 641.892 279.169C644.151 281.426 646.403 283.677 648.662 285.934C648.708 279.965 648.754 273.996 648.801 268.027C648.863 259.297 635.324 259.304 635.263 268.027C635.216 273.996 635.17 279.965 635.123 285.934C635.092 289.762 638.225 292.522 641.892 292.7C719.092 296.45 777.152 353.183 780.084 430.769C780.223 434.457 783.062 437.534 786.853 437.534C792.833 437.534 798.813 437.534 804.793 437.534C808.398 437.534 811.678 434.457 811.562 430.769C808.561 336.21 736.475 264.508 642.024 261.253C633.29 260.951 633.321 274.491 642.024 274.785Z" fill="#FFD701"/>
<path d="M641.993 -112.937C751.367 -112.968 860.54 -79.5259 950.489 -17.2034C1034.64 40.6034 1102.09 122.458 1142.26 216.312C1181.77 307.824 1194.89 410.332 1180.55 508.919C1166.52 607.529 1124.24 701.817 1060.37 778.189C997.254 854.035 913.216 912.29 819.871 944.302C714.93 980.621 598.778 983.582 492.042 953.016C394.226 925.18 304.764 868.974 236.988 793.228C190.981 742.094 154.945 682.122 131.195 617.635C137.787 615.083 144.37 612.532 150.938 609.964C189.209 715.41 262.935 807.425 357.038 868.448C434.872 919.358 526.615 948.671 619.573 952.444C720.159 957.006 821.929 931.675 908.473 880.147C907.661 878.755 906.006 875.948 905.193 874.526C981.782 829.392 1046.6 764.441 1091.12 687.496C1136.9 608.712 1161.68 517.826 1161.9 426.701C1156.45 426.16 1150.98 425.642 1145.54 425.131C1149.39 330.503 1122.8 234.584 1070.31 155.676C1044.1 116.21 1011.02 81.5382 973.643 52.4801C977.705 47.2763 981.782 42.0723 985.866 36.8994C891.771 -45.7436 767.218 -92.2147 641.97 -91.9441C641.97 -98.9573 641.969 -105.947 641.993 -112.937Z" fill="#FF009D"/>
<path d="M438.213 430.475C445.206 430.421 452.2 430.421 459.201 430.421C459.487 477.348 477.954 524.067 511.057 557.547C544.864 592.884 593.416 613.297 642.332 613.166C642.301 620.156 642.301 627.154 642.301 634.128C593.014 634.321 543.943 615.903 507.15 583.087C463.642 545.184 438.236 488.111 438.213 430.475Z" fill="#FF009D"/>
<path d="M604.803 71.8416C670.762 65.0913 738.593 76.4191 798.486 105.005C877.597 142.376 942.194 209.245 976.628 289.645C1015.9 379.796 1016.07 486.015 977.169 576.305C939.803 664.485 866.093 736.403 776.972 771.516C679.512 810.718 565.155 804.803 472.414 755.432C383.734 709.069 315.88 624.679 290.451 527.863C268.983 448.088 275.628 360.991 309.49 285.617C343.049 210.01 403.291 146.629 477.164 109.343C516.889 89.0769 560.421 76.3031 604.803 71.8416ZM600.927 78.4219C496.875 89.7497 399.848 150.023 342.809 237.622C297.692 305.744 277.415 389.694 286.173 470.899C294.11 549.428 329.364 624.741 384.26 681.403C446.699 746.764 534.698 786.833 625.033 790.715C723.747 796.035 823.706 757.729 893.626 687.898C958.254 624.787 997.183 536.368 999.921 446.086C1004.26 341.97 959.639 237.383 881.821 168.093C806.803 99.7011 701.722 66.2048 600.927 78.4219Z" fill="#313332"/>
<path d="M604.804 80.5408C803.918 63.8235 977.998 206.508 996.503 406.164C1014.2 597.16 865.908 764.657 679.489 786.648C495.685 808.321 330.278 676.98 292.997 500.135C250.2 297.146 404.475 104.472 604.804 80.5408C615.805 79.2263 615.929 61.8131 604.804 63.1431C408.049 86.6493 264.18 252.461 269.788 450.694C275.15 639.966 432.627 789.083 616.648 805.004C809.666 821.714 980.342 675.496 1010.83 488.629C1042.94 291.857 903.847 107.611 712.763 67.9602C677.308 60.5991 640.739 60.1275 604.804 63.1431C593.703 64.0787 593.61 81.4841 604.804 80.5408Z" fill="#313332"/>
<path d="M600.93 69.7236C411.733 93.6628 272.892 254.727 275.662 445.189C278.524 641.575 446.678 793.082 637.375 799.855C831.46 806.745 992.079 646.392 1008.02 458.388C1024.39 265.475 875.433 96.8793 688.163 70.2956C659.176 66.1665 629.971 66.7312 600.93 69.7236C589.875 70.8603 589.766 88.2657 600.93 87.1213C786.954 67.9684 952.555 193.58 986.904 376.681C1022.68 567.383 881.398 745.149 696.503 778.321C501.172 813.363 317.824 662.753 294.878 470.899C272.335 282.424 415.586 110.573 600.938 87.1213C611.907 85.7295 612.039 68.3163 600.93 69.7236Z" fill="#313332"/>
<path d="M194.864 398.014C197.409 295.344 244.855 196.835 315.642 123.656C321.954 130.19 328.19 136.77 334.456 143.358C268.985 211.719 224.339 303.115 221.949 398.671C212.897 398.439 203.861 398.254 194.864 398.014Z" fill="#313332"/>
<path d="M197.764 398.014C200.201 340.246 214.861 286.522 240.105 234.623C250.858 212.516 264.396 191.863 278.646 171.898C288.03 158.761 298.59 146.629 309.312 134.605C313.884 134.914 318.449 135.224 323.013 135.533C327.191 145.809 324.793 153.843 315.803 159.642C288.432 190.78 265.123 227.447 249.225 265.706C239.64 288.772 232.098 312.015 226.481 336.357C220.718 361.27 228.438 395.942 194.863 395.115C191.119 395.022 191.127 400.821 194.863 400.914C203.892 401.146 212.92 401.362 221.948 401.563C223.58 401.602 224.779 400.218 224.849 398.664C229.111 302.187 271.235 215.524 336.513 145.407C337.611 144.232 337.635 142.484 336.513 141.309C330.262 134.713 323.996 128.149 317.698 121.607C316.623 120.486 314.658 120.478 313.591 121.607C241.984 197.67 196.411 292.916 191.962 398.022C191.8 401.756 197.602 401.741 197.764 398.014Z" fill="#313332"/>
<path d="M167.501 266.016C171.462 267.4 175.392 268.807 179.345 270.245C152.237 349.618 149.475 435.702 160.291 518.345C156.167 518.994 152.067 519.644 147.975 520.324C137.221 435.539 140.231 347.584 167.501 266.016Z" fill="#313332"/>
<path d="M166.734 268.815C179.568 273.393 157.172 350.646 155.238 365.299C149.761 406.821 150.898 449.063 154.31 490.686C159.988 501.017 158.294 506.174 149.227 506.166C148.198 496.694 147.363 487.214 146.705 477.711C144.833 453.927 144.918 430.057 145.622 406.234C147.03 358.742 155.996 311.977 170.308 266.781C171.438 263.209 165.837 261.686 164.707 265.243C138.373 348.419 134.946 434.039 145.08 520.316C145.313 522.319 146.744 523.433 148.755 523.116C152.863 522.458 156.971 521.793 161.071 521.136C162.216 520.95 163.338 519.504 163.199 518.337C153.049 434.727 156.097 351.636 182.152 271.011C182.663 269.426 181.557 267.957 180.125 267.446C176.18 266.039 172.227 264.632 168.281 263.217C164.738 261.964 163.237 267.57 166.734 268.815Z" fill="#313332"/>
<path d="M560.77 347.074C582.245 325.903 612.2 313.933 642.325 314.088C642.325 317.072 642.325 320.096 642.348 323.119C613.422 323.274 584.744 335.228 564.816 356.252C545.46 375.923 534.946 403.265 534.474 430.737C532.2 430.737 527.612 430.768 525.338 430.799C525.531 399.638 538.165 368.662 560.77 347.074Z" fill="#313332"/>
<path d="M568.979 355.27C589.704 336.202 614.22 326.475 642.326 325.686C638.458 321.82 634.59 317.954 630.722 314.087C630.729 317.095 630.737 320.111 630.745 323.119C634.613 319.253 638.481 315.386 642.349 311.52C575.377 314.134 526.213 364.193 522.871 430.737C526.739 426.871 530.608 423.005 534.476 419.139C531.428 419.139 528.387 419.162 525.339 419.201C529.207 423.067 533.075 426.933 536.944 430.799C538.011 401.64 548.494 376.186 568.979 355.27C579.454 344.584 563.053 328.168 552.571 338.869C527.815 364.139 515.027 395.547 513.735 430.799C513.511 437.078 519.189 442.452 525.339 442.397C528.387 442.367 531.428 442.343 534.476 442.336C541.044 442.312 545.763 437.07 546.08 430.737C548.78 377.059 588.443 336.82 642.349 334.717C648.654 334.47 653.969 329.629 653.953 323.119C653.946 320.111 653.938 317.095 653.93 314.087C653.915 307.902 648.662 302.311 642.326 302.489C608.008 303.455 577.822 315.626 552.563 338.869C541.539 349.022 557.994 365.391 568.979 355.27Z" fill="#313332"/>
<path d="M854.08 790.305C873.846 780.246 892.745 768.199 908.875 752.85C915.242 759.268 921.64 765.67 928.015 772.15C909.579 789.656 888.243 804.077 865.205 814.77C861.545 806.582 857.832 798.424 854.08 790.305Z" fill="#313332"/>
<path d="M855.55 792.803C867.719 786.493 879.401 779.573 890.611 771.67C894.989 768.577 899.151 765.16 903.298 761.75C911.684 754.829 915.893 764.016 922.143 770.325C926.483 774.694 891.036 797.357 886.178 800.35C880.407 803.914 874.388 807.023 868.33 810.077C865.367 811.569 857.662 791.156 856.595 788.844C855.032 785.449 850.027 788.388 851.582 791.775C855.326 799.909 859.039 808.059 862.706 816.24C863.395 817.763 865.375 817.902 866.683 817.276C890.038 806.133 911.127 791.805 930.081 774.207C931.241 773.124 931.156 771.199 930.081 770.108C923.721 763.66 917.331 757.234 910.941 750.809C909.796 749.656 907.994 749.734 906.833 750.809C890.557 765.848 872.253 777.632 852.626 787.808C849.292 789.517 852.232 794.527 855.55 792.803Z" fill="#313332"/>
<path d="M400.569 764.541C418.595 777.454 438.005 788.659 459.055 795.927C456.285 804.533 453.547 813.162 450.731 821.784C426.695 813.495 404.066 801.185 383.952 785.674C389.545 778.661 395.069 771.609 400.569 764.541Z" fill="#313332"/>
<path d="M399.108 767.039C408.909 773.951 418.943 780.315 429.472 786.06C435.468 789.339 441.711 792.122 448 794.798C454.932 797.752 455.311 798.1 452.951 805.484C450.507 813.108 451.017 818.915 441.974 815.451C434.284 812.513 426.896 808.879 419.578 805.121C407.509 798.927 396.222 791.318 385.422 783.161C385.616 784.676 385.817 786.199 386.01 787.715C391.588 780.702 397.119 773.658 402.628 766.59C404.894 763.683 400.825 759.546 398.52 762.492C393.012 769.56 387.48 776.604 381.903 783.617C380.649 785.194 380.889 786.965 382.49 788.171C403.154 803.767 425.596 815.869 449.965 824.583C451.505 825.132 453.068 823.972 453.532 822.549C456.332 813.943 459.094 805.314 461.856 796.692C462.366 795.092 461.268 793.638 459.829 793.12C438.98 785.581 420.111 774.763 402.04 762.028C398.968 759.871 396.075 764.905 399.108 767.039Z" fill="#313332"/>
<path d="M573.174 -21.5103C641.214 -30.619 711.133 -25.2529 777.231 -6.9273C775.715 -2.19512 774.168 2.55266 772.675 7.3235C856.365 33.0412 932.009 84.1517 986.928 152.328C1031.63 207.328 1062.7 273.261 1076.71 342.744C1080.19 342.172 1083.71 341.622 1087.26 341.058C1104.14 439.606 1087.37 543.15 1041 631.646C1017.5 676.71 987.903 719.014 951.056 754.219C945.138 747.36 939.126 740.641 933.108 733.953C992.808 674.708 1035.35 598.328 1055.02 516.62C1068.17 461.319 1070.07 403.357 1060.62 347.298C1061.56 346.378 1063.46 344.538 1064.38 343.61C1047.33 260.743 1005.15 183.272 944.65 124.12C895.579 75.592 834.634 39.0877 768.574 18.9991C767.538 22.556 766.532 26.1284 765.557 29.7085C753.845 24.9222 741.614 21.2571 729.035 19.6797C729.035 16.0532 729.035 12.4422 729.066 8.8467C678.943 -2.34197 627.18 1.01386 576.477 5.51407C575.394 -3.49408 574.226 -12.5099 573.174 -21.5103Z" fill="#019EFF"/>
<path d="M246.968 50.3229C254.264 57.5372 261.311 65.0065 268.815 72.0352C204.504 140.884 157.53 226.573 138.283 319.052C118.455 414.407 124.613 515.584 157.801 607.282C156.084 607.931 152.672 609.292 150.939 609.973C144.371 612.54 137.788 615.091 131.196 617.643C129.842 618.153 127.127 619.182 125.781 619.7C93.8074 520.958 84.0365 413.92 106.154 312.015C127.413 214.07 175.587 121.128 246.968 50.3229Z" fill="#019EFF"/>
<path d="M607.351 171.829C663.198 164.382 721.436 175.215 770.453 203.044C815.237 228.189 852.271 266.836 875.417 312.657C896.815 354.574 906.277 402.429 902.834 449.357C899.446 499.362 881.041 548.176 850.669 588.051C819.879 628.87 776.796 660.294 728.484 677.074C673.526 696.358 612.093 696.435 557.034 677.468C509.588 661.246 467.109 630.95 436.288 591.415C400.415 545.91 380.379 488.096 380.982 430.134C380.495 367.054 404.631 304.345 446.647 257.333C487.687 210.854 545.809 179.793 607.351 171.829ZM599.135 185.484C506.989 200.631 427.391 272.31 402.612 362.26C387.078 416.51 390.598 476.072 412.948 527.964C437.178 585.245 483.811 632.589 540.688 657.82C592.984 681.334 653.497 685.772 708.726 670.385C757.874 656.9 802.442 627.703 834.763 588.307C864.772 551.972 884.051 506.909 889.551 460.074C895.407 411.716 886.627 361.641 864.447 318.263C840.999 271.869 802.612 233.161 756.334 209.431C708.416 184.51 652.275 176.12 599.135 185.484Z" fill="#019EFF"/>
<path d="M625.297 357.18C663.142 347.994 704.972 371.678 716.499 408.832C729.263 444.686 711.176 487.787 676.696 503.862C643.074 521.074 598.158 509.422 577.471 477.735C554.611 445.761 561.527 397.318 592.518 373.085C601.988 365.299 613.344 359.832 625.297 357.18Z" fill="#019EFF"/>
<path d="M425.681 645.642C478.063 698.662 550.605 730.999 625.027 734.865C636.84 736.373 648.375 732.738 660.165 732.808C754.91 728.23 845.331 675.403 896.815 595.938C929.183 546.83 946.427 488.188 946.404 429.454L940.3 429.392C940.811 519.597 897.442 608.542 826.106 663.758C774.305 704.686 708.555 727.442 642.534 727.279C642.426 726.251 642.263 724.217 642.155 723.189C570.201 723.328 498.657 695.933 445.439 647.497C384.169 592.845 347.7 511.556 348.404 429.423C344.343 429.423 340.274 429.423 336.235 429.423C335.508 509.599 368.642 589.327 425.681 645.642Z" fill="#FFD701"/>
<path d="M490.137 1047.64C644.645 1087.41 814.322 1066.21 953.388 987.696C1050.85 933.206 1133.49 852.612 1190.15 756.399C1245.29 663.519 1275.62 556.264 1278.01 448.305C1277.58 442.862 1279.99 436.111 1275.52 431.797C1274.32 494.467 1266.34 557.23 1247.76 617.264C1202.8 767.17 1099.38 898.31 964.373 977.551C961.333 972.162 958.301 966.795 955.005 961.576C910.506 986.861 863.695 1008.42 814.376 1022.42C661.834 1067.09 492.884 1045.03 353.485 970.236C350.731 975.788 347.861 981.301 344.906 986.737C303.277 963.478 264.055 935.82 228.523 903.993C231.416 900.568 234.317 897.104 237.265 893.671C218.396 879.923 202.815 862.324 187.915 844.509C163.531 814.84 141.313 783.462 120.332 751.319C116.572 754.11 112.813 756.948 109.076 759.747C52.8726 666.929 21.4327 559.434 18.7018 450.98C18.5084 444.516 18.4775 437.99 17.8277 431.518C16.2727 432.964 15.4062 434.696 15.3057 436.73C15.53 540.188 41.7015 643.531 90.9114 734.578C172.613 888.351 321.187 1004.95 490.137 1047.64Z" fill="#FFD701"/>
<path d="M486.548 1060.68C679.62 1108.2 889.371 1067.52 1045.4 942.23C1122.32 880.449 1183.62 804.076 1227.33 715.65C1249.78 670.207 1265.51 621.656 1276.76 572.339C1285.92 532.201 1302.56 467.814 1288.57 428.193C1283.55 413.966 1262.41 416.061 1261.98 431.789C1255.9 652.121 1148.19 851.46 957.543 965.86C963.716 967.476 969.89 969.092 976.063 970.716C973.069 965.311 969.951 959.983 966.695 954.741C962.834 948.331 954.68 946.25 948.174 949.885C763.016 1053.13 548.724 1057.07 360.317 958.545C354.089 955.282 345.254 956.604 341.796 963.401C339.042 968.953 336.172 974.45 333.217 979.902C339.39 978.278 345.564 976.662 351.737 975.046C311.107 951.826 273.3 925.281 238.1 894.413C238.1 900.792 238.1 907.164 238.1 913.551C241.017 910.11 243.926 906.669 246.842 903.228C251.151 898.148 252.993 888.9 246.842 884.09C199.319 846.898 164.916 794.334 132.03 744.476C128.324 738.87 119.644 735.019 113.501 739.62C109.749 742.427 105.997 745.241 102.245 748.048C108.419 749.672 114.592 751.288 120.773 752.904C61.0346 651.734 38.6151 547.395 31.374 431.511C30.6004 419.147 12.4437 411.669 6.14641 424.683C-6.27018 450.339 3.88733 490.145 7.19842 517.455C12.2269 558.931 22.1835 599.51 35.0024 639.224C57.3058 708.32 93.016 774.717 138.025 831.658C226.581 943.691 348.287 1024.32 486.548 1060.68C503.452 1065.13 510.615 1039.02 493.743 1034.58C370.993 1002.3 263.197 934.312 179.236 839.398C132.161 786.184 96.242 723.289 70.2175 657.433C56.9809 623.937 47.7283 588.994 40.3789 553.797C36.0235 532.958 33.4241 511.795 31.3122 490.632C30.0434 477.928 23.8236 450.138 29.5329 438.346C21.1236 436.073 12.7144 433.792 4.30514 431.518C11.8247 551.903 35.3504 661.5 97.4024 766.575C100.83 772.382 109.989 775.869 115.931 771.431C119.683 768.624 123.435 765.809 127.187 763.002C121.013 761.386 114.84 759.763 108.659 758.147C142.589 809.574 178.679 864.86 227.711 903.236C227.711 896.857 227.711 890.485 227.711 884.098C224.794 887.539 221.885 890.98 218.969 894.421C214.451 899.748 213.089 908.409 218.969 913.558C255.886 945.941 295.441 974.048 338.091 998.42C344.295 1001.97 353.122 1000.12 356.611 993.565C359.582 988.121 362.436 982.623 365.191 977.064C359.017 978.688 352.844 980.304 346.67 981.92C543.773 1085 768.084 1081.31 961.852 973.26C955.678 971.644 949.505 970.028 943.331 968.404C946.581 973.662 949.706 978.981 952.7 984.379C956.32 990.727 964.946 993 971.22 989.235C1170.07 869.917 1282.73 661.624 1289.07 431.805C1280.2 433.003 1271.34 434.201 1262.47 435.4C1269.31 454.754 1262.91 482.281 1260.98 502.169C1258.47 527.848 1253.39 553.194 1247.65 578.309C1236.89 625.452 1219.37 670.826 1197.98 714.103C1156.34 798.332 1093.35 871.332 1019.19 928.551C870.959 1042.93 674.367 1079.05 493.751 1034.59C476.785 1030.41 469.591 1056.51 486.548 1060.68Z" fill="#FFD701"/>
<path d="M395.294 769.737C276.026 690.195 203.832 542.601 214.275 398.656C214.91 389.949 201.364 390.004 200.737 398.656C189.945 547.503 265.327 699.288 388.471 781.413C395.743 786.285 402.512 774.555 395.294 769.737Z" fill="#313332"/>
</svg>
