<svg width="755" height="1028" viewBox="0 0 755 1028" fill="none" xmlns="http://www.w3.org/2000/svg">
<g clip-path="url(#clip0_294_310)">
<path d="M-48.8616 32.32C105.646 -7.45507 275.323 13.7392 414.389 92.2454C511.849 146.743 594.487 227.329 651.147 323.55C706.291 416.423 736.625 523.678 739.007 631.636C738.582 637.088 740.988 643.845 736.516 648.145C735.317 585.49 727.341 522.719 708.759 462.685C663.804 312.779 560.379 181.639 425.374 102.413C422.334 107.803 419.301 113.169 416.006 118.388C371.507 93.1035 324.696 71.5537 275.377 57.5427C122.835 12.8654 -46.1153 34.9334 -185.514 109.736C-188.268 104.184 -191.138 98.6786 -194.093 93.2273C-235.722 116.486 -274.944 144.145 -310.476 175.971C-307.583 179.404 -304.682 182.868 -301.734 186.294C-320.603 200.057 -336.184 217.64 -351.084 235.456C-375.468 265.124 -397.686 296.502 -418.667 328.638C-422.427 325.854 -426.186 323.024 -429.923 320.209C-486.126 413.028 -517.566 520.531 -520.297 628.976C-520.491 635.441 -520.521 641.967 -521.171 648.439C-522.726 646.993 -523.593 645.261 -523.693 643.212C-523.469 539.761 -497.298 436.426 -448.088 345.37C-366.386 191.606 -217.812 74.9869 -48.8616 32.32Z" fill="#FFD701"/>
<path d="M-45.2637 45.3722C137.991 0.26962 328.742 39.1864 480.178 151.398C552.179 204.751 609.752 275.757 652.726 353.892C676.051 396.311 692.637 441.97 705.363 488.558C711.297 510.262 715.374 532.423 718.979 554.615C722.971 579.196 732.092 620.138 723.466 644.549C732.332 645.748 741.197 646.946 750.063 648.145C743.719 418.325 631.073 210.024 432.214 90.7222C425.94 86.9643 417.314 89.23 413.693 95.5782C410.699 100.983 407.582 106.303 404.325 111.553C410.498 109.937 416.672 108.321 422.845 106.697C229.077 -1.35417 4.76617 -5.05017 -192.336 98.0371C-186.163 99.6531 -179.99 101.269 -173.816 102.893C-176.57 97.3411 -179.44 91.8358 -182.395 86.3845C-185.877 79.8275 -194.711 77.9871 -200.916 81.5285C-243.55 105.885 -283.136 134.031 -320.038 166.391C-325.917 171.548 -324.548 180.193 -320.038 185.528C-317.129 188.969 -314.212 192.418 -311.296 195.851C-311.296 189.472 -311.296 183.092 -311.296 176.713C-360.328 215.104 -396.409 270.367 -430.348 321.803C-424.175 320.186 -418.001 318.57 -411.82 316.947C-415.572 314.14 -419.324 311.325 -423.076 308.518C-429.01 304.08 -438.169 307.567 -441.604 313.374C-503.656 418.449 -527.182 528.054 -534.702 648.431C-526.292 646.158 -517.883 643.877 -509.474 641.603C-513.767 632.727 -509.28 612.251 -508.747 602.764C-507.547 581.508 -504.561 560.399 -501.103 539.413C-495.239 503.875 -485.244 469.149 -473.47 435.174C-450.044 367.562 -412.578 304.536 -367.283 249.366C-285.031 149.178 -170.219 78.2191 -45.2637 45.3722C-28.3834 40.9339 -35.5547 14.8296 -52.4583 19.2757C-190.727 55.6253 -312.425 136.258 -400.989 248.299C-446.478 305.843 -480.061 371.614 -504.012 440.741C-517.28 479.031 -525.604 518.86 -531.329 558.898C-535.313 586.727 -545.517 629.077 -532.868 655.274C-526.579 668.295 -508.406 660.795 -507.64 648.446C-500.399 532.554 -477.98 428.215 -418.241 327.053C-424.414 328.669 -430.588 330.285 -436.769 331.909C-433.017 334.716 -429.265 337.53 -425.513 340.337C-419.378 344.93 -410.69 341.087 -406.985 335.481C-374.098 285.623 -339.688 233.074 -292.172 195.866C-286.022 191.049 -287.863 181.817 -292.172 176.729C-295.081 173.288 -297.997 169.839 -300.914 166.406C-300.914 172.785 -300.914 179.164 -300.914 185.544C-265.676 154.653 -227.923 128.147 -187.277 104.919C-193.45 103.303 -199.624 101.679 -205.797 100.063C-202.835 105.514 -199.98 111.02 -197.218 116.571C-193.768 123.36 -184.925 124.683 -178.698 121.427C9.70959 22.8866 224.01 26.8378 409.16 130.087C415.666 133.714 423.82 131.634 427.68 125.232C430.937 119.981 434.063 114.661 437.049 109.257C430.875 110.873 424.702 112.489 418.528 114.113C609.171 228.489 716.875 427.843 722.963 648.16C723.404 663.896 744.524 665.983 749.56 651.756C762.688 614.617 747.464 558.844 740.462 520.832C731.272 470.92 714.484 422.841 694.03 376.524C652.718 282.986 585.77 201.48 506.389 137.727C350.365 12.4248 140.606 -28.2472 -52.4661 19.2757C-69.4084 23.4434 -62.2137 49.5399 -45.2637 45.3722Z" fill="#FFD701"/>
<path d="M-174.181 356.544C-97.84 282.244 9.25194 241.541 115.516 243.057C115.516 245.361 115.493 249.915 115.493 252.188C11.7972 250.812 -92.8037 290.394 -167.303 362.915C-169.601 360.789 -171.906 358.686 -174.181 356.544Z" fill="#FFD701"/>
<path d="M-169.391 361.322C-127.894 322.228 -80.6333 293.456 -27.2458 273.607C-4.19975 265.039 19.8674 259.557 44.0043 255.165C59.5618 252.335 75.2509 251.183 90.994 250.217C122.171 248.299 87.3347 246.08 78.1828 246.675C35.92 249.42 -7.11635 259.789 -46.0603 276.29C-69.1606 286.079 -91.0152 297.391 -112.305 310.652C-116.676 313.382 -167.24 353.745 -169.391 351.75C-175.788 345.827 -185.381 355.376 -178.968 361.315C-176.67 363.441 -174.373 365.559 -172.083 367.686C-169.313 370.253 -165.267 370.284 -162.505 367.686C-86.6521 296.324 11.6053 259.201 115.502 258.939C119.2 258.931 122.264 255.869 122.271 252.173C122.279 249.126 122.287 246.087 122.295 243.041C122.302 239.353 119.216 236.275 115.525 236.275C5.54776 236.383 -98.7592 276.197 -178.96 351.742C-185.327 357.75 -175.742 367.307 -169.391 361.322Z" fill="#FFD701"/>
<path d="M-113.318 427.565C-60.9361 374.529 11.6061 342.208 86.0283 338.326C97.8415 336.818 109.376 340.468 121.166 340.391C215.911 344.976 306.332 397.788 357.816 477.253C390.184 526.368 407.428 585.01 407.405 643.737L401.301 643.799C401.812 553.594 358.443 464.657 287.107 409.425C235.306 368.513 169.556 345.757 103.535 345.919C103.427 346.94 103.264 348.974 103.156 350.002C31.2018 349.863 -40.3425 377.258 -93.5598 425.686C-154.83 480.338 -191.299 561.636 -190.595 643.76C-194.656 643.76 -198.725 643.76 -202.764 643.76C-203.491 563.592 -170.357 483.864 -113.318 427.565Z" fill="#FFD701"/>
<path d="M-111.261 429.614C63.4067 260.168 355.804 357.163 400.449 594.413C399.56 589.689 406.522 640.846 404.356 640.869C404.874 640.869 402.391 610.55 402.205 608.641C400.256 588.9 395.196 569.631 389.387 550.733C377.713 512.767 356.608 478.351 331.559 447.847C276.121 380.321 189.568 344.675 103.542 343.028C101.848 342.997 100.788 344.381 100.641 345.927C100.742 344.86 31.6187 355.987 27.1471 357.078C2.22887 363.14 -21.3122 373.965 -43.7549 386.089C-91.9126 412.101 -129.835 454.041 -156.881 500.953C-169.29 522.479 -177.63 546.202 -184.314 570.01C-187.664 581.925 -190.069 594.653 -191.33 606.955C-192.344 616.79 -200.714 650.449 -199.067 619.752C-195.222 548.112 -160.641 480.423 -111.261 429.614C-108.654 426.931 -112.754 422.825 -115.369 425.516C-173.042 484.862 -204.675 561.009 -205.658 643.768C-205.681 645.354 -204.32 646.668 -202.757 646.668C-198.703 646.668 -194.642 646.668 -190.588 646.668C-188.986 646.668 -187.71 645.354 -187.687 643.768C-185.443 483.122 -57.0766 356.196 103.163 352.91C104.857 352.879 105.909 351.611 106.064 350.01C107.093 338.868 200.484 365.297 211.485 369.349C249.191 383.274 282.674 407.183 311.514 434.741C367.965 488.681 397.216 566.762 398.399 643.799C398.422 645.369 399.699 646.714 401.3 646.699C403.335 646.683 405.37 646.66 407.404 646.637C408.959 646.622 410.336 645.33 410.305 643.737C407.83 523.338 338.39 408.799 224.869 361.957C106.791 313.235 -23.3547 336.247 -115.369 425.516C-118.053 428.122 -113.953 432.22 -111.261 429.614Z" fill="#FFD701"/>
<path d="M103.023 481.019C148.574 481.204 193.738 500.829 224.017 534.998C250.839 564.45 265.77 604.016 265.793 643.761C259.813 643.761 253.809 643.761 247.852 643.761C247.767 603.529 230.361 563.662 200.298 536.807C174.026 512.535 138.548 499.391 102.892 498.927C102.953 492.973 102.969 486.98 103.023 481.019Z" fill="#FFD701"/>
<path d="M103.024 487.785C189.901 490.777 256.27 556.788 259.024 643.769C261.283 641.511 263.534 639.261 265.793 637.003C259.813 637.003 253.833 637.003 247.853 637.003C250.112 639.261 252.363 641.511 254.622 643.769C251.412 558.659 187.549 496.282 102.892 492.169C105.151 494.427 107.403 496.677 109.662 498.934C109.708 492.965 109.754 486.996 109.801 481.027C109.863 472.297 96.3245 472.305 96.2626 481.027C96.2161 486.996 96.1697 492.965 96.1233 498.934C96.0923 502.762 99.2255 505.522 102.892 505.7C180.092 509.45 238.152 566.183 241.084 643.769C241.223 647.457 244.062 650.534 247.853 650.534C253.833 650.534 259.813 650.534 265.793 650.534C269.398 650.534 272.678 647.457 272.562 643.769C269.561 549.21 197.475 477.508 103.024 474.253C94.2898 473.951 94.3207 487.491 103.024 487.785Z" fill="#FFD701"/>
<path d="M102.993 100.063C212.367 100.032 321.54 133.474 411.489 195.797C495.643 253.603 563.087 335.457 603.261 429.312C642.77 520.824 655.89 623.332 641.547 721.919C627.522 820.529 585.236 914.817 521.373 991.189C458.254 1067.03 374.216 1125.29 280.871 1157.3C175.93 1193.62 59.7784 1196.58 -46.9578 1166.02C-144.774 1138.18 -234.236 1081.97 -302.012 1006.23C-348.019 955.094 -384.055 895.122 -407.805 830.635C-401.213 828.083 -394.63 825.531 -388.062 822.964C-349.791 928.41 -276.065 1020.42 -181.962 1081.45C-104.128 1132.36 -12.3849 1161.67 80.5731 1165.44C181.159 1170.01 282.929 1144.68 369.473 1093.15C368.661 1091.76 367.006 1088.95 366.193 1087.53C442.782 1042.39 507.603 977.441 552.117 900.496C597.9 821.712 622.679 730.826 622.903 639.701C617.449 639.16 611.98 638.642 606.541 638.131C610.394 543.503 583.805 447.584 531.314 368.676C505.104 329.21 472.024 294.538 434.643 265.48C438.705 260.276 442.782 255.072 446.866 249.899C352.771 167.256 228.218 120.785 102.97 121.056C102.97 114.043 102.969 107.053 102.993 100.063Z" fill="#FF009D"/>
<path d="M-100.787 643.475C-93.7936 643.421 -86.8 643.42 -79.7987 643.42C-79.5125 690.348 -61.0462 737.066 -27.9431 770.547C5.86406 805.884 54.4163 826.297 103.332 826.166C103.301 833.156 103.301 840.153 103.301 847.128C54.0141 847.321 4.94341 828.903 -31.8499 796.087C-75.3582 758.183 -100.764 701.111 -100.787 643.475Z" fill="#FF009D"/>
<path d="M-59.1484 164.635C5.40234 144.941 73.6048 137.046 140.979 140.951C140.84 146.418 140.708 151.9 140.569 157.367C75.0978 156.803 8.56665 160.475 -54.3518 179.914C-55.9455 174.834 -57.547 169.723 -59.1484 164.635Z" fill="#313332"/>
<path d="M-58.3758 167.435C-21.3194 156.648 15.8222 149.372 54.2556 145.336C68.6526 143.828 83.1423 143.403 97.609 142.97C107.256 142.807 116.895 142.885 126.542 143.202C141.667 147.323 141.667 151.065 126.535 154.421C93.6404 154.297 60.8622 156.161 28.1768 159.81C10.2289 161.813 -50.1368 183.634 -56.349 163.87C-57.463 160.313 -63.0639 161.828 -61.9422 165.409C-60.3485 170.504 -58.7472 175.6 -57.1458 180.695C-56.6739 182.188 -55.1344 183.17 -53.5794 182.721C9.8651 164.311 74.8105 160.027 140.576 160.275C142.185 160.282 143.438 158.952 143.477 157.375C143.616 151.9 143.748 146.426 143.887 140.959C143.926 139.328 142.533 138.129 140.986 138.059C72.5052 134.943 5.89643 142.699 -59.9153 161.844C-63.5049 162.888 -61.9809 168.478 -58.3758 167.435Z" fill="#313332"/>
<path d="M65.8031 284.842C131.762 278.091 199.593 289.419 259.486 318.005C338.597 355.376 403.194 422.245 437.628 502.645C476.904 592.796 477.074 699.015 438.169 789.305C400.803 877.485 327.093 949.403 237.972 984.516C140.512 1023.72 26.1551 1017.8 -66.5863 968.432C-155.266 922.069 -223.12 837.679 -248.549 740.863C-270.017 661.088 -263.372 573.991 -229.51 498.617C-195.951 423.01 -135.709 359.629 -61.8362 322.343C-22.1109 302.077 21.4206 289.303 65.8031 284.842ZM61.9272 291.422C-42.1245 302.75 -139.152 363.023 -196.191 450.622C-241.308 518.744 -261.585 602.694 -252.827 683.899C-244.89 762.428 -209.636 837.741 -154.74 894.403C-92.3013 959.764 -4.30231 999.833 86.0332 1003.71C184.747 1009.03 284.706 970.729 354.626 900.898C419.254 837.787 458.183 749.368 460.921 659.086C465.261 554.97 420.639 450.383 342.821 381.093C267.803 312.701 162.722 279.205 61.9272 291.422Z" fill="#313332"/>
<path d="M65.804 293.541C264.918 276.824 438.998 419.508 457.503 619.164C475.203 810.16 326.908 977.657 140.489 999.648C-43.315 1021.32 -208.722 889.98 -246.003 713.135C-288.8 510.146 -134.525 317.472 65.804 293.541C76.8049 292.226 76.9287 274.813 65.804 276.143C-130.951 299.649 -274.82 465.461 -269.212 663.694C-263.85 852.966 -106.373 1002.08 77.6482 1018C270.666 1034.71 441.342 888.496 471.83 701.629C503.936 504.857 364.847 320.611 173.763 280.96C138.308 273.599 101.739 273.127 65.804 276.143C54.7026 277.079 54.6098 294.484 65.804 293.541Z" fill="#313332"/>
<path d="M61.9297 282.724C-127.267 306.663 -266.108 467.727 -263.338 658.189C-260.476 854.574 -92.3221 1006.08 98.3749 1012.85C292.46 1019.74 453.079 859.392 469.024 671.388C485.386 478.475 336.433 309.879 149.163 283.296C120.176 279.166 90.9714 279.731 61.9297 282.724C50.8747 283.86 50.7664 301.266 61.9297 300.121C247.954 280.968 413.555 406.58 447.904 589.681C483.676 780.383 342.398 958.149 157.503 991.32C-37.8284 1026.36 -221.176 875.753 -244.122 683.899C-266.665 495.424 -123.414 323.573 61.9375 300.121C72.9074 298.729 73.0389 281.316 61.9297 282.724Z" fill="#313332"/>
<path d="M21.7688 560.074C43.2444 538.903 73.1989 526.933 103.324 527.088C103.324 530.073 103.324 533.096 103.347 536.119C74.4211 536.274 45.7431 548.228 25.8147 569.252C6.45871 588.923 -4.05474 616.265 -4.52665 643.738C-6.80109 643.738 -11.3886 643.768 -13.6631 643.799C-13.4697 612.638 -0.836355 581.662 21.7688 560.074Z" fill="#313332"/>
<path d="M29.9782 568.27C50.7035 549.202 75.2193 539.475 103.325 538.686C99.4568 534.82 95.5887 530.954 91.7206 527.087C91.7283 530.095 91.736 533.111 91.7438 536.119C95.6118 532.253 99.4799 528.386 103.348 524.52C36.3759 527.134 -12.7876 577.193 -16.1296 643.737C-12.2615 639.871 -8.39341 636.005 -4.52532 632.139C-7.57338 632.139 -10.6137 632.162 -13.6618 632.201C-9.79366 636.067 -5.92557 639.933 -2.05748 643.799C-0.989883 614.64 9.49281 589.186 29.9782 568.27C40.453 557.584 24.0523 541.168 13.5698 551.869C-11.186 577.139 -23.9741 608.547 -25.266 643.799C-25.4904 650.078 -19.812 655.452 -13.6618 655.398C-10.6137 655.367 -7.57338 655.343 -4.52532 655.336C2.0427 655.313 6.76177 650.07 7.07895 643.737C9.77888 590.059 49.4423 549.82 103.348 547.717C109.653 547.47 114.968 542.629 114.952 536.119C114.945 533.111 114.937 530.095 114.929 527.087C114.914 520.902 109.661 515.311 103.325 515.489C69.0072 516.456 38.8206 528.626 13.562 551.869C2.53791 562.022 18.9929 578.391 29.9782 568.27Z" fill="#313332"/>
<path d="M315.08 1003.31C334.846 993.246 353.745 981.199 369.875 965.85C376.242 972.268 382.64 978.67 389.015 985.15C370.579 1002.66 349.243 1017.08 326.205 1027.77C322.545 1019.58 318.832 1011.42 315.08 1003.31Z" fill="#313332"/>
<path d="M316.55 1005.8C328.719 999.493 340.401 992.573 351.611 984.67C355.989 981.577 360.151 978.16 364.298 974.75C372.684 967.829 376.893 977.015 383.143 983.325C387.483 987.694 352.036 1010.36 347.178 1013.35C341.407 1016.91 335.388 1020.02 329.33 1023.08C326.367 1024.57 318.662 1004.16 317.595 1001.84C316.032 998.449 311.027 1001.39 312.582 1004.77C316.326 1012.91 320.039 1021.06 323.706 1029.24C324.395 1030.76 326.375 1030.9 327.683 1030.28C351.038 1019.13 372.127 1004.81 391.081 987.207C392.241 986.124 392.156 984.199 391.081 983.108C384.721 976.66 378.331 970.234 371.941 963.808C370.796 962.656 368.994 962.734 367.833 963.808C351.557 978.848 333.253 990.632 313.626 1000.81C310.292 1002.52 313.232 1007.53 316.55 1005.8Z" fill="#313332"/>
<path d="M34.1729 191.49C102.213 182.381 172.132 187.747 238.23 206.073C236.714 210.805 235.167 215.553 233.674 220.324C317.364 246.041 393.008 297.152 447.927 365.328C492.627 420.328 523.703 486.261 537.714 555.744C541.187 555.172 544.707 554.622 548.258 554.058C565.138 652.606 548.366 756.15 502.003 844.646C478.501 889.71 448.902 932.014 412.055 967.219C406.137 960.36 400.125 953.641 394.107 946.953C453.807 887.708 496.348 811.328 516.021 729.62C529.173 674.319 531.068 616.357 521.615 560.298C522.558 559.378 524.461 557.538 525.382 556.61C508.332 473.743 466.146 396.272 405.649 337.12C356.579 288.592 295.633 252.088 229.573 231.999C228.537 235.556 227.531 239.128 226.556 242.708C214.844 237.922 202.613 234.257 190.034 232.68C190.034 229.053 190.034 225.442 190.065 221.847C139.942 210.658 88.1792 214.014 37.4762 218.514C36.3932 209.506 35.225 200.49 34.1729 191.49Z" fill="#019EFF"/>
<path d="M68.3506 384.829C124.198 377.382 182.436 388.215 231.453 416.044C276.237 441.189 313.271 479.836 336.417 525.657C357.815 567.574 367.277 615.429 363.834 662.357C360.446 712.362 342.041 761.176 311.669 801.051C280.879 841.87 237.796 873.294 189.484 890.074C134.526 909.358 73.0929 909.435 18.0344 890.468C-29.4116 874.246 -71.891 843.95 -102.712 804.415C-138.585 758.91 -158.621 701.096 -158.018 643.134C-158.505 580.054 -134.369 517.345 -92.3533 470.333C-51.3129 423.854 6.8092 392.793 68.3506 384.829ZM60.1346 398.484C-32.0111 413.631 -111.609 485.31 -136.388 575.26C-151.922 629.51 -148.402 689.072 -126.052 740.964C-101.822 798.245 -55.1886 845.589 1.68782 870.82C53.9844 894.334 114.497 898.772 169.726 883.385C218.874 869.9 263.442 840.703 295.763 801.307C325.772 764.972 345.051 719.909 350.551 673.074C356.407 624.716 347.627 574.641 325.447 531.263C301.999 484.869 263.612 446.161 217.334 422.431C169.416 397.51 113.275 389.12 60.1346 398.484Z" fill="#019EFF"/>
<path d="M86.2967 570.18C124.142 560.994 165.972 584.678 177.499 621.832C190.263 657.686 172.176 700.786 137.696 716.862C104.074 734.074 59.1581 722.422 38.4715 690.734C15.6111 658.761 22.5273 610.318 53.5184 586.085C62.9875 578.299 74.3442 572.832 86.2967 570.18Z" fill="#019EFF"/>
<path d="M-113.319 858.642C-60.9371 911.662 11.6052 943.999 86.0273 947.865C97.8405 949.373 109.375 945.738 121.165 945.808C215.91 941.231 306.331 888.403 357.815 808.938C390.183 759.831 407.427 701.189 407.404 642.454L401.3 642.392C401.811 732.597 358.442 821.542 287.106 876.759C235.305 917.686 169.555 940.442 103.534 940.279C103.426 939.251 103.263 937.218 103.155 936.189C31.2009 936.328 -40.3435 908.933 -93.5607 860.498C-154.831 805.846 -191.3 724.556 -190.596 642.423C-194.657 642.423 -198.726 642.423 -202.765 642.423C-203.492 722.599 -170.358 802.327 -113.319 858.642Z" fill="#FFD701"/>
<path d="M-48.8626 1260.64C105.645 1300.41 275.322 1279.21 414.388 1200.7C511.848 1146.21 594.486 1065.61 651.146 969.399C706.29 876.519 736.624 769.264 739.006 661.305C738.581 655.862 740.987 649.111 736.515 644.797C735.316 707.467 727.34 770.23 708.758 830.264C663.803 980.17 560.378 1111.31 425.373 1190.55C422.333 1185.16 419.301 1179.8 416.005 1174.58C371.506 1199.86 324.695 1221.42 275.376 1235.42C122.834 1280.09 -46.1162 1258.03 -185.515 1183.24C-188.269 1188.79 -191.139 1194.3 -194.094 1199.74C-235.723 1176.48 -274.945 1148.82 -310.477 1116.99C-307.584 1113.57 -304.683 1110.1 -301.735 1106.67C-320.604 1092.92 -336.185 1075.32 -351.085 1057.51C-375.469 1027.84 -397.687 996.462 -418.668 964.319C-422.428 967.11 -426.187 969.948 -429.924 972.747C-486.127 879.928 -517.567 772.434 -520.298 663.98C-520.492 657.516 -520.522 650.99 -521.172 644.518C-522.727 645.964 -523.594 647.696 -523.694 649.73C-523.47 753.188 -497.299 856.53 -448.089 947.578C-366.387 1101.35 -217.813 1217.95 -48.8626 1260.64Z" fill="#FFD701"/>
<path d="M-52.4518 1273.68C140.62 1321.2 350.371 1280.52 506.403 1155.23C583.323 1093.45 644.617 1017.08 688.327 928.65C710.785 883.207 726.505 834.656 737.761 785.339C746.921 745.201 763.561 680.814 749.574 641.193C744.554 626.966 723.41 629.061 722.977 644.789C716.896 865.121 609.186 1064.46 418.543 1178.86C424.716 1180.48 430.89 1182.09 437.063 1183.72C434.069 1178.31 430.951 1172.98 427.695 1167.74C423.834 1161.33 415.68 1159.25 409.174 1162.88C224.016 1266.13 9.72388 1270.07 -178.683 1171.54C-184.911 1168.28 -193.746 1169.6 -197.204 1176.4C-199.958 1181.95 -202.828 1187.45 -205.783 1192.9C-199.61 1191.28 -193.436 1189.66 -187.263 1188.05C-227.893 1164.83 -265.7 1138.28 -300.9 1107.41C-300.9 1113.79 -300.9 1120.16 -300.9 1126.55C-297.983 1123.11 -295.074 1119.67 -292.158 1116.23C-287.849 1111.15 -286.007 1101.9 -292.158 1097.09C-339.681 1059.9 -374.084 1007.33 -406.97 957.476C-410.676 951.87 -419.356 948.019 -425.499 952.62C-429.251 955.427 -433.003 958.241 -436.755 961.048C-430.581 962.672 -424.408 964.288 -418.227 965.904C-477.965 864.734 -500.385 760.395 -507.626 644.511C-508.4 632.147 -526.556 624.669 -532.854 637.683C-545.27 663.339 -535.113 703.145 -531.802 730.455C-526.773 771.931 -516.817 812.51 -503.998 852.224C-481.694 921.319 -445.984 987.717 -400.975 1044.66C-312.419 1156.69 -190.713 1237.32 -52.4518 1273.68C-35.5482 1278.13 -28.3845 1252.02 -45.2571 1247.58C-168.007 1215.3 -275.803 1147.31 -359.764 1052.4C-406.839 999.184 -442.758 936.289 -468.783 870.433C-482.019 836.937 -491.272 801.994 -498.621 766.797C-502.977 745.958 -505.576 724.795 -507.688 703.632C-508.957 690.928 -515.176 663.138 -509.467 651.346C-517.876 649.073 -526.286 646.792 -534.695 644.518C-527.175 764.903 -503.65 874.5 -441.598 979.575C-438.17 985.382 -429.011 988.869 -423.069 984.431C-419.317 981.624 -415.565 978.809 -411.813 976.002C-417.987 974.386 -424.16 972.763 -430.341 971.147C-396.411 1022.57 -360.321 1077.86 -311.289 1116.24C-311.289 1109.86 -311.289 1103.49 -311.289 1097.1C-314.206 1100.54 -317.115 1103.98 -320.031 1107.42C-324.549 1112.75 -325.911 1121.41 -320.031 1126.56C-283.114 1158.94 -243.559 1187.05 -200.909 1211.42C-194.705 1214.97 -185.878 1213.12 -182.389 1206.56C-179.418 1201.12 -176.564 1195.62 -173.809 1190.06C-179.983 1191.69 -186.156 1193.3 -192.33 1194.92C4.77277 1298 229.084 1294.31 422.852 1186.26C416.678 1184.64 410.505 1183.03 404.331 1181.4C407.581 1186.66 410.706 1191.98 413.7 1197.38C417.32 1203.73 425.946 1206 432.22 1202.23C631.071 1082.92 743.726 874.624 750.069 644.804C741.204 646.003 732.338 647.201 723.472 648.4C730.311 667.754 723.913 695.281 721.979 715.169C719.473 740.848 714.39 766.194 708.65 791.308C697.889 838.452 680.366 883.826 658.976 927.103C617.34 1011.33 554.351 1084.33 480.192 1141.55C331.959 1255.93 135.367 1292.05 -45.2494 1247.59C-62.2148 1243.41 -69.4095 1269.51 -52.4518 1273.68Z" fill="#FFD701"/>
</g>
<defs>
<clipPath id="clip0_294_310">
<rect width="1294" height="1028" fill="white" transform="translate(-539)"/>
</clipPath>
</defs>
</svg>
