<svg width="67" height="46" viewBox="0 0 67 46" fill="none" xmlns="http://www.w3.org/2000/svg">
<mask id="mask0_294_458" style="mask-type:alpha" maskUnits="userSpaceOnUse" x="0" y="0" width="67" height="46">
<path fill-rule="evenodd" clip-rule="evenodd" d="M38.1901 36.1938C37.5989 36.6928 37.0074 37.192 36.4182 37.6915V45.3995H66.1148V36.9866H50.1347C56.9904 31.5874 65.4481 23.8078 65.4481 14.1025C65.4481 6.63968 61.07 0.750107 51.259 0.750107C43.3934 0.750107 36.5973 5.37799 36.2988 16.1049H46.06C46.06 11.8907 47.7914 9.46443 50.8461 9.46443C53.9008 9.46443 55.3237 11.5281 55.3237 14.7461C55.3237 21.734 46.7947 28.9321 38.1901 36.1938ZM33.2239 23.2612C33.2239 10.2561 28.9105 0.785836 16.612 0.785836C4.31344 0.785836 0 10.2561 0 23.2612C0 36.3685 4.31344 45.8388 16.612 45.8388C28.9105 45.8388 33.2239 36.3685 33.2239 23.2612ZM9.93036 23.2612C9.93036 16.442 10.6418 10.4911 16.612 10.4911V10.4962C22.5821 10.4962 23.2936 16.4471 23.2936 23.2612C23.2936 30.3001 22.5821 36.1284 16.612 36.1284C10.6418 36.1284 9.93036 30.3001 9.93036 23.2612Z" fill="black"/>
</mask>
<g mask="url(#mask0_294_458)">
<path d="M0.0436687 23.2275L23.6084 23.2275L23.6084 -1.80392L0.0436687 -1.80392L0.0436687 23.2275Z" fill="#009DFF"/>
<path d="M-23.5208 23.2275L0.0439453 23.2275L0.0439453 -1.80391L-23.5208 -1.80391L-23.5208 23.2275Z" fill="#009DFF"/>
<path d="M0.0439453 5.56664V23.2275H16.6677C16.6677 13.4727 9.2268 5.56664 0.0439453 5.56664Z" fill="#29307A"/>
<path d="M0.0481186 23.2275H-23.5166V48.2589H0.0481186V23.2275Z" fill="#FF0098"/>
<path d="M23.6087 23.2275H0.0439453V48.2589H23.6087V23.2275Z" fill="#FFD600"/>
<path d="M46.9928 48.2549H70.7383V23.2235L46.9928 23.2235V48.2549Z" fill="#FFD600"/>
<path d="M23.6082 23.2275L46.9922 23.2275V-1.80392L23.6082 -1.80392L23.6082 23.2275Z" fill="#29307A"/>
<path d="M23.6082 48.2549H46.9922V23.2235L23.6082 23.2235L23.6082 48.2549Z" fill="#FF0098"/>
<path d="M70.7383 23.2275V-1.80392L46.9928 -1.80392V23.2275H70.7383Z" fill="#29307A"/>
<path d="M46.9919 30.598V48.2549H30.5488C30.5488 38.5041 37.8128 30.598 46.9919 30.598Z" fill="#29307A"/>
<path d="M46.9922 30.598V48.2549H63.7966C63.7966 38.5041 56.1712 30.598 46.9922 30.598Z" fill="#29307A"/>
<path d="M70.7344 4.4559V1.32599L46.9889 1.32599V4.4559L70.7344 4.4559Z" fill="#009DFF"/>
<path d="M70.7383 10.7118V7.58186L46.9928 7.58186V10.7118L70.7383 10.7118Z" fill="#009DFF"/>
<path d="M70.7383 16.9676V13.8377L46.9928 13.8377V16.9676H70.7383Z" fill="#009DFF"/>
<path d="M70.7383 23.2275V20.0976H46.9928V23.2275H70.7383Z" fill="#009DFF"/>
</g>
</svg>
