<svg width="55" height="46" viewBox="0 0 55 46" fill="none" xmlns="http://www.w3.org/2000/svg">
<mask id="mask0_294_410" style="mask-type:alpha" maskUnits="userSpaceOnUse" x="0" y="0" width="55" height="46">
<path fill-rule="evenodd" clip-rule="evenodd" d="M34.98 22.8544C34.98 9.66204 30.4386 0.0553589 17.49 0.0553589C4.54143 0.0553589 0 9.66204 0 22.8544C0 36.14 4.54143 45.7622 17.49 45.7622C30.4386 45.7622 34.98 36.1556 34.98 22.8544ZM10.4552 22.8544C10.4552 15.937 11.2043 9.9004 17.49 9.9004C23.7757 9.9004 24.5248 15.9421 24.5248 22.8544C24.5248 29.9791 23.7757 35.9068 17.49 35.9068C11.2043 35.9068 10.4552 29.9946 10.4552 22.8544ZM37.5938 10.7709H43.7328V45.9281H54.8376V0.977699H37.5938V10.7709Z" fill="black"/>
</mask>
<g mask="url(#mask0_294_410)">
<path d="M42.8069 22.8564L67.6172 22.8564V-2.53541L42.8069 -2.53541V22.8564Z" fill="#019EFF"/>
<path d="M42.8109 22.8564H-6.80957V48.2483H42.8109V22.8564Z" fill="#019EFF"/>
<path d="M42.8112 22.8564L18.001 48.2443H42.8112V22.8564Z" fill="#FFD701"/>
<path d="M5.59542 22.8564H2.49414V48.2483H5.59542V22.8564Z" fill="#29307A"/>
<path d="M11.7985 22.8564H8.69727V48.2483H11.7985V22.8564Z" fill="#29307A"/>
<path d="M18.0007 22.8564H14.8994V48.2483H18.0007V22.8564Z" fill="#29307A"/>
<path d="M67.6218 22.8564H42.8115V48.2483H67.6218V22.8564Z" fill="#FF009D"/>
<path d="M-6.80928 22.8564L18.001 22.8564L18.001 -2.53542L-6.80928 -2.53542L-6.80928 22.8564Z" fill="#FFD701"/>
<path d="M17.9964 22.8564L42.8066 22.8564V-2.53541L17.9964 -2.53541L17.9964 22.8564Z" fill="#29307A"/>
</g>
</svg>
