<svg width="68" height="46" viewBox="0 0 68 46" fill="none" xmlns="http://www.w3.org/2000/svg">
<mask id="mask0_294_506" style="mask-type:alpha" maskUnits="userSpaceOnUse" x="0" y="0" width="68" height="46">
<path fill-rule="evenodd" clip-rule="evenodd" d="M66.9168 11.8892C66.9168 5.28241 61.9326 0 52.6821 0C43.7298 0 38.0834 4.74154 37.7245 13.4108H47.7535C47.9355 11.0046 49.1385 8.60351 52.4394 8.60351C55.2045 8.60351 56.9434 10.211 56.9434 13.153C56.9434 17.116 53.5818 17.9602 50.099 17.9602H48.173V26.311H50.099C55.4421 26.311 57.7876 27.873 57.7876 31.7754C57.7876 34.6769 56.0436 36.6989 52.859 36.6989C49.0779 36.6989 47.2126 34.4191 47.1519 30.9919H37.1836C37.4818 40.9046 44.033 45.2316 53.2229 45.2316C62.4128 45.2316 67.7003 39.9442 67.7003 32.5538C67.7003 26.7912 64.6926 23.4246 60.31 21.9839V21.7413C63.3126 20.7202 66.9168 17.6569 66.9168 11.8892ZM33.762 22.3479C33.762 9.478 29.3743 0.106134 16.8785 0.106134C4.38264 0.106134 0 9.48811 0 22.3479C0 35.3189 4.38264 44.6958 16.8785 44.6958C29.3743 44.6958 33.762 35.3239 33.762 22.3479ZM10.1099 22.3479C10.1099 15.6147 10.8125 9.71053 16.8785 9.71053C22.9494 9.71053 23.6673 15.6147 23.6673 22.3479C23.6673 29.3136 22.9646 35.0864 16.8987 35.0864C10.8327 35.0864 10.1099 29.3187 10.1099 22.3479Z" fill="black"/>
</mask>
<g mask="url(#mask0_294_506)">
<path d="M-3.95545 22.7492L19.9873 22.7492L19.9873 -2.02196L-3.95545 -2.02196L-3.95545 22.7492Z" fill="#FF0098"/>
<path d="M-3.95545 47.5165H19.9873L19.9873 22.7453L-3.95545 22.7453L-3.95545 47.5165Z" fill="#009DFF"/>
<path d="M19.9908 47.5165H43.9336V22.7453L19.9908 22.7453L19.9908 47.5165Z" fill="#FF0098"/>
<path d="M19.9908 22.7492L43.9336 22.7492V-2.02196L19.9908 -2.02196L19.9908 22.7492Z" fill="#FFD600"/>
<path d="M43.9301 -2.02197L19.9873 22.7492H43.9301V-2.02197Z" fill="#FF0098"/>
<path d="M31.9587 47.5165C38.5703 47.5165 43.9301 41.9713 43.9301 35.1309C43.9301 28.2905 38.5703 22.7453 31.9587 22.7453C25.3471 22.7453 19.9873 28.2905 19.9873 35.1309C19.9873 41.9713 25.3471 47.5165 31.9587 47.5165Z" fill="#29307A"/>
<path d="M3.10059 -2.02197H19.9871V15.4513C10.6608 15.4513 3.10059 7.62741 3.10059 -2.02197Z" fill="#29307A"/>
<path d="M67.877 47.5165V22.7453H43.9342V47.5165H67.877Z" fill="#009DFF"/>
<path d="M67.873 22.7492V-2.02197L43.9303 -2.02197V22.7492H67.873Z" fill="#FF0098"/>
<path d="M55.9011 22.7492C62.5127 22.7492 67.8725 17.204 67.8725 10.3636C67.8725 3.52325 62.5127 -2.02197 55.9011 -2.02197C49.2895 -2.02197 43.9297 3.52325 43.9297 10.3636C43.9297 17.204 49.2895 22.7492 55.9011 22.7492Z" fill="#FFD600"/>
</g>
</svg>
