<svg width="1120" height="1313" viewBox="0 0 1120 1313" fill="none" xmlns="http://www.w3.org/2000/svg">
<path d="M498.702 42.173C653.209 2.39792 822.887 23.5922 961.952 102.098C1059.41 156.596 1142.05 237.182 1198.71 333.403C1253.85 426.276 1284.19 533.531 1286.57 641.489C1286.15 646.941 1288.55 653.698 1284.08 657.998C1282.88 595.343 1274.9 532.572 1256.32 472.538C1211.37 322.632 1107.94 191.492 972.938 112.266C969.897 117.656 966.865 123.022 963.569 128.241C919.071 102.957 872.259 81.4067 822.941 67.3957C670.399 22.7184 501.448 44.7864 362.05 119.589C359.296 114.037 356.426 108.532 353.47 103.08C311.842 126.339 272.62 153.998 237.087 185.824C239.981 189.257 242.882 192.721 245.829 196.146C226.961 209.91 211.38 227.493 196.48 245.309C172.095 274.977 149.877 306.355 128.897 338.491C125.137 335.707 121.377 332.877 117.64 330.062C61.4371 422.881 29.9971 530.384 27.2663 638.829C27.0729 645.294 27.042 651.82 26.3921 658.292C24.8372 656.846 23.9707 655.114 23.8701 653.065C24.0945 549.614 50.2659 446.279 99.4758 355.223C181.178 201.459 329.751 84.8399 498.702 42.173Z" fill="#FFD701"/>
<path d="M502.3 55.2252C685.555 10.1226 876.306 49.0394 1027.74 161.251C1099.74 214.604 1157.32 285.61 1200.29 363.745C1223.61 406.164 1240.2 451.823 1252.93 498.411C1258.86 520.115 1262.94 542.276 1266.54 564.468C1270.53 589.049 1279.66 629.991 1271.03 654.402C1279.9 655.601 1288.76 656.799 1297.63 657.998C1291.28 428.178 1178.64 219.877 979.777 100.575C973.503 96.8173 964.877 99.083 961.257 105.431C958.263 110.836 955.145 116.156 951.888 121.406C958.062 119.79 964.235 118.174 970.409 116.55C776.64 8.49883 552.33 4.80282 355.227 107.89C361.401 109.506 367.574 111.122 373.747 112.746C370.993 107.194 368.123 101.689 365.168 96.2375C361.687 89.6805 352.852 87.8401 346.648 91.3815C304.014 115.738 264.427 143.884 227.526 176.244C221.646 181.401 223.016 190.046 227.526 195.381C230.435 198.822 233.351 202.271 236.268 205.704C236.268 199.325 236.268 192.945 236.268 186.566C187.236 224.957 151.154 280.22 117.215 331.656C123.389 330.039 129.562 328.423 135.744 326.8C131.992 323.993 128.239 321.178 124.487 318.371C118.554 313.933 109.394 317.42 105.959 323.227C43.9073 428.302 20.3815 537.907 12.8619 658.284C21.2712 656.011 29.6804 653.73 38.0896 651.456C33.7961 642.58 38.2831 622.104 38.8169 612.617C40.016 591.361 43.0021 570.252 46.4602 549.266C52.3242 513.728 62.3194 479.002 74.0939 445.027C97.5191 377.415 134.985 314.389 180.281 259.219C262.532 159.031 377.345 88.0721 502.3 55.2252C519.18 50.7869 512.009 24.6826 495.105 29.1286C356.836 65.4783 235.138 146.111 146.574 258.152C101.086 315.696 67.5027 381.467 43.5515 450.594C30.2839 488.884 21.9597 528.713 16.2349 568.751C12.2508 596.58 2.04672 638.93 14.6954 665.127C20.9849 678.148 39.1572 670.648 39.9231 658.299C47.1642 542.407 69.5837 438.068 129.323 336.906C123.149 338.522 116.976 340.138 110.794 341.762C114.546 344.569 118.299 347.383 122.051 350.19C128.185 354.783 136.873 350.94 140.579 345.334C173.465 295.476 207.876 242.927 255.392 205.719C261.542 200.902 259.701 191.67 255.392 186.582C252.483 183.141 249.566 179.692 246.65 176.259C246.65 182.638 246.65 189.017 246.65 195.397C281.888 164.506 319.641 138 360.287 114.772C354.113 113.156 347.939 111.532 341.766 109.916C344.729 115.367 347.584 120.873 350.346 126.424C353.796 133.213 362.638 134.536 368.866 131.28C557.273 32.7396 771.573 36.6908 956.723 139.94C963.23 143.567 971.384 141.487 975.244 135.085C978.501 129.834 981.626 124.514 984.612 119.11C978.439 120.726 972.265 122.342 966.092 123.966C1156.73 238.342 1264.44 437.696 1270.53 658.013C1270.97 673.749 1292.09 675.836 1297.12 661.609C1310.25 624.47 1295.03 568.697 1288.03 530.685C1278.84 480.773 1262.05 432.694 1241.59 386.377C1200.28 292.839 1133.33 211.333 1053.95 147.58C897.929 22.2778 688.169 -18.3942 495.097 29.1286C478.155 33.2964 485.35 59.3929 502.3 55.2252Z" fill="#FFD701"/>
<path d="M373.383 366.397C449.723 292.097 556.815 251.394 663.08 252.91C663.08 255.214 663.057 259.768 663.057 262.041C559.361 260.665 454.76 300.247 380.26 372.768C377.963 370.642 375.657 368.539 373.383 366.397Z" fill="#FFD701"/>
<path d="M378.173 371.175C419.67 332.081 466.93 303.309 520.318 283.46C543.364 274.892 567.431 269.41 591.568 265.018C607.125 262.188 622.814 261.036 638.557 260.07C669.734 258.152 634.898 255.933 625.746 256.528C583.484 259.273 540.447 269.642 501.503 286.143C478.403 295.932 456.548 307.244 435.258 320.505C430.887 323.235 380.324 363.598 378.173 361.603C371.775 355.68 362.182 365.229 368.595 371.168C370.893 373.294 373.191 375.412 375.481 377.539C378.25 380.106 382.296 380.137 385.058 377.539C460.911 306.177 559.169 269.054 663.066 268.792C666.764 268.784 669.827 265.722 669.835 262.026C669.843 258.979 669.85 255.94 669.858 252.894C669.866 249.206 666.779 246.128 663.089 246.128C553.111 246.236 448.804 286.05 368.603 361.595C362.236 367.603 371.821 377.16 378.173 371.175Z" fill="#FFD701"/>
<path d="M434.246 437.418C486.627 384.382 559.17 352.061 633.592 348.179C645.405 346.671 656.94 350.321 668.729 350.244C763.475 354.829 853.895 407.641 905.38 487.106C937.748 536.221 954.992 594.863 954.969 653.59L948.865 653.652C949.375 563.447 906.006 474.51 834.671 419.278C782.869 378.366 717.119 355.61 651.099 355.772C650.99 356.793 650.828 358.827 650.72 359.855C578.765 359.716 507.221 387.111 454.004 435.539C392.733 490.191 356.265 571.489 356.969 653.613C352.907 653.613 348.838 653.613 344.8 653.613C344.073 573.445 377.207 493.717 434.246 437.418Z" fill="#FFD701"/>
<path d="M436.303 439.467C610.97 270.021 903.367 367.016 948.013 604.266C947.123 599.542 954.086 650.699 951.919 650.722C952.438 650.722 949.955 620.403 949.769 618.493C947.819 598.753 942.76 579.484 936.95 560.586C925.276 522.62 904.172 488.204 879.122 457.7C823.685 390.174 737.132 354.528 651.105 352.881C649.411 352.85 648.351 354.234 648.204 355.78C648.305 354.713 579.182 365.84 574.711 366.931C549.792 372.993 526.251 383.818 503.809 395.942C455.651 421.954 417.728 463.894 390.682 510.806C378.273 532.332 369.934 556.055 363.25 579.863C359.9 591.778 357.494 604.506 356.233 616.808C355.22 626.643 346.849 660.302 348.497 629.605C352.342 557.965 386.922 490.276 436.303 439.467C438.91 436.784 434.809 432.678 432.195 435.369C374.521 494.715 342.888 570.862 341.906 653.621C341.882 655.206 343.244 656.521 344.807 656.521C348.86 656.521 352.922 656.521 356.976 656.521C358.577 656.521 359.854 655.206 359.877 653.621C362.12 492.975 490.487 366.049 650.727 362.763C652.421 362.732 653.473 361.464 653.628 359.863C654.657 348.721 748.048 375.15 759.049 379.202C796.755 393.127 830.237 417.036 859.078 444.594C915.529 498.534 944.779 576.615 945.963 653.652C945.986 655.222 947.262 656.567 948.864 656.552C950.898 656.536 952.933 656.513 954.968 656.49C956.523 656.475 957.9 655.183 957.869 653.59C955.393 533.191 885.953 418.652 772.432 371.809C654.355 323.088 524.209 346.1 432.195 435.369C429.51 437.975 433.61 442.073 436.303 439.467Z" fill="#FFD701"/>
<path d="M650.587 490.872C696.137 491.057 741.301 510.682 771.581 544.851C798.402 574.303 813.333 613.869 813.356 653.614C807.376 653.614 801.373 653.614 795.416 653.614C795.331 613.382 777.924 573.514 747.862 546.66C721.589 522.388 686.111 509.244 650.455 508.78C650.517 502.826 650.532 496.833 650.587 490.872Z" fill="#FFD701"/>
<path d="M650.587 497.638C737.465 500.63 803.834 566.641 806.588 653.622C808.847 651.364 811.098 649.114 813.357 646.856C807.377 646.856 801.397 646.856 795.417 646.856C797.676 649.114 799.927 651.364 802.186 653.622C798.975 568.512 735.113 506.135 650.456 502.022C652.715 504.279 654.966 506.53 657.225 508.787C657.271 502.818 657.318 496.849 657.364 490.88C657.426 482.15 643.888 482.157 643.826 490.88C643.78 496.849 643.733 502.818 643.687 508.787C643.656 512.615 646.789 515.375 650.456 515.553C727.655 519.303 785.715 576.036 788.647 653.622C788.787 657.31 791.626 660.387 795.417 660.387C801.397 660.387 807.377 660.387 813.357 660.387C816.962 660.387 820.242 657.31 820.126 653.622C817.124 559.063 745.038 487.361 650.587 484.106C641.853 483.804 641.884 497.344 650.587 497.638Z" fill="#FFD701"/>
<path d="M650.557 109.916C759.931 109.885 869.104 143.327 959.052 205.65C1043.21 263.456 1110.65 345.31 1150.82 439.165C1190.33 530.677 1203.45 633.185 1189.11 731.772C1175.09 830.382 1132.8 924.67 1068.94 1001.04C1005.82 1076.89 921.78 1135.14 828.435 1167.16C723.494 1203.47 607.342 1206.44 500.606 1175.87C402.79 1148.03 313.328 1091.83 245.552 1016.08C199.545 964.947 163.509 904.975 139.759 840.488C146.351 837.936 152.934 835.385 159.502 832.817C197.773 938.263 271.499 1030.28 365.602 1091.3C443.436 1142.21 535.179 1171.52 628.137 1175.3C728.723 1179.86 830.493 1154.53 917.037 1103C916.225 1101.61 914.57 1098.8 913.757 1097.38C990.346 1052.24 1055.17 987.294 1099.68 910.349C1145.46 831.565 1170.24 740.679 1170.47 649.554C1165.01 649.013 1159.54 648.495 1154.11 647.984C1157.96 553.356 1131.37 457.437 1078.88 378.529C1052.67 339.063 1019.59 304.391 982.207 275.333C986.268 270.129 990.346 264.925 994.43 259.752C900.335 177.109 775.782 130.638 650.534 130.909C650.534 123.896 650.533 116.906 650.557 109.916Z" fill="#FF009D"/>
<path d="M446.776 653.328C453.77 653.274 460.763 653.273 467.765 653.273C468.051 700.201 486.517 746.919 519.62 780.4C553.428 815.737 601.98 836.15 650.896 836.019C650.865 843.009 650.865 850.007 650.865 856.981C601.578 857.174 552.507 838.756 515.714 805.94C472.205 768.036 446.8 710.964 446.776 653.328Z" fill="#FF009D"/>
<path d="M488.415 174.488C552.966 154.794 621.168 146.899 688.543 150.804C688.403 156.271 688.272 161.753 688.133 167.22C622.661 166.656 556.13 170.328 493.212 189.767C491.618 184.687 490.016 179.576 488.415 174.488Z" fill="#313332"/>
<path d="M489.188 177.288C526.244 166.501 563.386 159.225 601.819 155.189C616.216 153.681 630.706 153.256 645.172 152.823C654.819 152.66 664.459 152.737 674.106 153.054C689.23 157.176 689.23 160.918 674.098 164.274C641.204 164.15 608.426 166.014 575.74 169.663C557.792 171.666 497.427 193.487 491.215 173.723C490.101 170.166 484.5 171.681 485.621 175.262C487.215 180.357 488.816 185.453 490.418 190.548C490.89 192.041 492.429 193.023 493.984 192.574C557.429 174.164 622.374 169.88 688.139 170.127C689.748 170.135 691.002 168.805 691.04 167.228C691.18 161.753 691.311 156.279 691.451 150.812C691.489 149.181 690.097 147.982 688.549 147.912C620.069 144.796 553.46 152.552 487.648 171.697C484.059 172.741 485.583 178.331 489.188 177.288Z" fill="#313332"/>
<path d="M613.367 294.695C679.325 287.944 747.156 299.272 807.05 327.859C886.16 365.229 950.757 432.098 985.191 512.498C1024.47 602.649 1024.64 708.868 985.733 799.159C948.367 887.338 874.656 959.256 785.536 994.369C688.075 1033.57 573.719 1027.66 480.977 978.285C392.297 931.922 324.443 847.532 299.014 750.716C277.546 670.941 284.192 583.845 318.053 508.47C351.613 432.863 411.854 369.482 485.727 332.196C525.453 311.93 568.984 299.156 613.367 294.695ZM609.491 301.275C505.439 312.603 408.412 372.876 351.373 460.475C306.255 528.597 285.979 612.547 294.736 693.752C302.674 772.281 337.927 847.594 392.823 904.256C455.262 969.617 543.261 1009.69 633.597 1013.57C732.31 1018.89 832.27 980.582 902.19 910.751C966.818 847.64 1005.75 759.221 1008.48 668.939C1012.82 564.823 968.203 460.236 890.384 390.946C815.366 322.554 710.286 289.058 609.491 301.275Z" fill="#313332"/>
<path d="M613.368 303.394C812.482 286.677 986.562 429.361 1005.07 629.017C1022.77 820.013 874.472 987.51 688.053 1009.5C504.248 1031.17 338.841 899.833 301.56 722.988C258.764 519.999 413.039 327.325 613.368 303.394C624.368 302.079 624.492 284.666 613.368 285.996C416.613 309.502 272.743 475.314 278.352 673.547C283.713 862.819 441.191 1011.94 625.212 1027.86C818.23 1044.57 988.906 898.349 1019.39 711.482C1051.5 514.71 912.41 330.464 721.326 290.813C685.871 283.452 649.302 282.98 613.368 285.996C602.266 286.932 602.173 304.337 613.368 303.394Z" fill="#313332"/>
<path d="M609.493 292.577C420.297 316.516 281.456 477.58 284.225 668.042C287.088 864.428 455.241 1015.93 645.938 1022.71C840.024 1029.6 1000.64 869.245 1016.59 681.241C1032.95 488.328 883.996 319.732 696.727 293.149C667.739 289.02 638.535 289.584 609.493 292.577C598.438 293.713 598.33 311.119 609.493 309.974C795.518 290.821 961.119 416.433 995.467 599.534C1031.24 790.236 889.961 968.002 705.066 1001.17C509.735 1036.22 326.387 885.606 303.442 693.752C280.899 505.277 424.15 333.426 609.501 309.974C620.471 308.582 620.602 291.169 609.493 292.577Z" fill="#313332"/>
<path d="M203.428 620.867C205.973 518.197 253.419 419.688 324.206 346.509C330.518 353.043 336.754 359.623 343.02 366.211C277.549 434.572 232.903 525.968 230.513 621.524C221.461 621.292 212.425 621.107 203.428 620.867Z" fill="#313332"/>
<path d="M206.328 620.867C208.765 563.099 223.425 509.375 248.668 457.476C259.422 435.369 272.96 414.716 287.21 394.751C296.594 381.614 307.154 369.482 317.876 357.458C322.448 357.767 327.013 358.077 331.577 358.386C335.755 368.662 333.356 376.696 324.367 382.495C296.996 413.633 273.687 450.3 257.789 488.559C248.204 511.625 240.662 534.868 235.045 559.21C229.282 584.123 237.002 618.795 203.427 617.968C199.683 617.875 199.691 623.674 203.427 623.767C212.455 623.999 221.484 624.215 230.512 624.416C232.144 624.455 233.343 623.071 233.413 621.517C237.675 525.04 279.799 438.377 345.077 368.26C346.175 367.085 346.199 365.337 345.077 364.162C338.826 357.566 332.56 351.002 326.262 344.46C325.187 343.339 323.222 343.331 322.155 344.46C250.548 420.523 204.975 515.769 200.526 620.875C200.364 624.609 206.166 624.594 206.328 620.867Z" fill="#313332"/>
<path d="M176.065 488.869C180.026 490.253 183.956 491.66 187.909 493.098C160.801 572.471 158.039 658.555 168.855 741.198C164.731 741.847 160.631 742.497 156.539 743.177C145.785 658.392 148.795 570.437 176.065 488.869Z" fill="#313332"/>
<path d="M175.298 491.668C188.132 496.246 165.736 573.499 163.801 588.152C158.324 629.674 159.461 671.916 162.873 713.539C168.552 723.87 166.857 729.027 157.79 729.019C156.762 719.547 155.926 710.067 155.268 700.564C153.396 676.78 153.481 652.91 154.185 629.087C155.593 581.595 164.56 534.83 178.872 489.634C180.001 486.062 174.4 484.539 173.271 488.096C146.937 571.272 143.509 656.892 153.644 743.169C153.876 745.172 155.307 746.286 157.319 745.969C161.426 745.311 165.534 744.646 169.635 743.989C170.78 743.803 171.901 742.357 171.762 741.19C161.612 657.58 164.66 574.489 190.716 493.864C191.226 492.279 190.12 490.81 188.689 490.299C184.743 488.892 180.79 487.485 176.845 486.07C173.302 484.817 171.801 490.423 175.298 491.668Z" fill="#313332"/>
<path d="M569.332 569.927C590.808 548.756 620.762 536.786 650.887 536.941C650.887 539.925 650.887 542.949 650.91 545.972C621.985 546.127 593.307 558.081 573.378 579.105C554.022 598.776 543.509 626.118 543.037 653.59C540.762 653.59 536.175 653.621 533.9 653.652C534.094 622.491 546.727 591.515 569.332 569.927Z" fill="#313332"/>
<path d="M577.542 578.123C598.267 559.055 622.783 549.328 650.888 548.539C647.02 544.673 643.152 540.807 639.284 536.94C639.292 539.948 639.299 542.964 639.307 545.972C643.175 542.106 647.043 538.239 650.911 534.373C583.939 536.987 534.776 587.046 531.434 653.59C535.302 649.724 539.17 645.858 543.038 641.992C539.99 641.992 536.95 642.015 533.902 642.054C537.77 645.92 541.638 649.786 545.506 653.652C546.574 624.493 557.056 599.039 577.542 578.123C588.016 567.437 571.616 551.021 561.133 561.722C536.377 586.992 523.589 618.4 522.297 653.652C522.073 659.931 527.751 665.305 533.902 665.25C536.95 665.22 539.99 665.196 543.038 665.189C549.606 665.165 554.325 659.923 554.642 653.59C557.342 599.912 597.006 559.673 650.911 557.57C657.216 557.323 662.531 552.482 662.516 545.972C662.508 542.964 662.5 539.948 662.493 536.94C662.477 530.755 657.224 525.164 650.888 525.342C616.571 526.308 586.384 538.479 561.125 561.722C550.101 571.875 566.556 588.244 577.542 578.123Z" fill="#313332"/>
<path d="M862.644 1013.16C882.41 1003.1 901.309 991.052 917.439 975.703C923.806 982.121 930.204 988.523 936.578 995.003C918.143 1012.51 896.807 1026.93 873.768 1037.62C870.109 1029.43 866.396 1021.28 862.644 1013.16Z" fill="#313332"/>
<path d="M864.114 1015.66C876.283 1009.35 887.964 1002.43 899.174 994.523C903.553 991.43 907.715 988.013 911.862 984.603C920.248 977.682 924.456 986.868 930.707 993.178C935.047 997.547 899.6 1020.21 894.741 1023.2C888.97 1026.77 882.951 1029.88 876.894 1032.93C873.931 1034.42 866.226 1014.01 865.158 1011.7C863.595 1008.3 858.59 1011.24 860.145 1014.63C863.889 1022.76 867.603 1030.91 871.27 1039.09C871.958 1040.62 873.939 1040.76 875.246 1040.13C898.602 1028.99 919.69 1014.66 938.644 997.06C939.804 995.977 939.719 994.052 938.644 992.961C932.285 986.513 925.895 980.087 919.505 973.662C918.36 972.509 916.557 972.587 915.397 973.662C899.12 988.701 880.816 1000.49 861.189 1010.66C857.855 1012.37 860.795 1017.38 864.114 1015.66Z" fill="#313332"/>
<path d="M409.133 987.394C427.158 1000.31 446.568 1011.51 467.618 1018.78C464.849 1027.39 462.11 1036.02 459.294 1044.64C435.258 1036.35 412.63 1024.04 392.516 1008.53C398.109 1001.51 403.632 994.462 409.133 987.394Z" fill="#313332"/>
<path d="M407.671 989.892C417.473 996.804 427.507 1003.17 438.036 1008.91C444.031 1012.19 450.274 1014.98 456.564 1017.65C463.496 1020.6 463.874 1020.95 461.515 1028.34C459.07 1035.96 459.581 1041.77 450.537 1038.3C442.848 1035.37 435.46 1031.73 428.141 1027.97C416.073 1021.78 404.786 1014.17 393.986 1006.01C394.179 1007.53 394.381 1009.05 394.574 1010.57C400.152 1003.55 405.683 996.511 411.191 989.443C413.458 986.536 409.389 982.399 407.083 985.345C401.575 992.412 396.044 999.457 390.466 1006.47C389.213 1008.05 389.452 1009.82 391.054 1011.02C411.717 1026.62 434.16 1038.72 458.529 1047.44C460.068 1047.98 461.631 1046.83 462.095 1045.4C464.896 1036.8 467.657 1028.17 470.419 1019.55C470.93 1017.94 469.831 1016.49 468.392 1015.97C447.543 1008.43 428.675 997.616 410.603 984.881C407.532 982.724 404.639 987.757 407.671 989.892Z" fill="#313332"/>
<path d="M581.736 201.343C649.776 192.234 719.696 197.6 785.794 215.926C784.277 220.658 782.73 225.406 781.237 230.176C864.927 255.894 940.572 307.005 995.491 375.181C1040.19 430.181 1071.27 496.114 1085.28 565.597C1088.75 565.025 1092.27 564.475 1095.82 563.911C1112.7 662.459 1095.93 766.003 1049.57 854.499C1026.06 899.563 996.466 941.867 959.618 977.072C953.7 970.213 947.689 963.494 941.67 956.806C1001.37 897.561 1043.91 821.181 1063.58 739.473C1076.74 684.172 1078.63 626.21 1069.18 570.151C1070.12 569.231 1072.02 567.391 1072.95 566.463C1055.89 483.595 1013.71 406.125 953.213 346.973C904.142 298.445 843.196 261.941 777.137 241.852C776.1 245.409 775.094 248.981 774.12 252.561C762.407 247.775 750.176 244.11 737.597 242.533C737.597 238.906 737.597 235.295 737.628 231.7C687.505 220.511 635.743 223.867 585.04 228.367C583.957 219.359 582.788 210.343 581.736 201.343Z" fill="#019EFF"/>
<path d="M255.531 273.176C262.827 280.39 269.874 287.859 277.378 294.888C213.067 363.737 166.093 449.426 146.846 541.905C127.018 637.26 133.176 738.437 166.364 830.135C164.647 830.784 161.235 832.145 159.502 832.826C152.934 835.393 146.351 837.944 139.759 840.496C138.405 841.006 135.69 842.035 134.344 842.553C102.37 743.811 92.5995 636.773 114.717 534.868C135.976 436.923 184.15 343.981 255.531 273.176Z" fill="#019EFF"/>
<path d="M615.914 394.682C671.762 387.235 730 398.068 779.016 425.897C823.801 451.042 860.834 489.689 883.981 535.51C905.379 577.427 914.84 625.282 911.398 672.21C908.009 722.215 889.605 771.029 859.233 810.904C828.443 851.723 785.36 883.147 737.047 899.927C682.089 919.211 620.656 919.288 565.598 900.321C518.152 884.099 475.672 853.803 444.851 814.268C408.979 768.763 388.942 710.949 389.545 652.987C389.058 589.907 413.195 527.198 455.21 480.186C496.251 433.707 554.373 402.646 615.914 394.682ZM607.698 408.337C515.552 423.484 435.955 495.163 411.176 585.113C395.642 639.363 399.162 698.925 421.511 750.817C445.741 808.098 492.375 855.442 549.251 880.673C601.548 904.187 662.06 908.625 717.289 893.238C766.437 879.753 811.005 850.556 843.327 811.16C873.336 774.825 892.614 729.762 898.115 682.927C903.971 634.569 895.19 584.494 873.011 541.116C849.562 494.722 811.175 456.014 764.897 432.284C716.98 407.363 660.838 398.973 607.698 408.337Z" fill="#019EFF"/>
<path d="M633.86 580.033C671.706 570.847 713.535 594.531 725.062 631.685C737.827 667.539 719.739 710.64 685.259 726.715C651.638 743.927 606.722 732.275 586.035 700.588C563.175 668.614 570.091 620.171 601.082 595.938C610.551 588.152 621.908 582.685 633.86 580.033Z" fill="#019EFF"/>
<path d="M434.245 868.495C486.626 921.515 559.169 953.852 633.591 957.718C645.404 959.226 656.939 955.591 668.728 955.661C763.474 951.083 853.894 898.256 905.379 818.791C937.747 769.683 954.991 711.041 954.968 652.307L948.864 652.245C949.374 742.45 906.005 831.395 834.67 886.611C782.868 927.539 717.118 950.295 651.098 950.132C650.989 949.104 650.827 947.07 650.719 946.042C578.764 946.181 507.22 918.786 454.003 870.35C392.732 815.698 356.264 734.409 356.968 652.276C352.906 652.276 348.837 652.276 344.799 652.276C344.072 732.452 377.206 812.18 434.245 868.495Z" fill="#FFD701"/>
<path d="M498.702 1270.49C653.209 1310.26 822.887 1289.06 961.952 1210.55C1059.41 1156.06 1142.05 1075.47 1198.71 979.252C1253.85 886.372 1284.19 779.117 1286.57 671.158C1286.15 665.715 1288.55 658.964 1284.08 654.65C1282.88 717.32 1274.9 780.083 1256.32 840.117C1211.37 990.023 1107.94 1121.16 972.938 1200.4C969.898 1195.01 966.865 1189.65 963.569 1184.43C919.071 1209.71 872.259 1231.27 822.941 1245.27C670.399 1289.94 501.448 1267.88 362.05 1193.09C359.296 1198.64 356.426 1204.15 353.47 1209.59C311.842 1186.33 272.62 1158.67 237.087 1126.85C239.981 1123.42 242.882 1119.96 245.829 1116.52C226.961 1102.78 211.38 1085.18 196.48 1067.36C172.095 1037.69 149.877 1006.32 128.897 974.172C125.137 976.963 121.377 979.801 117.64 982.6C61.4371 889.782 29.9971 782.287 27.2663 673.833C27.0729 667.369 27.042 660.843 26.3921 654.371C24.8372 655.817 23.9707 657.549 23.8701 659.583C24.0945 763.041 50.2659 866.384 99.4758 957.431C181.178 1111.2 329.751 1227.81 498.702 1270.49Z" fill="#FFD701"/>
<path d="M495.112 1283.53C688.184 1331.06 897.935 1290.38 1053.97 1165.08C1130.89 1103.3 1192.18 1026.93 1235.89 938.503C1258.35 893.06 1274.07 844.509 1285.33 795.192C1294.48 755.054 1311.13 690.667 1297.14 651.046C1292.12 636.819 1270.97 638.914 1270.54 654.642C1264.46 874.974 1156.75 1074.31 966.107 1188.71C972.28 1190.33 978.454 1191.94 984.627 1193.57C981.633 1188.16 978.515 1182.84 975.258 1177.59C971.398 1171.18 963.244 1169.1 956.738 1172.74C771.58 1275.99 557.288 1279.92 368.881 1181.4C362.653 1178.13 353.818 1179.46 350.36 1186.25C347.606 1191.81 344.736 1197.3 341.781 1202.75C347.954 1201.13 354.128 1199.51 360.301 1197.9C319.671 1174.68 281.864 1148.13 246.664 1117.27C246.664 1123.65 246.664 1130.02 246.664 1136.4C249.581 1132.96 252.49 1129.52 255.406 1126.08C259.715 1121 261.557 1111.75 255.406 1106.94C207.883 1069.75 173.48 1017.19 140.594 967.329C136.888 961.723 128.208 957.872 122.065 962.473C118.313 965.28 114.561 968.094 110.809 970.901C116.983 972.525 123.156 974.141 129.337 975.757C69.5985 874.587 47.179 770.248 39.938 654.364C39.1644 642 21.0076 634.522 14.7104 647.536C2.29379 673.192 12.4513 712.998 15.7624 740.308C20.7909 781.784 30.7475 822.363 43.5663 862.077C65.8697 931.173 101.58 997.57 146.589 1054.51C235.145 1166.54 356.851 1247.17 495.112 1283.53C512.016 1287.98 519.179 1261.88 502.307 1257.44C379.557 1225.16 271.761 1157.16 187.8 1062.25C140.725 1009.04 104.806 946.142 78.7815 880.286C65.5448 846.79 56.2923 811.847 48.9429 776.65C44.5874 755.811 41.9881 734.648 39.8761 713.485C38.6074 700.781 32.3875 672.991 38.0968 661.199C29.6876 658.926 21.2783 656.645 12.8691 654.371C20.3887 774.756 43.9144 884.353 105.966 989.428C109.394 995.235 118.553 998.722 124.495 994.284C128.247 991.477 131.999 988.662 135.751 985.855C129.577 984.239 123.404 982.616 117.223 981C151.153 1032.43 187.243 1087.71 236.275 1126.09C236.275 1119.71 236.275 1113.34 236.275 1106.95C233.358 1110.39 230.449 1113.83 227.533 1117.27C223.015 1122.6 221.653 1131.26 227.533 1136.41C264.45 1168.79 304.005 1196.9 346.655 1221.27C352.859 1224.82 361.686 1222.97 365.175 1216.42C368.146 1210.97 371 1205.48 373.755 1199.92C367.581 1201.54 361.408 1203.16 355.234 1204.77C552.337 1307.85 776.648 1304.16 970.416 1196.11C964.242 1194.5 958.069 1192.88 951.895 1191.26C955.144 1196.51 958.27 1201.83 961.264 1207.23C964.884 1213.58 973.51 1215.85 979.784 1212.09C1178.64 1092.77 1291.29 884.477 1297.63 654.658C1288.77 655.856 1279.9 657.054 1271.04 658.253C1277.88 677.607 1271.48 705.134 1269.54 725.022C1267.04 750.701 1261.95 776.047 1256.21 801.162C1245.45 848.305 1227.93 893.679 1206.54 936.956C1164.9 1021.18 1101.92 1094.19 1027.76 1151.4C879.523 1265.78 682.931 1301.9 502.315 1257.45C485.349 1253.26 478.154 1279.37 495.112 1283.53Z" fill="#FFD701"/>
<path d="M403.858 992.59C284.589 913.048 212.395 765.454 222.839 621.509C223.473 612.802 209.927 612.857 209.301 621.509C198.509 770.356 273.89 922.141 397.035 1004.27C404.307 1009.14 411.076 997.408 403.858 992.59Z" fill="#313332"/>
</svg>
