<svg width="685" height="208" viewBox="0 0 685 208" fill="none" xmlns="http://www.w3.org/2000/svg">
<path d="M32.9932 -984.937C142.367 -984.968 251.54 -951.526 341.489 -889.203C425.643 -831.397 493.087 -749.543 533.261 -655.688C572.77 -564.176 585.891 -461.668 571.548 -363.081C557.522 -264.471 515.236 -170.183 451.374 -93.8113C388.254 -17.965 304.216 40.2903 210.871 72.302C105.93 108.621 -10.2211 111.582 -116.957 81.0162C-214.774 53.1799 -304.235 -3.02612 -372.012 -78.7719C-418.019 -129.906 -454.054 -189.878 -477.804 -254.365C-471.213 -256.917 -464.629 -259.469 -458.061 -262.036C-419.791 -156.59 -346.065 -64.5754 -251.962 -3.55194C-174.128 47.3575 -82.3844 76.6707 10.5736 80.444C111.16 85.006 212.929 59.6752 299.474 8.14703C298.661 6.75519 297.006 3.94824 296.194 2.52545C372.782 -42.608 437.604 -107.559 482.118 -184.504C527.9 -263.288 552.679 -354.174 552.904 -445.299C547.45 -445.84 541.98 -446.358 536.542 -446.869C540.394 -541.497 513.805 -637.416 461.315 -716.324C435.105 -755.79 402.025 -790.462 364.644 -819.52C368.705 -824.724 372.782 -829.928 376.867 -835.101C282.772 -917.744 158.219 -964.215 32.97 -963.944C32.97 -970.957 32.97 -977.947 32.9932 -984.937Z" fill="#FF009D"/>
<path d="M-118.862 175.637C35.6455 215.412 205.323 194.21 344.389 115.696C441.849 61.2063 524.487 -19.3876 581.147 -115.601C636.291 -208.481 666.625 -315.736 669.007 -423.695C668.582 -429.138 670.988 -435.889 666.516 -440.203C665.317 -377.533 657.341 -314.77 638.759 -254.736C593.804 -104.83 490.379 26.3102 355.374 105.551C352.334 100.162 349.302 94.7953 346.006 89.5759C301.507 114.861 254.696 136.418 205.377 150.422C52.8353 195.091 -116.115 173.031 -255.514 98.2363C-258.268 103.788 -261.138 109.301 -264.093 114.737C-305.722 91.4783 -344.944 63.8197 -380.476 31.9935C-377.583 28.5681 -374.682 25.1041 -371.734 21.6709C-390.603 7.92285 -406.184 -9.6759 -421.084 -27.4911C-445.468 -57.16 -467.686 -88.5378 -488.667 -120.681C-492.427 -117.89 -496.186 -115.052 -499.923 -112.253C-556.126 -205.072 -587.566 -312.566 -590.297 -421.02C-590.491 -427.484 -590.521 -434.01 -591.171 -440.482C-592.726 -439.036 -593.593 -437.304 -593.693 -435.27C-593.469 -331.812 -567.298 -228.47 -518.088 -137.422C-436.386 16.351 -287.812 132.954 -118.862 175.637Z" fill="#FFD701"/>
<path d="M-122.451 188.681C70.6208 236.204 280.372 195.524 436.403 70.2297C513.324 8.44858 574.618 -67.9236 618.327 -156.35C640.785 -201.793 656.505 -250.344 667.762 -299.661C676.921 -339.799 693.562 -404.186 679.575 -443.807C674.554 -458.034 653.411 -455.939 652.978 -440.211C646.897 -219.879 539.186 -20.5399 348.543 93.8597C354.717 95.4757 360.89 97.0917 367.064 98.7155C364.07 93.3106 360.952 87.9832 357.695 82.7407C353.835 76.3306 345.681 74.2505 339.175 77.8846C154.017 181.134 -60.2756 185.07 -248.683 86.5448C-254.91 83.2818 -263.745 84.6042 -267.203 91.4009C-269.957 96.9526 -272.827 102.45 -275.783 107.902C-269.609 106.278 -263.436 104.662 -257.262 103.046C-297.893 79.8254 -335.699 53.2805 -370.899 22.4132C-370.899 28.7923 -370.899 35.1636 -370.899 41.5505C-367.983 38.1096 -365.074 34.6688 -362.157 31.2279C-357.848 26.1478 -356.007 16.8999 -362.157 12.0904C-409.681 -25.1021 -444.083 -77.6663 -476.97 -127.524C-480.676 -133.13 -489.355 -136.981 -495.498 -132.38C-499.25 -129.573 -503.002 -126.759 -506.754 -123.952C-500.581 -122.328 -494.407 -120.712 -488.226 -119.096C-547.965 -220.266 -570.384 -324.605 -577.626 -440.489C-578.399 -452.853 -596.556 -460.331 -602.853 -447.317C-615.27 -421.661 -605.112 -381.855 -601.801 -354.545C-596.773 -313.069 -586.816 -272.49 -573.997 -232.776C-551.694 -163.681 -515.983 -97.283 -470.974 -40.3423C-382.418 71.6912 -260.712 152.316 -122.451 188.681C-105.548 193.127 -98.384 167.023 -115.257 162.584C-238.007 130.302 -345.803 62.3118 -429.764 -32.6024C-476.838 -85.8161 -512.757 -148.711 -538.782 -214.567C-552.019 -248.063 -561.271 -283.006 -568.621 -318.203C-572.976 -339.042 -575.575 -360.205 -577.687 -381.368C-578.956 -394.072 -585.176 -421.862 -579.467 -433.654C-587.876 -435.927 -596.285 -438.208 -604.694 -440.482C-597.175 -320.097 -573.649 -210.5 -511.597 -105.425C-508.17 -99.6183 -499.01 -96.1309 -493.069 -100.569C-489.317 -103.376 -485.565 -106.191 -481.813 -108.998C-487.986 -110.614 -494.16 -112.237 -500.341 -113.853C-466.41 -62.4259 -430.321 -7.13977 -381.289 31.2357C-381.289 24.8565 -381.289 18.485 -381.289 12.0981C-384.205 15.539 -387.114 18.9799 -390.031 22.4207C-394.549 27.7483 -395.91 36.4085 -390.031 41.5583C-353.114 73.9412 -313.558 102.048 -270.909 126.42C-264.704 129.97 -255.877 128.122 -252.388 121.565C-249.418 116.121 -246.563 110.623 -243.809 105.064C-249.982 106.688 -256.156 108.304 -262.329 109.92C-65.2267 212.999 159.084 209.311 352.852 101.26C346.679 99.6434 340.505 98.0275 334.332 96.4037C337.581 101.662 340.706 106.981 343.7 112.378C347.321 118.727 355.947 121 362.221 117.235C561.072 -2.08276 673.726 -210.376 680.07 -440.196C671.204 -438.997 662.338 -437.799 653.473 -436.6C660.312 -417.246 653.914 -389.719 651.98 -369.831C649.473 -344.152 644.391 -318.806 638.65 -293.692C627.889 -246.548 610.367 -201.174 588.976 -157.897C547.34 -73.6685 484.352 -0.667908 410.193 56.5512C261.96 170.928 65.3679 207.045 -115.249 162.592C-132.214 158.409 -139.409 184.513 -122.451 188.681Z" fill="#FFD701"/>
</svg>
